<?xml version="1.0" encoding="UTF-8"?>
<svg id="Calque_1" data-name="Calque 1" xmlns="http://www.w3.org/2000/svg" viewBox="0 0 283.46 283.46">
  <defs>
    <style>
      .cls-1 {
        fill: #fff;
      }

      .cls-2 {
        fill: #eb8d31;
      }

      .cls-3 {
        fill: #31b4e1;
      }

      .cls-4, .cls-5 {
        fill: #2a4093;
      }

      .cls-6, .cls-7 {
        fill: #37ab46;
      }

      .cls-7, .cls-5 {
        opacity: .42;
      }

      .cls-8 {
        fill: #268951;
      }

      .cls-9 {
        fill: #dd581d;
      }
    </style>
  </defs>
  <circle class="cls-1" cx="142.13" cy="141.12" r="138.67"/>
  <polygon points="249.6 165.85 31.12 165.85 37.71 174.38 40.3 181.72 46.89 187.28 58.93 204.14 73.84 213.07 80.72 223.19 97.06 229.74 105.09 238.87 125.16 249.59 130.9 257.13 139.5 263.28 161.58 252.56 167.6 244.03 188.63 235.36 208.54 223.64 210.6 202.36 235.55 187.48 245.3 174.38 249.6 165.85"/>
  <path class="cls-9" d="M229.59,188.34c-1.29-.89-1.29-1.79-1.72-4.76s-1.14-2.38-2.86-4.56c-1.72-2.18-.86-3.47-1.57-4.96s-1.72,2.18-1.72,2.88-.14,3.67-.86,4.86c-.71,1.19-.57,3.57-1,5.26-.43,1.69-2.72,4.66-2.29,2.78,.43-1.89-1.72-3.77-2.57-5.26-.86-1.49-1.57-6.85-2.72-8.83-1.14-1.98-1.86,1.29-3.15,2.58-1.29,1.29-1,2.48-.71,4.07,.29,1.59-1.86,7.04-2.29,10.32-.43,3.27-1.86,6.95-2.14,4.76-.29-2.18-.57-6.15-.71-8.83-.14-2.68-1-7.24-2-9.72-1-2.48-3.57-.89-4.58,.4-1,1.29-1.29,7.54-1.57,11.21-.29,3.67-.86,3.57-1.14,3.08s-1.29-9.52-1.72-12.1c-.43-2.58-1.29-2.78-3.15-2.68-1.86,.1-1.29,2.78-1.86,5.46-.57,2.68-1.86,3.97-2.14,5.85-.29,1.89-.29,5.26-.43,8.23-.14,2.98-1,5.85-2,4.46-1-1.39-.71-1.89-.86-5.16-.14-3.27-1.43-2.98-2.72-5.56-1.29-2.58-.86-4.17-1.43-7.04-.57-2.88-1.72-6.25-3.43-8.63-1.72-2.38-3.86,.2-5.43,1.79-1.57,1.59-2.9,2.68-3.18,7.14-.29,4.46-1.86,14.19-2.14,13-.29-1.19-1.72-7.24-2-9.72s-.43-5.85-.86-8.14c-.43-2.28-1.86-4.96-3.29-4.96s.04,2.18-.25,5.16c-.43,4.56-3.57,18.26-4.29,19.55-1.57-1.89-1.72-13.99-2.57-19.64-.86-5.66-2.86-6.35-7.43-3.57s-5.72,16.47-6.43,22.52c-.71,6.05-2.14,2.58-2.14,2.58-4.01-15.47-4.74-25.18-11.15-17.76-.43-3.27-3.15-6.65-4.58-6.65s-1.57,.3-3.43,3.08c-1.86,2.78-2.94-2.13-4.51,8.48-2.57-22.72-5.35-10.07-7.5-10.07s-3.43,3.47-3.43,3.47c-.57-3.87-1.81-7.57-3.08-4.81-.61,1.33-7.34-7.08-8.04,1.4-.06,.72-.72,.28-.82-.45-.48-3.47-.84-3.25-1.03-3.78-1.2-3.35-2.63-2.46-3.67-2.91-2.84-1.24-3.98-.39-6.96,1.82-3.35,2.49-7.69-5.67-8.01-2.13,0,.08-.71,3.56-.89,4.61-.22,1.3-.75,.28-.77,.18-2.13-13.19-5.82-6.21-7.24-3.44-.56,1.09-1.76,3.74-2.68,10.81-.08,.63-.97,.69-1.12,.07-1.53-6.1-2.4-5.55-5.17-5.55-3.29,0-4.07,2.84-4.07,2.84l-.43,2c-.09,.43-.69,.46-.82,.04l-1.24-3.84c-.59-1.36-1.55-2.52-2.78-3.35l-3.3-2.26,2.59,7.35,6.79,5.98,12.01,16.87,14.87,8.93,6.86,10.12,7.9-.86s8.93-4.56,12.67,6.88c.49,1.49,1.14-.3,1.57-1.49,.43-1.19-1.43-.5,0-2.08,1.43-1.59,0-5.6,1.71-6.59,1.72-.99,1.86-.69,2.14-1.69,.29-.99-2.14-.5-.14-2.18,2-1.69,2.57-1.98,2.57-2.88s3.43,4.31,3.43,5.5,0,2.48,.43,2.88c.43,.4,.86,.5,.86,2.18s-.43,2.48,1.14,3.27c1.57,.79,3.43,.3,3.43,1.79s-.57,1.39,1,2.68c1.57,1.29,2.14,1.79,2.14,2.68s-.29,.99,.86,1.69c1.14,.69,1.86,1.19,1.72,2.18-.14,.99-.86,3.67,.86,2.58s2.57-2.78,2.57-4.07-.14-3.27,.43-3.77c.57-.5,.57-.69,.86-2.08,.29-1.39,2.14-1.29,2.57-1.29s1.43-.6,1.29-1.98c-.14-1.39-.57-3.57-.14-4.37s.86-1.19,.86-2.08-.57-1.49,.14-2.38c.71-.89,1.14-1.19,1.14-1.89s.57-3.17,1.29-2.38,.71,1.69,1,3.08c.29,1.39,.14,1.79,1,2.38,.86,.6,1.14,.99,1.14,2.08s.14,1.89,.86,2.78c.71,.89,0,1.39,.71,2.28,.71,.89,1.57,.3,2,1.89,.43,1.59-.57,1.29,.43,2.28,1,.99,1.29,0,1.72,1.49,.43,1.49-.86,.99,1.14,2.18,2,1.19,2.86-.69,3.15,1.98,.29,2.68,.57,2.58,1.57,3.67,1,1.09,0,1.49,.43,2.78,.43,1.29,1.86,1.69,1.86,1.39s-.43-1.19,1-2.58c1.43-1.39,2-1.98,2.43-3.17,.47-1.32-1.33-1.3,1.76-2.09,1.1-.28,1.84-1.05,1.65-1.85-.32-1.4-1.68-.95-.41-2.7,1.29-1.79,2.29-2.28,2.14-3.37-.14-1.09-1-1.19-.14-2.48,.86-1.29,1.29-1.19,1.29-1.89s-.29-2.78,.14-3.08c.49-.34,1.92,.36,1.71,1.36-.18,.86-.06,2.09,.46,2.8,1.19,1.63,.58,1.12,1.12,2.39,.43,.99,0,1.49,.14,2.18,.14,.69,.71-.4,1.57,.99,.86,1.39,.29,.79,.71,2.18,.43,1.39,.71,1.59,1.72,1.79,1,.2,1.72-.89,1.86,.89,.14,1.79-.71,1.49,1,2.28,1.03,.48,15.92-11.05,15.51-10.18l4.65-.74,2.05,2.6,13.21-5.4,22.14-22.33,7.31-17.52-.86-7.58s-6.25,13.03-7.53,12.14Z"/>
  <path d="M182.32,212.58s.71-.3,.85,.79-.14,1.57,.28,2.56,1.28,1.18,1.42,2.56,.43,1.77,1,2.95c.57,1.18,.14,1.87,.57,3.15,.43,1.28,2.23,2.15,1.28,4.13-.57,1.18-9.95,7.58-9.95,7.58,0,0-.43-5.8,.43-6.49,.85-.69,1.99-2.26,1.71-3.74s-.71-2.46-.14-3.44,1-2.36,.85-3.64c-.14-1.28-1-1.97-.14-2.75,.85-.79,1.14-.98,1-1.97-.14-.98,.85-1.67,.85-1.67Z"/>
  <path d="M150.04,232.46c-.16-1.08-.24-2.96,.11-3.84,.51-1.29,.9-3.09,.77-4.76-.13-1.67-.9-2.57-.13-3.6,.77-1.03,1.03-1.29,.9-2.57-.13-1.29,.77-2.19,.77-2.19,0,0,.64-.39,.77,1.03,.13,1.42-.13,2.06,.26,3.35,.39,1.29,1.16,1.54,1.29,3.35,.13,1.8,.39,2.32,.9,3.86,.51,1.54,.13,2.45,.51,4.12,.32,1.37,1.47,2.39,1.4,4.14l-7.57-2.88Z"/>
  <polygon class="cls-2" points="140.41 18.27 122.66 32.55 119.81 45.28 107.74 50.21 102.42 59.82 88.57 63.72 82.53 79.56 64.42 86.05 58.39 95.92 52.35 99.82 35.3 117.35 243.74 117.35 208.59 90.99 205.39 77.22 191.19 64.5 183.38 59.82 180.18 53.07 165.98 48.91 161.72 34.11 145.03 26.32 140.41 18.27"/>
  <polygon class="cls-9" points="146.8 33.27 150.35 45.73 163.14 47.55 159.23 37.68 146.8 33.27"/>
  <polygon class="cls-9" points="100.26 116.27 116.23 100.94 109.16 91.64 97.36 104.4 100.26 116.27"/>
  <polygon class="cls-9" points="157.03 52.13 157.32 91.8 180.8 63.96 170.87 53.34 157.03 52.13"/>
  <polygon class="cls-9" points="180.73 72.03 197.93 79.74 189.06 96.38 162.43 108.55 166.86 85.83 180.73 72.03"/>
  <polygon class="cls-9" points="186.86 108.93 195.21 93.87 221.52 97.92 244.41 116.88 209.86 117.46 186.86 108.93"/>
  <polygon class="cls-9" points="91.85 66.44 88.66 80.21 114.93 92.16 101.08 72.16 91.85 66.44"/>
  <polygon class="cls-9" points="119.45 47.78 107.15 58.46 120.61 99.23 123.45 56.13 119.45 47.78"/>
  <polygon class="cls-9" points="75.69 86.57 47.01 117.35 94.97 117.35 75.69 86.57"/>
  <polygon class="cls-3" points="131.91 51.23 142.32 50.99 144.05 89.85 130.41 91.01 131.91 51.23"/>
  <polygon class="cls-3" points="138.08 92.99 156.3 93.21 159.44 107.48 144.39 109.01 138.08 92.99"/>
  <path class="cls-1" d="M141.46,109.1s-1.22-1.28,1.28-2c-.7-.86-1.05-2.57,2.09-2.24-.47-1.38-.12-2,1.69-1.71-.41-.95,.7-5.09,3.2-.9,.93-1.09,1.92-1.28,1.92-1.28,0,0,1.63-.33,1.86,1.81,0,0,2.27-6.14,3.55-.52,.64-1.67,.99-1.76,1.69-1.76s1.45,.29,1.74,1.67c.7-1.28,1.16-3.24,3.02-2.57,.64,.29,1.98,.95,.52,3.24,1.45-.95,2.91-1.24,3.55-.86s1.74,.57,1.05,3.85c1.74-1.24,5.18-2.95,4.19,1.57,1.34-.1,2.79,1,1.69,1.76-32.05,.05-33.04-.05-33.04-.05Z"/>
  <polygon class="cls-9" points="126.74 48.98 139.52 49.76 145.65 43.52 138.19 30.28 137.39 23.27 131.53 30.86 133.4 39.24 128.87 42.36 126.74 48.98"/>
  <polygon class="cls-9" points="85.19 83.07 83.33 87.16 89.19 100.21 106.5 91.25 92.92 92.03 91.59 84.43 85.19 83.07"/>
  <g>
    <path class="cls-3" d="M168.61,232.29s.01,.06,.03,.09c.43,1.39,.71,1.59,1.72,1.79,1,.2,1.72-.89,1.86,.89,.14,1.79-.71,1.49,1,2.28,1.03,.48,.72,1.66,.31,2.54l4.88-3.61,5.56-4.2-15.35,.21Z"/>
    <path class="cls-3" d="M146.05,233.88c2,1.19,2.86-.69,3.15,1.98,.29,2.68,.57,2.58,1.57,3.67,1,1.09,0,1.49,.43,2.78,.43,1.29,1.86,1.69,1.86,1.39s-.43-1.19,1-2.58c1.43-1.39,2-1.98,2.43-3.17,.47-1.32-1.33-1.3,1.76-2.09,1.1-.28,1.84-1.05,1.65-1.85-.22-.96-.92-1.05-.94-1.57l-14,.19c-.11,.42-.29,.44,1.09,1.26Z"/>
    <path class="cls-3" d="M121.57,232.94c.02,.11,.03,.22,.03,.34,0,.89-.29,.99,.86,1.69,1.14,.69,1.86,1.19,1.72,2.18-.14,.99-.86,3.67,.86,2.58,1.72-1.09,2.57-2.78,2.57-4.07,0-.84-.06-1.98,.06-2.81l-6.1,.08Z"/>
  </g>
  <polygon class="cls-3" points="141.28 109.05 149.2 117.38 208.58 117.03 187.19 108.93 141.28 109.05"/>
  <ellipse class="cls-3" cx="135.59" cy="207.17" rx=".75" ry="1.16"/>
  <ellipse class="cls-3" cx="163.97" cy="216.87" rx=".83" ry="1.16"/>
  <ellipse class="cls-3" cx="163.94" cy="206.49" rx=".91" ry="1.26"/>
  <ellipse class="cls-3" cx="204.51" cy="202.79" rx=".86" ry="1.26"/>
  <g>
    <path class="cls-5" d="M19.62,161.25c-1.44-.41-2.53-1.16-3.27-2.24-3.04-5.57-4.84-12.5-5.41-20.78-.23-3.34-.18-6.01,.14-8.01,.65-3.22,3.26-4.99,7.82-5.31,5.17,0,9.03,.72,11.59,2.19,1.41,.74,2.23,3.14,2.46,7.21,.26,3.75,.03,9.06-.68,15.91-.58,5.24-1.19,8.3-1.81,9.2-.87,1.3-2.77,2.02-5.71,2.17-2.47-.02-4.17-.13-5.11-.33Zm3.64-7.06c1.18-.07,1.93-.47,2.26-1.21,.23-.51,.52-2.69,.86-6.52,.49-7.78,.32-12.02-.49-12.72-1.24-1.11-3.04-1.47-5.43-1.08-1.83,.38-2.85,1.38-3.05,3-.09,1.18-.07,2.73,.06,4.66,.34,4.87,1.14,8.95,2.42,12.26,.31,.64,.76,1.09,1.34,1.34,.37,.12,1.05,.21,2.02,.27Z"/>
    <path class="cls-5" d="M51.55,152.95c-2.16,3.02-4.23,4.69-6.23,5.01-1.72,.23-3.06,.16-4-.2-2.62-.57-4.26-2.38-4.91-5.42-1.12-6.91-1.39-12.55-.83-16.93,.4-2.71,1.87-4.52,4.41-5.43,2.4-.86,4.61-1.09,6.65-.7,2.71,.59,4.1,2.24,4.16,4.96,.03,1.25,.02,2.62-.03,4.13l-4.81,.55c-.04-.65-.11-1.3-.2-1.94-.17-1.05-.72-1.61-1.64-1.66-.73-.13-1.44,0-2.13,.37-.7,.31-1.15,1.19-1.33,2.62-.33,3.18-.12,7.26,.6,12.25,.33,1.48,1.27,2.02,2.83,1.63,1.01-.25,2.36-1.36,4.05-3.33l3.42,4.08Z"/>
    <path class="cls-5" d="M67.12,152.51c-1.95,2.73-3.83,4.24-5.63,4.53-1.56,.21-2.77,.15-3.62-.18-2.37-.52-3.85-2.15-4.44-4.9-1.01-6.24-1.26-11.35-.75-15.31,.36-2.45,1.69-4.09,3.99-4.91,2.17-.78,4.17-.99,6.01-.63,2.45,.53,3.71,2.02,3.77,4.49,.03,1.13,.02,2.37-.03,3.74l-4.35,.5c-.04-.59-.1-1.17-.18-1.75-.16-.95-.65-1.45-1.49-1.5-.66-.12-1.3,0-1.93,.34-.64,.28-1.04,1.07-1.21,2.37-.29,2.87-.11,6.56,.54,11.07,.29,1.33,1.15,1.82,2.56,1.47,.91-.23,2.13-1.23,3.66-3.02l3.09,3.69Z"/>
    <path class="cls-5" d="M68.15,134.87l-.5-6.59,5.09,.21-.4,6.57-4.19-.19Zm.47,21.69l-.9-19.41,5.09-.59v18.82l-4.19,1.18Z"/>
    <path class="cls-5" d="M79.76,157.68l-.28-21.13h-5.41l-.09-5.34,16.39-.93-.19,6.26h-4.98l-.37,20.49-5.07,.63Z"/>
    <path class="cls-5" d="M87.26,157.34l7.76-25.65,3.09,.38,8.34,24.65-4.78,.96-1.21-4.12h-6.96l-1.06,4.97-5.19-1.19Zm9.28-16.25l-1.81,7.44,4.24,.18-2.43-7.62Z"/>
    <path class="cls-5" d="M111.37,129.21l6.35,14.56-.34-13.07,5.82-.32-.87,26.18h-4.09l-6.26-14.46-.22,12.87-4.22,.28-.99-25.1,4.81-.93Z"/>
    <path class="cls-5" d="M126.13,135.8l-.5-6.59,5.09,.21-.4,6.57-4.19-.19Zm.47,21.69l-.9-19.41,5.09-.59v18.82l-4.19,1.18Z"/>
    <path class="cls-5" d="M133.83,156.15l-.7-23.82,13.44,.55-.32,4.5-8.1,.4v2.77l5.92,.37v4.57l-5.92,.19v5.03h8.06l-.13,4.58-12.24,.86Z"/>
    <path class="cls-7" d="M157.72,159.91l-.85-28.63,16.15,.66-.38,5.41-9.74,.48v3.33l7.12,.45v5.49l-7.12,.22v6.05h9.69l-.16,5.51-14.71,1.04Zm3.39-33.47l7.77-4.68,1.88,5.72-8.34,3.11-1.31-4.14Z"/>
    <path class="cls-7" d="M179.47,131.6l3.49,18.47,3.79-19.41,6.26,1.1-7.94,25.6-4.79,.6-6.62-25.19,5.81-1.18Z"/>
    <path class="cls-7" d="M189.16,155.89l8.95-24.47,2.98,.54,6.74,24.39-4.69,.66-.94-4.06-6.75-.38-1.3,4.77-4.97-1.44Zm9.91-15.27l-2.17,7.13,4.1,.41-1.94-7.53Z"/>
    <path class="cls-7" d="M214.63,146.44c-6.15-1.97-7.94-6.32-5.36-13.05,.33-.89,1.06-1.52,2.18-1.9,1.08-.38,2.56-.61,4.44-.7,2.55-.02,4.09,.34,4.63,1.06,1.14,1.61,1.72,3.26,1.74,4.93,.02,1.67-.24,3.14-.8,4.4l-4.12-.33c.8-1.49,.86-2.79,.16-3.91-.3-.52-.98-.74-2.05-.68-1.18,.06-1.91,.2-2.2,.42-.54,.26-.82,.62-.86,1.07-.2,1.82,.63,3.01,2.49,3.59,5.13,2.06,7.8,4.51,8.03,7.37,.2,3.42-.12,5.44-.99,6.08-1.55,1.27-3.77,2.11-6.68,2.52-3,.15-4.84-.92-5.53-3.21-.37-1.43-.5-3.52-.38-6.25l3.81-.36c.07,.86,.16,1.58,.27,2.15,.24,1.34,.97,2.08,2.2,2.2,1.6-.1,2.52-.82,2.75-2.15,.24-1.02-1-2.11-3.72-3.25Z"/>
    <path class="cls-7" d="M225.29,135.8l-.5-6.59,5.09,.21-.4,6.57-4.19-.19Zm.47,21.69l-.9-19.41,5.09-.59v18.82l-4.19,1.18Z"/>
    <path class="cls-7" d="M239.52,158.21c-2.29,.04-3.81-.42-4.55-1.38-.53-.66-1.17-3.01-1.9-7.04-.92-5.28-1.38-9.39-1.38-12.32-.04-3.17,.47-5.08,1.52-5.73,1.9-1.28,4.86-2.05,8.88-2.32,3.56,0,5.67,1.23,6.35,3.7,.36,1.54,.53,3.61,.53,6.21,0,6.46-1.03,11.94-3.09,16.43-.51,.88-1.32,1.52-2.42,1.91-.72,.21-2.04,.39-3.95,.53Zm2.31-6.13c.44-.23,.76-.6,.97-1.11,.82-2.64,1.22-5.85,1.22-9.65,0-1.51-.07-2.71-.2-3.63-.24-1.24-1.08-1.97-2.53-2.17-1.87-.18-3.26,.2-4.16,1.13-.6,.59-.5,3.89,.3,9.9,.47,2.96,.81,4.63,1.02,5.02,.29,.55,.9,.83,1.82,.82,.75-.09,1.27-.2,1.55-.31Z"/>
    <path class="cls-7" d="M257.16,125.45l7.98,18.29-.43-16.43,7.32-.41-1.09,32.89h-5.14l-7.87-18.16-.28,16.17-5.3,.35-1.24-31.54,6.04-1.16Z"/>
  </g>
  <path class="cls-3" d="M136.34,201.53c-.08,.62-.44,1.17-.98,1.49l-.02-.11c.02-.64,1.21-16.32,5.72-24.62l2.16-1.54c-3.8,7-6.43,21.07-6.89,24.79Z"/>
  <path class="cls-3" d="M205.86,194.36c-.08,.35-.71,3.17-1.02,3.36l-.43,.37c.94-1.11,.68-8.53,3.19-13.38l.78-1.01c-1.05,5.15-1.89,7.82-2.52,10.65Z"/>
  <path class="cls-3" d="M164.46,197.31c-.06,.52-.36,.97-.81,1.24l-.02-.09c.02-.48-.09-10.11,2.56-17.09,.55-1.46,1.55-2.71,2.84-3.59l.4-.28c-3.17,5.83-4.58,16.72-4.96,19.82Z"/>
  <path class="cls-8" d="M38.01,117.49l11.45-8.67,14.57,4.51,12.84-1.04,8.33-6.24,7.29,3.82,14.57,3.82,9.37-6.94,7.98-.69,11.45,6.59s7.29-.69,8.33-.69,11.8,5.55,11.8,5.55H38.01Z"/>
  <path class="cls-6" d="M210.87,117.49l-8.59-6.06s9.05-1.1,17.19-.55c8.14,.55,14.02,1.84,14.02,1.84l14.48,3.31,.45,1.47h-37.55Z"/>
  <path class="cls-6" d="M189.03,117.28s-.95-1,1-1.56c-.55-.67-.82-2.01,1.64-1.75-.36-1.08-.09-1.56,1.32-1.34-.32-.74,.55-3.98,2.5-.71,.73-.86,1.5-1,1.5-1,0,0,1.27-.26,1.45,1.41,0,0,1.77-4.8,2.77-.41,.5-1.3,.77-1.38,1.32-1.38s1.14,.22,1.36,1.3c.55-1,.91-2.53,2.36-2.01,.5,.22,1.55,.74,.41,2.53,1.14-.74,2.27-.97,2.77-.67s1.36,.45,.82,3.01c1.36-.97,4.05-2.31,3.27,1.23,1.05-.07,2.18,.78,1.32,1.38-25.05,.04-25.82-.04-25.82-.04Z"/>
  <path class="cls-8" d="M201.45,117.09s-1.6-1.19,1.67-1.86c-.91-.8-1.37-2.39,2.74-2.08-.61-1.28-.15-1.86,2.2-1.59-.53-.88,.91-4.73,4.18-.84,1.22-1.02,2.51-1.19,2.51-1.19,0,0,2.13-.31,2.43,1.68,0,0,2.96-5.71,4.64-.49,.84-1.55,1.29-1.64,2.2-1.64s1.9,.27,2.28,1.55c.91-1.19,1.52-3.01,3.95-2.39,.84,.27,2.58,.88,.68,3.01,1.9-.88,3.8-1.15,4.64-.8,.84,.35,2.28,.53,1.37,3.58,2.28-1.15,6.76-2.74,5.47,1.46,1.75-.09,3.65,.93,2.2,1.64-41.87,.04-43.16-.04-43.16-.04Z"/>
  <path class="cls-8" d="M97.55,116.01s-1.8-1.9,1.89-2.95c-1.03-1.27-1.55-3.8,3.09-3.3-.69-2.04-.17-2.95,2.49-2.53-.6-1.41,1.03-7.52,4.72-1.34,1.37-1.62,2.83-1.9,2.83-1.9,0,0,2.41-.49,2.75,2.67,0,0,3.35-9.07,5.24-.77,.94-2.46,1.46-2.6,2.49-2.6s2.15,.42,2.58,2.46c1.03-1.9,1.72-4.78,4.47-3.8,.94,.42,2.92,1.41,.77,4.78,2.15-1.41,4.3-1.83,5.24-1.27,.94,.56,2.58,.84,1.55,5.69,2.58-1.83,7.65-4.36,6.19,2.32,1.98-.14,4.12,1.48,2.49,2.6-47.33,.07-48.8-.07-48.8-.07Z"/>
  <path class="cls-8" d="M34.02,117.13s-2.15-2.26,2.25-3.52c-1.23-1.51-1.84-4.52,3.69-3.94-.82-2.43-.2-3.52,2.97-3.02-.72-1.68,1.23-8.96,5.63-1.59,1.64-1.93,3.38-2.26,3.38-2.26,0,0,2.87-.59,3.28,3.18,0,0,3.99-10.81,6.25-.92,1.13-2.93,1.74-3.1,2.97-3.1s2.56,.5,3.07,2.93c1.23-2.26,2.05-5.7,5.32-4.52,1.13,.5,3.48,1.68,.92,5.7,2.56-1.68,5.12-2.18,6.25-1.51,1.13,.67,3.07,1.01,1.84,6.79,3.07-2.18,9.11-5.19,7.37,2.76,2.35-.17,4.91,1.76,2.97,3.1-56.42,.08-58.16-.08-58.16-.08Z"/>
  <polygon class="cls-3" points="156.52 99.27 131.69 91.77 132.85 90.92 156.48 90.92 156.52 99.27"/>
  <path class="cls-1" d="M128.06,91.63s-.79-1.04,.83-1.62c-.45-.69-.68-2.08,1.35-1.81-.3-1.12-.08-1.62,1.09-1.39-.26-.77,.45-4.13,2.07-.73,.6-.89,1.24-1.04,1.24-1.04,0,0,1.05-.27,1.2,1.47,0,0,1.47-4.98,2.3-.42,.41-1.35,.64-1.43,1.09-1.43s.94,.23,1.13,1.35c.45-1.04,.75-2.62,1.96-2.08,.41,.23,1.28,.77,.34,2.62,.94-.77,1.88-1,2.3-.69s1.13,.46,.68,3.12c1.13-1,3.35-2.39,2.71,1.27,.87-.08,1.81,.81,1.09,1.43-20.73,.04-21.37-.04-21.37-.04Z"/>
  <g>
    <g>
      <path class="cls-4" d="M21.49,157.95c-1.44-.41-2.53-1.16-3.27-2.24-3.04-5.57-4.84-12.5-5.41-20.78-.23-3.34-.18-6.01,.14-8.01,.65-3.22,3.26-4.99,7.82-5.31,5.17,0,9.03,.72,11.59,2.19,1.41,.74,2.23,3.14,2.46,7.21,.26,3.75,.03,9.06-.68,15.91-.58,5.24-1.19,8.3-1.81,9.2-.87,1.3-2.77,2.02-5.71,2.17-2.47-.02-4.17-.13-5.11-.33Zm3.64-7.06c1.18-.07,1.93-.47,2.26-1.21,.23-.51,.52-2.69,.86-6.52,.49-7.78,.32-12.02-.49-12.72-1.24-1.11-3.04-1.47-5.43-1.08-1.83,.38-2.85,1.38-3.05,3-.09,1.18-.07,2.73,.06,4.66,.34,4.87,1.14,8.95,2.42,12.26,.31,.64,.76,1.09,1.34,1.34,.37,.12,1.05,.21,2.02,.27Z"/>
      <path class="cls-1" d="M26.62,158.52c-2.48-.02-4.22-.13-5.18-.34h-.01c-1.49-.43-2.63-1.22-3.39-2.34-3.05-5.59-4.88-12.62-5.45-20.9-.23-3.34-.18-6.05,.14-8.06,.68-3.33,3.38-5.18,8.03-5.5h.06c5.18,0,9.09,.75,11.66,2.22,1.49,.78,2.34,3.2,2.57,7.39,.26,3.75,.03,9.11-.68,15.94-.59,5.33-1.2,8.37-1.85,9.31-.9,1.35-2.88,2.12-5.89,2.27Zm-5.07-.79c.93,.2,2.63,.31,5.06,.33,2.84-.14,4.7-.84,5.51-2.07,.6-.86,1.2-3.92,1.77-9.09,.71-6.81,.94-12.14,.68-15.87-.22-3.96-1-6.32-2.33-7.02-2.5-1.44-6.34-2.17-11.42-2.17h-.06c-4.47,.31-6.95,1.98-7.59,5.12-.31,1.97-.36,4.64-.13,7.95,.57,8.21,2.38,15.17,5.38,20.69,.69,1.01,1.74,1.73,3.12,2.13Zm3.58-6.6h-.01c-1.01-.06-1.69-.15-2.08-.28-.65-.28-1.14-.77-1.48-1.46-1.29-3.33-2.11-7.48-2.44-12.35-.13-1.93-.15-3.51-.06-4.7,.21-1.73,1.3-2.8,3.23-3.21,2.46-.4,4.35-.02,5.63,1.14,.56,.48,1.23,2.34,.57,12.9-.35,3.91-.64,6.06-.88,6.61-.36,.82-1.19,1.27-2.46,1.34h-.01Zm-1.06-21.68c-.53,0-1.09,.05-1.7,.15-1.73,.36-2.67,1.28-2.85,2.8-.09,1.16-.07,2.71,.06,4.62,.33,4.82,1.14,8.92,2.41,12.19,.28,.58,.69,.98,1.22,1.21,.33,.11,.98,.19,1.93,.24,1.09-.06,1.76-.41,2.05-1.07,.15-.34,.42-1.73,.84-6.45,.6-9.54,.11-12.08-.41-12.52-.87-.78-2.06-1.18-3.54-1.18Z"/>
    </g>
    <g>
      <path class="cls-4" d="M53.25,150.55c-2.15,3.01-4.22,4.68-6.2,4.99-1.72,.23-3.05,.16-3.99-.19-2.61-.57-4.24-2.37-4.89-5.4-1.11-6.88-1.39-12.5-.83-16.86,.4-2.7,1.86-4.5,4.39-5.41,2.39-.85,4.6-1.09,6.63-.7,2.7,.58,4.08,2.23,4.15,4.94,.03,1.24,.02,2.61-.03,4.12l-4.8,.55c-.04-.65-.11-1.29-.19-1.93-.17-1.05-.72-1.6-1.64-1.65-.72-.13-1.43,0-2.12,.37-.7,.31-1.14,1.18-1.33,2.61-.32,3.17-.12,7.23,.6,12.2,.32,1.47,1.26,2.01,2.82,1.62,1-.25,2.35-1.36,4.03-3.32l3.4,4.07Z"/>
      <path class="cls-1" d="M45.23,155.9c-.9,0-1.65-.11-2.25-.34-2.67-.58-4.37-2.46-5.04-5.56-1.11-6.88-1.39-12.58-.83-16.94,.41-2.78,1.94-4.67,4.54-5.6,2.41-.86,4.68-1.1,6.75-.71,2.81,.61,4.27,2.34,4.34,5.16,.03,1.24,.02,2.63-.03,4.13v.2s-5.24,.6-5.24,.6l-.02-.24c-.04-.64-.11-1.28-.19-1.91-.16-.94-.61-1.4-1.42-1.45-.69-.12-1.36,0-2,.34-.64,.28-1.04,1.1-1.21,2.43-.32,3.13-.12,7.21,.6,12.14,.14,.63,.41,1.08,.8,1.32,.42,.26,1,.3,1.74,.11,.95-.24,2.27-1.33,3.91-3.25l.18-.21,3.69,4.42-.1,.15c-2.18,3.05-4.32,4.76-6.36,5.08-.67,.09-1.29,.13-1.86,.13Zm1.18-28.87c-1.45,0-2.99,.29-4.6,.86-2.46,.88-3.85,2.59-4.24,5.23-.56,4.32-.28,9.97,.83,16.79,.63,2.94,2.17,4.65,4.71,5.21,.93,.35,2.24,.41,3.91,.19,1.88-.3,3.88-1.89,5.94-4.75l-3.11-3.72c-1.65,1.89-2.95,2.93-3.98,3.19-.86,.21-1.56,.16-2.09-.17-.5-.31-.84-.86-1.01-1.63-.73-4.98-.93-9.1-.6-12.27,.19-1.51,.69-2.45,1.46-2.8,.72-.39,1.48-.53,2.26-.39,.69,.04,1.59,.39,1.83,1.84,.08,.57,.14,1.14,.18,1.71l4.35-.5c.05-1.41,.06-2.72,.03-3.9-.06-2.61-1.36-4.16-3.96-4.72-.61-.12-1.25-.18-1.9-.18Z"/>
    </g>
    <g>
      <path class="cls-4" d="M68.77,150.11c-1.94,2.72-3.81,4.23-5.61,4.51-1.55,.21-2.75,.15-3.6-.18-2.36-.52-3.84-2.14-4.42-4.88-1.01-6.22-1.26-11.3-.75-15.25,.36-2.44,1.69-4.07,3.97-4.89,2.16-.77,4.16-.98,5.99-.63,2.44,.53,3.69,2.02,3.75,4.47,.03,1.12,.02,2.36-.03,3.72l-4.34,.5c-.04-.59-.1-1.17-.18-1.74-.16-.95-.65-1.45-1.48-1.49-.65-.12-1.29,0-1.92,.34-.63,.28-1.04,1.07-1.2,2.36-.29,2.86-.11,6.54,.54,11.03,.29,1.33,1.14,1.82,2.55,1.47,.91-.22,2.12-1.23,3.65-3l3.08,3.68Z"/>
      <path class="cls-1" d="M61.51,154.97c-.81,0-1.5-.1-2.04-.31-2.42-.53-3.97-2.23-4.57-5.05-1.01-6.22-1.26-11.38-.75-15.33,.37-2.53,1.76-4.23,4.12-5.08,2.19-.78,4.25-1,6.11-.64,2.55,.55,3.88,2.13,3.94,4.69,.03,1.12,.02,2.38-.03,3.73v.2s-4.78,.55-4.78,.55l-.02-.24c-.04-.57-.1-1.15-.17-1.73-.14-.84-.54-1.25-1.26-1.29-.63-.11-1.22,0-1.79,.31-.57,.25-.93,.99-1.08,2.18-.29,2.83-.11,6.52,.54,10.97,.12,.56,.36,.96,.71,1.18,.37,.23,.89,.26,1.55,.1,.86-.21,2.04-1.2,3.53-2.93l.18-.21,3.37,4.03-.1,.15c-1.97,2.76-3.91,4.31-5.76,4.61-.61,.08-1.17,.12-1.68,.12Zm1.07-26.11c-1.31,0-2.7,.26-4.15,.78-2.22,.8-3.47,2.34-3.82,4.71-.5,3.9-.25,9.01,.75,15.18,.57,2.65,1.96,4.19,4.24,4.69,.84,.32,2.02,.37,3.52,.17,1.69-.27,3.49-1.7,5.35-4.27l-2.79-3.33c-1.48,1.7-2.66,2.64-3.59,2.87-.78,.2-1.43,.14-1.91-.15-.46-.28-.77-.78-.92-1.49-.66-4.5-.84-8.23-.55-11.1,.18-1.38,.63-2.23,1.34-2.55,.66-.36,1.35-.48,2.06-.35,.63,.03,1.45,.36,1.67,1.69,.07,.51,.12,1.02,.16,1.52l3.9-.45c.04-1.27,.05-2.45,.02-3.51-.06-2.35-1.22-3.74-3.57-4.25-.55-.11-1.13-.16-1.71-.16Z"/>
    </g>
    <g>
      <path class="cls-4" d="M69.79,132.53l-.5-6.56,5.07,.2-.4,6.55-4.17-.19Zm.47,21.61l-.89-19.34,5.07-.59v18.75l-4.17,1.17Z"/>
      <path class="cls-1" d="M70.04,154.44l-.92-19.85,5.54-.64v19.19l-4.63,1.3Zm-.43-19.43l.87,18.83,3.72-1.05v-18.31l-4.59,.53Zm4.58-2.04l-4.61-.21-.53-7.03,5.57,.22-.42,7.01Zm-4.18-.66l3.74,.17,.37-6.08-4.57-.18,.46,6.1Z"/>
    </g>
    <g>
      <path class="cls-4" d="M81.35,155.25l-.28-21.04h-5.39l-.09-5.32,16.33-.92-.18,6.24h-4.96l-.37,20.41-5.05,.63Z"/>
      <path class="cls-1" d="M81.12,155.52l-.28-21.07h-5.39l-.1-5.77,16.81-.95-.2,6.72h-4.96l-.37,20.39-5.51,.69Zm-5.21-21.54h5.39l.28,21.01,4.6-.57,.37-20.44h4.96l.17-5.76-15.85,.9,.08,4.86Z"/>
    </g>
    <g>
      <path class="cls-4" d="M88.83,154.92l7.73-25.55,3.08,.38,8.31,24.55-4.76,.95-1.2-4.1h-6.93l-1.06,4.95-5.17-1.19Zm9.24-16.19l-1.8,7.41,4.22,.18-2.42-7.59Z"/>
      <path class="cls-1" d="M94.18,156.38l-5.64-1.3,7.86-25.97,3.42,.42,8.44,24.94-5.23,1.04-1.21-4.14h-6.57l-1.06,5Zm-5.05-1.64l4.7,1.08,1.04-4.9h7.29l1.19,4.06,4.29-.86-8.17-24.16-2.74-.34-7.61,25.12Zm11.69-8.18l-4.83-.2,2.06-8.49,2.77,8.7Zm-4.25-.64l3.6,.15-2.06-6.48-1.54,6.33Z"/>
    </g>
    <g>
      <path class="cls-4" d="M112.85,126.89l6.33,14.5-.34-13.02,5.8-.32-.86,26.08h-4.07l-6.24-14.4-.22,12.82-4.2,.28-.98-25.01,4.79-.92Z"/>
      <path class="cls-1" d="M124,154.36h-4.45l-5.87-13.55-.2,11.96-4.66,.31-1-25.45,5.17-1,5.93,13.58-.31-12.06,6.28-.35-.88,26.55Zm-4.14-.47h3.69l.85-25.6-5.32,.3,.36,13.99-6.73-15.42-4.41,.85,.96,24.57,3.75-.25,.23-13.68,6.61,15.25Z"/>
    </g>
    <g>
      <path class="cls-4" d="M127.55,133.46l-.5-6.56,5.07,.2-.4,6.55-4.17-.19Zm.47,21.61l-.89-19.34,5.07-.59v18.75l-4.17,1.17Z"/>
      <path class="cls-1" d="M127.8,155.37l-.92-19.85,5.54-.64v19.19l-4.63,1.3Zm-.43-19.43l.87,18.83,3.72-1.05v-18.31l-4.59,.53Zm4.57-2.04l-4.61-.21-.53-7.03,5.57,.22-.42,7.01Zm-4.18-.66l3.74,.17,.37-6.08-4.57-.18,.46,6.1Z"/>
    </g>
    <g>
      <path class="cls-4" d="M135.22,153.74l-.7-23.73,13.38,.54-.31,4.48-8.07,.4v2.76l5.9,.37v4.55l-5.9,.19v5.01h8.03l-.13,4.57-12.2,.86Z"/>
      <path class="cls-1" d="M134.99,153.99l-.72-24.22,13.87,.56-.35,4.92-8.06,.4v2.32l5.9,.37v5l-5.9,.19v4.55h8.04l-.14,5.02-12.65,.89Zm-.24-23.74l.69,23.24,11.74-.83,.12-4.12h-8.02v-5.47l5.9-.19v-4.11l-5.9-.37v-3.2l8.09-.4,.28-4.04-12.89-.52Z"/>
    </g>
    <g>
      <path class="cls-8" d="M158.64,156.93l-.83-28.11,15.86,.64-.37,5.31-9.56,.48v3.27l6.99,.44v5.39l-6.99,.22v5.94h9.51l-.15,5.41-14.45,1.02Zm3.32-32.86l7.63-4.6,1.85,5.61-8.19,3.05-1.29-4.07Z"/>
      <path class="cls-1" d="M158.42,157.18l-.84-28.61,16.34,.66-.41,5.75-9.55,.47v2.83l6.99,.44v5.84l-6.99,.22v5.48h9.52l-.17,5.86-14.9,1.05Zm-.37-28.12l.82,27.62,14-.99,.14-4.96h-9.51v-6.39l6.99-.22v-4.95l-6.99-.44v-3.71l9.58-.48,.34-4.86-15.37-.62Zm5.05-.62l-1.42-4.48,8.04-4.84,2.01,6.1-8.63,3.22Zm-.86-4.27l1.16,3.66,7.75-2.89-1.69-5.12-7.22,4.35Z"/>
    </g>
    <g>
      <path class="cls-8" d="M180.68,129.28l3.47,18.4,3.78-19.34,6.24,1.1-7.91,25.51-4.78,.6-6.59-25.09,5.79-1.17Z"/>
      <path class="cls-1" d="M181.32,155.8l-6.71-25.53,6.26-1.27,.04,.23,3.25,17.21,3.59-18.37,6.73,1.18-8.03,25.9-5.13,.65Zm-6.13-25.17l6.48,24.66,4.42-.56,7.79-25.11-5.76-1.01-3.97,20.3-3.65-19.36-5.32,1.08Z"/>
    </g>
    <g>
      <path class="cls-8" d="M190.33,153.47l8.92-24.38,2.97,.54,6.71,24.3-4.68,.66-.94-4.05-6.73-.38-1.3,4.75-4.96-1.44Zm9.87-15.21l-2.16,7.1,4.09,.4-1.93-7.5Z"/>
      <path class="cls-1" d="M195.45,155.2l-5.42-1.57,.09-.23,8.99-24.56,3.3,.6,.04,.14,6.78,24.55-5.15,.73-.95-4.09-6.37-.36-1.31,4.8Zm-4.81-1.88l4.49,1.3,1.28-4.7,7.09,.4,.93,4.01,4.2-.59-6.6-23.9-2.63-.48-8.77,23.96Zm11.8-7.29l-4.7-.46,2.48-8.16,2.22,8.63Zm-4.09-.87l3.47,.34-1.64-6.38-1.83,6.03Z"/>
    </g>
    <g>
      <path class="cls-8" d="M215.71,144.06c-6.13-1.96-7.91-6.29-5.34-13,.33-.89,1.05-1.52,2.17-1.9,1.08-.37,2.55-.61,4.43-.7,2.54-.02,4.08,.33,4.61,1.05,1.13,1.61,1.71,3.24,1.73,4.91,.02,1.67-.24,3.13-.8,4.39l-4.11-.33c.8-1.49,.85-2.78,.16-3.9-.3-.51-.98-.74-2.04-.68-1.17,.06-1.9,.2-2.2,.42-.54,.26-.82,.62-.86,1.07-.2,1.81,.63,3,2.48,3.58,5.11,2.05,7.77,4.5,8,7.34,.2,3.4-.12,5.42-.98,6.06-1.54,1.27-3.76,2.1-6.65,2.51-2.98,.15-4.82-.92-5.51-3.19-.37-1.43-.5-3.51-.38-6.23l3.8-.36c.07,.86,.16,1.57,.27,2.14,.24,1.34,.97,2.07,2.19,2.2,1.6-.1,2.51-.81,2.74-2.14,.24-1.02-.99-2.1-3.71-3.24Z"/>
      <path class="cls-1" d="M215.8,155.12c-2.8,0-4.54-1.13-5.22-3.37-.38-1.45-.51-3.57-.39-6.31v-.2s4.24-.4,4.24-.4l.02,.23c.07,.84,.16,1.55,.26,2.12,.22,1.24,.87,1.89,1.98,2.01,1.45-.09,2.28-.73,2.49-1.95,.21-.89-1.02-1.91-3.56-2.98-2.94-.94-4.93-2.45-5.9-4.49-1.09-2.27-.94-5.23,.43-8.81,.35-.95,1.13-1.63,2.31-2.03,1.09-.38,2.6-.62,4.49-.71,2.65-.02,4.22,.36,4.81,1.14,1.16,1.64,1.76,3.34,1.78,5.05,.02,1.69-.25,3.2-.82,4.49l-.07,.15-4.63-.37,.17-.31c.76-1.42,.82-2.62,.17-3.66-.25-.43-.86-.62-1.83-.57-1.47,.07-1.93,.26-2.07,.37-.5,.25-.74,.54-.76,.9-.18,1.7,.57,2.79,2.31,3.34,5.19,2.08,7.93,4.62,8.16,7.54,.21,3.52-.14,5.57-1.07,6.27-1.56,1.28-3.84,2.14-6.76,2.55-.18,0-.37,.01-.54,.01Zm-5.15-9.45c-.1,2.59,.02,4.6,.38,5.96,.66,2.17,2.38,3.16,5.27,3.02,2.82-.39,5.02-1.22,6.52-2.46,.55-.41,1.14-1.75,.9-5.87-.22-2.73-2.86-5.14-7.85-7.14-1.94-.6-2.83-1.89-2.62-3.82,.04-.53,.37-.95,.99-1.25,.3-.23,1.04-.38,2.28-.44,1.14-.07,1.91,.2,2.25,.79,.68,1.1,.68,2.38,0,3.81l3.6,.29c.49-1.19,.73-2.58,.71-4.14-.02-1.61-.59-3.22-1.69-4.78-.33-.44-1.37-.95-4.42-.95-1.83,.09-3.3,.32-4.35,.69-1.06,.36-1.72,.93-2.03,1.76-1.32,3.46-1.47,6.3-.44,8.45,.92,1.92,2.82,3.35,5.64,4.25h.02c2.86,1.21,4.12,2.35,3.84,3.51-.25,1.43-1.24,2.22-2.95,2.32-1.37-.14-2.17-.94-2.43-2.39-.1-.53-.18-1.18-.25-1.93l-3.36,.32Z"/>
    </g>
    <g>
      <path class="cls-8" d="M226.32,133.46l-.5-6.56,5.07,.2-.4,6.55-4.17-.19Zm.47,21.61l-.89-19.34,5.07-.59v18.75l-4.17,1.17Z"/>
      <path class="cls-1" d="M226.57,155.37l-.92-19.85,5.54-.64v19.19l-4.63,1.3Zm-.43-19.43l.87,18.83,3.72-1.05v-18.31l-4.59,.53Zm4.58-2.04l-4.61-.21-.53-7.03,5.57,.22-.42,7.01Zm-4.18-.66l3.74,.17,.37-6.08-4.57-.18,.46,6.1Z"/>
    </g>
    <g>
      <path class="cls-8" d="M240.51,155.78c-2.28,.04-3.79-.42-4.53-1.38-.53-.66-1.16-3-1.89-7.02-.92-5.26-1.38-9.35-1.38-12.27-.04-3.16,.46-5.06,1.52-5.71,1.9-1.27,4.85-2.04,8.85-2.31,3.54,0,5.65,1.23,6.33,3.69,.35,1.53,.53,3.59,.53,6.19,0,6.44-1.03,11.89-3.08,16.36-.51,.88-1.31,1.51-2.41,1.91-.72,.21-2.03,.39-3.94,.53Zm2.3-6.11c.44-.23,.76-.6,.97-1.11,.81-2.63,1.22-5.83,1.22-9.61,0-1.5-.07-2.7-.2-3.61-.24-1.24-1.08-1.96-2.52-2.16-1.87-.18-3.25,.2-4.14,1.13-.59,.58-.5,3.87,.3,9.86,.47,2.95,.81,4.62,1.02,5,.29,.55,.9,.82,1.81,.81,.75-.09,1.27-.2,1.55-.31Z"/>
      <path class="cls-1" d="M240.23,156.02c-2.2,0-3.69-.49-4.44-1.47-.56-.69-1.19-3.02-1.94-7.12-.92-5.25-1.38-9.39-1.38-12.31-.04-3.27,.49-5.21,1.63-5.9,1.92-1.28,4.93-2.07,8.95-2.35h0c3.66,0,5.86,1.3,6.57,3.86,.36,1.55,.54,3.65,.54,6.25,0,6.44-1.04,11.98-3.1,16.46-.55,.94-1.4,1.61-2.54,2.03-.76,.22-2.06,.4-4,.55h-.01c-.09,0-.19,0-.28,0Zm2.84-28.68c-3.92,.27-6.86,1.03-8.72,2.27-.98,.6-1.45,2.45-1.41,5.51,0,2.89,.46,7.01,1.37,12.23,.89,4.93,1.49,6.48,1.84,6.91,.69,.9,2.17,1.33,4.34,1.29,1.88-.14,3.19-.32,3.89-.52,1.02-.37,1.79-.98,2.27-1.8,2.02-4.4,3.05-9.87,3.05-16.25,0-2.57-.18-4.63-.53-6.14-.65-2.36-2.65-3.51-6.1-3.51Zm-1.85,22.88c-1,0-1.66-.31-1.98-.93-.14-.26-.4-1.07-1.04-5.07-1.08-8.16-.65-9.65-.23-10.06,.94-.97,2.4-1.37,4.33-1.19,1.55,.21,2.46,1,2.72,2.34,.14,.93,.21,2.15,.21,3.66,0,3.79-.41,7.04-1.23,9.68-.24,.58-.6,.99-1.08,1.25h-.02c-.31,.13-.83,.24-1.61,.34-.02,0-.04,0-.06,0Zm.2-16.84c-1.37,0-2.42,.37-3.12,1.1-.31,.3-.66,1.95,.36,9.67,.58,3.62,.86,4.67,.99,4.92,.25,.46,.75,.69,1.55,.69,.02,0,.03,0,.05,0,.86-.11,1.27-.22,1.45-.29,.39-.21,.67-.53,.85-.99,.79-2.57,1.2-5.78,1.2-9.52,0-1.48-.07-2.68-.2-3.58-.22-1.13-.98-1.78-2.32-1.96-.29-.03-.56-.04-.82-.04Z"/>
    </g>
    <g>
      <path class="cls-8" d="M258.07,123.15l7.95,18.22-.42-16.36,7.29-.41-1.09,32.76h-5.12l-7.84-18.09-.28,16.11-5.28,.35-1.23-31.42,6.02-1.16Z"/>
      <path class="cls-1" d="M272.03,157.6h-5.49l-7.47-17.25-.26,15.25-5.74,.38v-.24s-1.25-31.62-1.25-31.62l6.4-1.23,7.55,17.3-.4-15.4,7.77-.43v.25s-1.1,32.99-1.1,32.99Zm-5.19-.47h4.74l1.07-32.29-6.81,.38,.45,17.33-8.36-19.14-5.64,1.09,1.22,30.98,4.83-.32,.29-16.97,8.21,18.94Z"/>
    </g>
    <g>
      <path class="cls-1" d="M31.84,149.1c-3.39,0-4.19-.67-4.33-.73l.38-.79s2.29,1.36,6.82,.33l.19,.85c-1.07,.24-2.11,.34-3.07,.34Z"/>
      <path class="cls-1" d="M31.84,149.33c-3.44,0-4.21-.39-4.32-.44l-.21-.1,.58-1.21,.21,.1s2.11,1.01,6.56,0l.23-.05,.3,1.31-.23,.05c-1.01,.23-2.06,.34-3.12,.34Zm-3.81-1.12c.68,.29,.99,.66,3.81,.66,.95,0,1.89-.1,2.79-.28l-.09-.4c-3.9,.81-5.45,.02-6.33-.35l-.18,.37Z"/>
    </g>
    <g>
      <path class="cls-1" d="M28.78,134.74l-.26-.84c.13-.04,.47-.55,6.55-.48v.87c-5.94-.07-6.26,.43-6.29,.44Z"/>
      <path class="cls-1" d="M28.57,134.83l-.4-1.28,.22-.07c.13-.04,.58-.36,6.68-.29h.23s-.02,1.34-.02,1.34h-.23c-5.89-.08-6.23,.22-6.26,.23l-.22,.07Zm-.12-.58l.12,.39c.8-.21,1.37-.63,6.26-.58v-.41c-5.02-.03-5.57,.39-6.38,.6Z"/>
    </g>
  </g>
  <g>
    <path class="cls-9" d="M40.15,96.92l-16.43-9.2,5.83-8.88,2.92,2.04-3.02,5.66,1.88,1.13,2.66-3.86,3.1,1.86-2.28,4.09,3.41,2.04,3.28-5.46,3.05,1.95-4.39,8.65Z"/>
    <path class="cls-9" d="M42.18,79.65c-4.15,2.78-7.63,1.77-10.47-3.02-.38-.63-.41-1.37-.11-2.23,.29-.83,.86-1.84,1.71-3.02,1.21-1.55,2.17-2.31,2.86-2.29,1.52,.09,2.79,.52,3.82,1.31,1.02,.79,1.78,1.66,2.28,2.6l-2.18,2.34c-.52-1.2-1.28-1.86-2.29-1.98-.46-.07-.92,.24-1.4,.91-.53,.74-.8,1.25-.81,1.53-.1,.45-.02,.8,.24,1.04,1,.99,2.13,1.06,3.36,.22,3.71-2.11,6.48-2.55,8.31-1.32,2.16,1.52,3.23,2.69,3.21,3.52,.03,1.55-.54,3.3-1.69,5.25-1.35,1.88-2.88,2.48-4.59,1.8-1.05-.46-2.37-1.39-3.96-2.77l1.61-2.48c.55,.37,1.03,.66,1.43,.87,.93,.5,1.73,.41,2.39-.27,.71-1.02,.72-1.92,.02-2.7-.5-.64-1.75-.41-3.75,.69Z"/>
    <path class="cls-9" d="M57.74,67.75c.63,2.52,.57,4.38-.16,5.58-.66,1.02-1.3,1.7-1.92,2.04-1.5,1.13-3.2,1.18-5.1,.15-4.17-2.54-7.3-4.95-9.37-7.23-1.26-1.44-1.55-3.04-.89-4.8,.63-1.66,1.51-2.94,2.64-3.85,1.54-1.17,3.05-1.16,4.52,.04,.68,.55,1.4,1.18,2.18,1.89l-1.89,2.81c-.37-.27-.74-.53-1.12-.77-.64-.38-1.18-.34-1.63,.12-.4,.33-.66,.76-.77,1.3-.15,.52,.11,1.15,.79,1.9,1.54,1.61,3.8,3.36,6.78,5.23,.93,.5,1.65,.24,2.15-.76,.33-.65,.35-1.87,.07-3.66l3.72,.04Z"/>
    <path class="cls-9" d="M59.89,69.73l-9.46-18.4,1.92-1.45,17.86,9.2-2.14,3.1-2.88-1.64-3.86,3.74,2.08,3.33-3.52,2.13Zm-3.58-14l2.99,5.1,2.44-2.18-5.44-2.92Z"/>
    <path class="cls-9" d="M71.34,59.31l-12.83-15.28,3.19-3.16,9.52,12.61,4.86-3.9,2.48,3.12-7.22,6.61Z"/>
    <path class="cls-9" d="M78.86,52.71l-5.9-19.83,2.15-1.07,15.86,12.34-2.67,2.65-2.53-2.14-4.48,2.96,1.43,3.65-3.85,1.44Zm-.93-14.42l2,5.57,2.81-1.69-4.8-3.88Z"/>
    <path class="cls-9" d="M92.02,44.53l-9.54-17.55,4.42-2.3c3.32-1.7,5.77-1.09,7.33,1.84,2.6,5.41,4.04,8.92,4.3,10.52,.36,1.95-1.82,4.45-6.52,7.5Zm-3.86-15.47l5.1,9.68,1.3-1.38c.56-.41-.28-2.95-2.52-7.62-.41-1.03-.89-1.54-1.45-1.53-.65-.06-1.46,.22-2.43,.85Z"/>
    <path class="cls-9" d="M102.16,38.69l-7.89-17.1,9.94-3.76,1.16,3.37-5.77,2.8,.86,2.02,4.42-1.56,1.41,3.32-4.25,1.97,1.56,3.66,5.86-2.5,1.33,3.37-8.63,4.42Z"/>
  </g>
  <g>
    <path class="cls-9" d="M182.69,34.22c-2.25,1.3-4.05,1.76-5.41,1.38-1.16-.35-1.99-.78-2.49-1.28-1.5-1.12-2.02-2.75-1.55-4.86,1.29-4.71,2.75-8.38,4.38-11,1.04-1.61,2.5-2.33,4.37-2.18,1.77,.15,3.25,.64,4.43,1.48,1.55,1.16,1.96,2.61,1.21,4.36-.34,.8-.75,1.67-1.22,2.62l-3.22-1.04c.16-.43,.31-.85,.44-1.29,.19-.72,0-1.23-.56-1.53-.42-.29-.91-.42-1.46-.38-.54,0-1.07,.42-1.61,1.28-1.13,1.92-2.18,4.58-3.16,7.96-.22,1.03,.22,1.65,1.33,1.85,.71,.13,1.89-.18,3.54-.95l.99,3.58Z"/>
    <path class="cls-9" d="M181.39,36.84l15.08-14.17,1.92,1.45-3.92,19.7-3.57-1.2,.78-3.22-4.65-2.68-2.62,2.92-3.01-2.8Zm12.47-7.29l-4.08,4.28,2.77,1.75,1.31-6.03Z"/>
    <path class="cls-9" d="M209.46,30.24l-2.63,11.98,5.72-8.33,3.79,2.44-12.41,15.97-2.56-1.85,2.64-11.88-5.97,7.94-2.76-1.74,10.76-16.14,3.42,1.6Z"/>
    <path class="cls-9" d="M222.19,40.68l-2.48,6.19,6.41-3.4,3.05,3.45-11.07,4.78-5.73,6.41-3.88-2.1,6.67-6.91,3.32-10.97,3.71,2.54Z"/>
    <path class="cls-9" d="M219.31,66.44c-1.14-1.2-1.64-2.23-1.49-3.1,.09-.61,1.03-2.09,2.83-4.46,2.36-3.08,4.33-5.33,5.89-6.77,1.67-1.57,2.93-2.24,3.8-1.99,1.61,.39,3.48,1.59,5.59,3.6,1.74,1.9,2.12,3.63,1.14,5.2-.65,.94-1.66,2.05-3.05,3.33-3.45,3.17-6.87,5.3-10.27,6.4-.72,.16-1.45,.04-2.2-.35-.46-.28-1.2-.9-2.22-1.85Zm4.4-1.78c.34,.12,.69,.11,1.07-.03,1.8-.86,3.72-2.21,5.74-4.07,.8-.74,1.41-1.37,1.83-1.88,.55-.74,.52-1.54-.08-2.41-.82-1.09-1.7-1.64-2.64-1.66-.6-.03-2.31,1.64-5.13,5.01-1.35,1.7-2.07,2.7-2.17,3-.15,.43,0,.88,.46,1.37,.42,.36,.73,.58,.93,.67Z"/>
    <path class="cls-9" d="M243.36,62.35l-6.03,10.68,7.91-6.28,2.9,3.44-16.56,11.61-1.9-2.52,6.01-10.57-8.04,5.84-2.13-2.47,15.04-12.26,2.8,2.54Z"/>
    <path class="cls-9" d="M232.78,83.77l12.19-8.74,2.52,3.05-12.19,7.92-2.52-2.22Zm13.85-9.43l4.06-3.09,2.01,3.38-4.42,2.51-1.64-2.8Z"/>
    <path class="cls-9" d="M255.52,80.33l-7.44,9.75,8.7-5.13,2.4,3.81-17.99,9.24-1.53-2.76,7.4-9.65-8.77,4.68-1.77-2.74,16.57-10.08,2.43,2.9Z"/>
    <path class="cls-9" d="M255.11,99.74l2.4,5.47-7.3,2.9c-2.38,.86-4.11,.29-5.2-1.71-.68-1.29-1.03-2.29-1.03-3.01-.28-1.89,.5-3.49,2.33-4.82,4.28-2.8,8.35-4.8,12.21-6,1.26-.35,2.23-.06,2.9,.88,1.66,2.16,2.62,3.96,2.88,5.4,.27,2.16-.47,3.67-2.25,4.53-.81,.4-1.72,.79-2.71,1.2l-1.69-3.07c.46-.24,.89-.49,1.31-.74,.83-.53,1.14-1.1,.95-1.71-.2-.98-.51-1.64-.93-1.98-.39-.36-1.08-.38-2.08-.07-2.18,.73-4.92,2.1-8.24,4.12-.88,.69-.93,1.61-.16,2.76,.45,.71,1.14,.87,2.08,.48l2.17-.85-1.2-2.35,3.54-1.41Z"/>
  </g>
  <path class="cls-1" d="M97.39,232.73s28.75,20.94,93.69-.18c64.94-21.12-47.2,33.54-47.2,33.54,0,0-43.83-20.94-46.49-33.36Z"/>
  <g>
    <path class="cls-9" d="M86.79,252.06c-3.7-3.35-3.56-6.98,.4-10.89,.52-.52,1.23-.73,2.14-.64,.88,.08,2,.39,3.35,.92,1.8,.8,2.77,1.55,2.92,2.22,.28,1.5,.17,2.84-.35,4.02-.52,1.18-1.18,2.13-1.97,2.84l-2.79-1.55c1.04-.79,1.49-1.69,1.36-2.7-.05-.46-.45-.84-1.22-1.13-.84-.33-1.4-.47-1.68-.41-.46,.01-.78,.17-.95,.48-.72,1.21-.52,2.32,.6,3.32,2.95,3.08,4.04,5.67,3.29,7.75-.95,2.47-1.83,3.79-2.64,3.96-1.49,.4-3.33,.28-5.5-.36-2.15-.86-3.11-2.19-2.86-4.02,.19-1.13,.77-2.63,1.73-4.52l2.79,.96c-.22,.63-.39,1.16-.5,1.6-.26,1.02,.02,1.77,.84,2.25,1.16,.45,2.03,.23,2.62-.63,.5-.64-.03-1.8-1.58-3.47Z"/>
    <path class="cls-9" d="M102.34,257.5l-4.2,.16-2.16,6.89-3.26-1.65,5.38-19.44,4.81,1.51c3.61,1.32,5.25,2.68,4.93,4.09-.96,3.32-1.92,5.63-2.9,6.95-.63,1.03-1.5,1.53-2.61,1.49Zm-1.34-8.9l-1.81,5.8,2-.02c.81,.04,1.55-.81,2.23-2.54,.42-.91,.41-1.55-.02-1.92-.44-.47-1.24-.91-2.41-1.32Z"/>
    <path class="cls-9" d="M105.35,266.22l3.61-18.49,10.26,2.76-1.03,3.41-6.32-1.1-.48,2.14,4.5,1.32-.8,3.52-4.6-.89-.88,3.88,6.21,1.4-.9,3.51-9.59-1.47Zm7.02-20.97l5.66-1.88,.38,3.94-5.8,.78-.24-2.85Z"/>
    <path class="cls-9" d="M117.8,269.44l2.32-19.82,4.48,.16-2.64,15.58,6.17,.86-.57,3.94-9.76-.72Z"/>
    <path class="cls-9" d="M130.38,270.54l.35-18.83,10.58,.94-.42,3.54h-6.41s-.11,2.2-.11,2.2l4.66,.52-.17,3.61-4.68-.08-.19,3.97,6.36,.31-.28,3.61-9.7,.21Zm3.28-21.87l5.25-2.83,1.05,3.81-5.58,1.78-.73-2.76Z"/>
    <path class="cls-9" d="M148.53,271.63c-1.65,.12-2.77-.15-3.34-.81-.41-.46-.97-2.13-1.66-5.01-.88-3.78-1.38-6.73-1.5-8.84-.16-2.29,.13-3.69,.87-4.2,1.32-1,3.43-1.68,6.32-2.04,2.57-.14,4.15,.66,4.74,2.42,.32,1.1,.53,2.59,.64,4.47,.26,4.67-.26,8.67-1.56,12-.33,.66-.89,1.15-1.67,1.48-.51,.18-1.46,.36-2.84,.55Zm1.42-4.53c.31-.18,.53-.47,.66-.84,.48-1.94,.65-4.28,.49-7.02-.06-1.09-.16-1.96-.3-2.61-.23-.89-.86-1.38-1.91-1.46-1.36-.05-2.35,.28-2.96,.99-.41,.45-.2,2.83,.62,7.14,.46,2.12,.78,3.31,.94,3.59,.23,.39,.68,.56,1.35,.52,.54-.1,.91-.2,1.11-.29Z"/>
    <path class="cls-9" d="M158.16,270.52l-3.69-19.61,4.33-1.19,2.12,15.66,6.15-1.02,.63,3.94-9.53,2.22Z"/>
    <path class="cls-9" d="M175.65,267.3c-1.59,.48-2.73,.45-3.44-.07-.5-.36-1.4-1.87-2.7-4.54-1.68-3.5-2.8-6.27-3.37-8.31-.65-2.2-.67-3.63-.06-4.29,1.08-1.26,2.99-2.38,5.73-3.36,2.48-.7,4.2-.25,5.15,1.34,.55,1,1.08,2.41,1.59,4.22,1.27,4.5,1.62,8.52,1.06,12.05-.19,.71-.62,1.31-1.31,1.81-.46,.29-1.34,.67-2.65,1.15Zm.41-4.73c.26-.25,.41-.57,.46-.97,.05-2-.29-4.32-1.04-6.96-.3-1.05-.58-1.88-.85-2.49-.41-.82-1.14-1.16-2.18-1.01-1.34,.24-2.23,.78-2.68,1.6-.3,.52,.41,2.8,2.15,6.84,.91,1.97,1.47,3.07,1.69,3.3,.31,.33,.79,.4,1.43,.21,.51-.21,.85-.39,1.02-.52Z"/>
    <path class="cls-9" d="M185.32,251.57l5.58-2.12,2.53,7.43c.74,2.42,.08,4.13-1.97,5.1-1.32,.62-2.34,.91-3.06,.88-1.9,.18-3.46-.67-4.7-2.57-2.58-4.42-4.37-8.58-5.38-12.5-.29-1.28,.05-2.23,1.02-2.85,2.24-1.55,4.08-2.42,5.54-2.6,2.17-.17,3.64,.66,4.41,2.47,.35,.83,.71,1.75,1.06,2.77l-3.15,1.53c-.22-.47-.44-.92-.68-1.35-.48-.85-1.04-1.2-1.66-1.04-.99,.15-1.66,.43-2.03,.83-.38,.37-.44,1.06-.18,2.07,.62,2.21,1.85,5.02,3.7,8.44,.65,.91,1.56,1.01,2.75,.3,.73-.42,.93-1.1,.58-2.05l-.74-2.21-2.41,1.08-1.23-3.6Z"/>
    <path class="cls-9" d="M190.37,244.52l-2.41-4.5,3.66-1.44,1.77,4.77-3.02,1.17Zm7.1,15.17l-6.69-13.43,3.41-2,5.87,13.3-2.59,2.14Z"/>
    <path class="cls-9" d="M202.3,256.45l-9.09-16.5,9.64-4.46,1.4,3.28-5.55,3.21,1,1.95,4.3-1.87,1.65,3.21-4.1,2.27,1.82,3.53,5.67-2.91,1.56,3.27-8.3,5.02Z"/>
  </g>
  <g>
    <path d="M58.58,252.82c.3-1.89,.8-3.75,1.25-5.61,.15-.62,.52-1.93,.54-1.99,.5-1.68,.99-3.36,1.48-5.04l1.16-3.73c.36-.98,.69-1.98,1.07-2.95,1.73-4.46,3.8-8.77,5.69-13.16,.07-.17,.29-.35,.16-.51-.58-.71-.47-1.71-1-2.42-.61-.81-.68-1.85-1.25-2.71-.32-.48-.61-.99-1.02-1.47,0,.89,.45,1.66,.31,2.7-1.27-1.68-.82-3.59-1.33-5.28-.16,.57-.25,1.13-.32,1.7-.13,1.01-.18,2.02-.15,3.03,.01,.41-.24,.48-.53,.48-.4,.01-.19-.28-.19-.45,.01-1.6,.08-3.21,.38-4.79,.02-.11,.04-.33,.01-.33-.56-.15-.64-.86-1.05-1.02-.73-.28-1.26-.9-2.03-1.11-.85-.23-.83-.27-.83,.58,0,.24,0,.47,0,.71-.01,.22-.17,.25-.35,.25-.2,0-.22-.13-.22-.28,0-.24,.03-.48-.02-.71-.08-.38,.05-.86-.5-1.14-.22,1.34-.12,2.63-.13,3.91,0,.33-.09,.43-.35,.45-.42,.03-.2-.27-.19-.44,.02-.3,.18-.71-.05-.88-.48-.36-.3-.81-.27-1.22,.04-.68,.16-1.35,.22-2.03,.03-.3,.13-.67-.36-.8-.1,.46-.2,.89-.3,1.32-.03,.11-.04,.26-.19,.24-.15-.02-.25-.14-.23-.3,.03-.21,.06-.42,.13-.62,.2-.63,.21-1.18-.23-1.76-.34-.45-.57-1.03-.52-1.65,.11-1.48,.2-2.96,.31-4.5-.29,.13-.57,.4-.79,.14-.16-.18,.08-.43,.15-.65,.06-.18,.14-.35,.19-.53,.04-.14,.08-.32-.05-.39-.2-.1-.28,.1-.35,.25-.19,.41-.37,.81-.55,1.22-.09,.19-.21,.33-.43,.24-.22-.09-.14-.27-.06-.42,.55-.98,.64-2.12,1.06-3.16,1.22-2.99,2.79-5.76,4.6-8.42,.93-1.36,.94-1.35,.03-2.68-.09-.14-.35-.26-.15-.47,.15-.15,.35-.14,.5,.03,.28,.3,.34,.08,.48-.14,.4-.63,.31-1.36,.43-2.05,.38-2.13,2.79-3.9,4.91-3.56,1.24,.2,2.39,.68,3.56,1.1,.29,.1,.51,.29,.58,.57,.26,.96,.96,1.51,1.76,2,.42,.26,.81,.57,1.2,.87,.51,.39,.67,1.03,.71,1.55,.03,.41,.08,.8,.23,1.18,.2,.52,.48,1.02,.15,1.6-.08,.15,0,.37,.17,.52,.28-.22,.57-.45,.95-.31,.46,.16,.46-.09,.44-.41-.04-.89-.43-1.76,.02-2.7-.25,.08-.24,.33-.5,.16,.57-.5,.34-1.34,.86-1.89,.95-1.01,2.17-1.48,3.5-1.52,.56-.01,1.16,.32,1.72,.45,1.22,.28,1.77,1.32,2.65,1.96,.07,.05,.04,.17-.06,.23,.34,.54-.34,.95-.16,1.45-.19,.15-.56-.38-.53,.11,.04,.95-.47,1.85-.15,2.84,.27,.83,.1,.94-.83,.75,0,.58-.47,1.01-.45,1.6,.02,.7-.38,.68-.89,.58-.36-.08-.64-.4-1.14-.31,.48,.41,.85,.94,1.34,1.09,1.23,.38,2.32,1.05,3.48,1.55,.36,.16,.7,.18,1.09,.07,.75-.2,1.51-.34,2.28-.46,1.74-.28,3.48-.56,5.18-1.03,.78-.21,1.37-.58,1.63-1.39,.2-.65,.67-1.13,1.12-1.61,.09-.1,.23-.28,.34-.21,.49,.33,1.06,.08,1.57,.25,.45,.15,.72,.51,.69,.97-.06,1.03,.2,2.17-1.23,2.64-.65,.21-.81,1-1.1,1.59-1.93,3.97-4.5,7.47-7.72,10.48-.48,.45-.91,.81-.75,1.58,.07,.36-.13,.78-.23,1.16-.32,1.16-.66,2.3-.97,3.46-.58,2.17-1.15,4.34-2.86,5.95-.03,.03-.06,.07-.09,.11-.23,.29-.17,.55,.07,.81,.72,.76,1.85,.83,2.64,.18,.31-.25,.66-.52,1.02-.6,.13-.03,.22-.07,.29-.12,1.04-.99,2.43,1.33,.45,3.16s-3.47,2.11-3.47,2.11l-2.65,.31c-.5-.09-.72,.13-.99,.2-.9,.24-1.7-.07-2.41-.51-.46-.29-.18-.95-.11-1.38,.21-1.14-.11-2.4,.77-3.4,.14-.16,.19-.43,.21-.66,.13-1.36,.62-2.65,.87-3.98,.23-1.23,1.15-2.24,1.08-3.57-.13,.41-1.01,.89-1.39,1.12-1.55,.97-3.21,1.68-4.97,2.16-.64,.17-.88,.54-.84,1.18,.2,2.98,.49,5.95,.94,8.9,.26,1.65,.06,3.22-1.43,4.31-.27,.2-.1,.4-.1,.62,0,.41,.06,.95-.48,1-.26,.02-.33,.14-.48,.25-.61,.42-.55,1.11-.7,1.71-.42,1.68-.33,3.49-1.29,5.02-.42,.67-.1,1.38-.22,2.06-.02,.09,.1,.28,.17,.28,.48,.03,.71,.42,1.06,.64,.09,.06,.18,.1,.27,.13,0,0,1.58,2.31,2.53,2.79s2.45,1.02,1.23,2.31-3.82,1.58-9.16-.27c-.48-.78-.69-1.38-.59-2.1,.14-1.03-.3-2.14,.45-3.09,.08-.1,.01-.32,0-.48-.03-.21-.08-.42,.01-.62,.32-.7,.39-1.45,.42-2.2,.09-2.59,.4-5.14,.91-7.68,.05-.25,.1-.51,.27-.72,.28-.33,.49-.64,.58-1.12,.08-.41,.35-.88,.58-1.3,.31-.57,.6-1.17,.46-1.81-.16-.75-.45-1.47-.85-2.09-5.17,10.23-8.7,21.02-11.08,32.23m38.25-59.67c-.5,.28-.93,.5-1.34,.76-2.49,1.6-5.05,3.01-8.02,3.52-.44,.08-.87,.17-1.32,.05-1.54-.42-3.08-.82-4.62-1.24-.27-.08-.51-.13-.7,.11-.36,.45-.73,.25-1.12,.04-.77-.42-.76-.42-1.01,.46-.56,1.97-1.24,3.89-2.45,5.6,.54,.28,1.18,.36,1.65,.78,.36,.32,.75,.32,1.18,.25,1.97-.35,3.96-.6,5.96-.59,1.38,0,2.67,.36,3.29,1.83,3.13-2.47,7.62-8.53,8.52-11.56Zm-40.18,4.28c.36-.64,.7-1.23,1.01-1.83,.13-.25,.27-.41,.58-.43,.4-.03,1.07-.8,1.04-1.2-.14-1.72,.41-3.23,1.3-4.66,.46-.74,.85-1.53,1.28-2.3-.85,.91-1.49,1.94-2.13,2.97-1.27,2.05-2.36,4.18-3.2,6.45-.12,.34-.17,.63,.13,1Z"/>
    <path d="M99.6,190.88l-1.49-.65c.06-.15,6.47-14.82,9.64-23.49l1.53,.56c-3.19,8.72-9.61,23.44-9.68,23.58Z"/>
    <path d="M59.5,252.5l-1.58-.36c5.36-23.96,11.83-33.21,12.11-33.59l1.32,.94c-.06,.09-6.57,9.42-11.85,33Z"/>
    <path d="M83.47,212.04l-.51-2.03,.25,1.02-.27-1.01c.06-.02,6.41-1.97,13.83-18.4l1.91,.86c-7.93,17.57-14.92,19.5-15.22,19.57Z"/>
    <path class="cls-1" d="M85.05,183.44l14.42-9s3.62,2.57,1.96,7.85c-10.25,1.52-16.24,2.5-16.24,2.5l-.15-1.36Z"/>
  </g>
</svg>