<?xml version="1.0" encoding="UTF-8"?>
<svg id="logoViaCorda" xmlns="http://www.w3.org/2000/svg" viewBox="0 0 139.29 140.76">
  <defs>
    <style>
      .cls-1 {
        fill: #d8e7f1;
      }

      .cls-1, .cls-2, .cls-3, .cls-4, .cls-5, .cls-6, .cls-7 {
        stroke-width: 0px;
      }

      .cls-8 {
        opacity: .9;
      }

      .cls-2 {
        fill: #7aaed0;
      }

      .cls-3, .cls-9 {
        fill: #0264a5;
      }

      .cls-4 {
        fill: #f2f7fa;
      }

      .cls-9 {
        font-family: Heaters, Heaters;
        font-size: 23.41px;
      }

      .cls-5 {
        fill: #93bdd9;
      }

      .cls-6 {
        fill: #a9cae0;
      }

      .cls-7 {
        fill: #c0d9e9;
      }
    </style>
  </defs>
  <text id="Texte" class="cls-9" transform="translate(33.48 110.46) rotate(38.16) scale(1.02 1)"><tspan x="0" y="0">V</tspan></text>
  <text class="cls-9" transform="translate(42.53 116.93) rotate(28.9) scale(.71 .7)"><tspan x="0" y="0">I</tspan></text>
  <text class="cls-9" transform="translate(46.44 119.05) rotate(22.71) scale(.71 .7)"><tspan x="0" y="0">A</tspan></text>
  <text class="cls-9" transform="translate(54.21 122.06) rotate(13.36) scale(1.02 1)"><tspan x="0" y="0"> </tspan></text>
  <text class="cls-9" transform="translate(64.32 124.11) rotate(1.27) scale(1.02 1)"><tspan x="0" y="0">C</tspan></text>
  <text class="cls-9" transform="translate(76.68 123.84) rotate(-10.58) scale(.71 .7)"><tspan x="0" y="0">O</tspan></text>
  <text class="cls-9" transform="translate(84.91 122.1) rotate(-19.58) scale(.71 .7)"><tspan x="0" y="0">R</tspan></text>
  <text class="cls-9" transform="translate(94.1 118.44) rotate(-30.33) scale(.71 .7)"><tspan x="0" y="0">D</tspan></text>
  <text class="cls-9" transform="translate(101.61 113.77) rotate(-39.19) scale(.71 .7)"><tspan x="0" y="0">A</tspan></text>
  <g id="Contour">
    <g class="cls-8">
      <g class="cls-8">
        <path class="cls-1" d="M75.1,13.8c-.67.15-1.75,0-2.65-.05l-2.48-.25c-.83-.04-1.66-.02-2.49-.03-1.66.01-3.35-.12-5.01.1-1.11.05-2.33.17-3.5.36-1.17.19-2.23.64-3.1,1.03-.71.01-1.34.02-2.05.03-.33.09-.67.17-1,.27l-.97.36c-.64.24-1.29.48-1.92.72-.64.23-1.27.46-1.9.69-.63.22-1.21.54-1.82.78-.92.37-1.9.76-2.82,1.12-.3.07-.59.15-.87.24-.27.11-.53.22-.78.34-.51.24-.98.48-1.42.71-.89.45-1.65.84-2.32.95-.73.32-1.07.87-1.61,1.36-1.01.53-2,1.16-2.86,1.79-.22.16-.43.31-.63.47-.18.17-.36.34-.54.51-.34.33-.65.64-.91.92-.74.56-1.43,1.07-2.17,1.66.02.02.05.07.09.11-.78.61-1.41,1.38-2.11,2.07l-2.05,2.12c-1.29,1.48-2.47,3.05-3.71,4.6-1.47,1.77-2.21,2.6-2.38,3.37-.24.37-.51.8-.75,1.16-.48.81-.88,1.67-1.33,2.51-.66.72-1.28,1.39-1.94,2.11.06-.89.1-1.8.18-2.71l1.37-2.59c.24-.38.53-.82.78-1.19.42-.71.88-1.49,1.29-2.2.42-.58.79-1.18,1.25-1.72l1.38-1.62c-.14-.12-.3-.26-.44-.37.58-.79,1.17-1.58,1.75-2.38l.52.5c.27-.15.58-.36.91-.56.44-.19.94-.42,1.37-.61.77-.78,1.48-1.52,2.2-2.25.38-.33.74-.59,1.17-.87.23-.42.5-.9.73-1.31,1.23-.81,1.47-1.23,1.27-1.25.07-.53-.77-.05-1.05-.18.33-.56.67-1.12,1-1.68.5-.33,1.08-.56,1.63-.82,1.07-.68,1.19-1.48,2.1-2.17.47-.23.95-.47,1.43-.71.5-.2,1.01-.4,1.53-.61.57-.22,1.12-.42,1.69-.61.85-.28.8-.74,1.48-1.07.98-.5,2.03-.85,3.04-1.28,1.02-.4,2.03-.83,3.05-1.19l3.15-.92c1.05-.27,2.07-.66,3.15-.81,1.84-.16,2.63-.28,3.19-.51,1.64-.38,3.33-.45,5-.59.83-.07,1.67-.13,2.51-.2.84.01,1.69.02,2.54.04.86.08,1.83.1,2.83.1.5-.01,1,.03,1.5.08.5.05.99.1,1.48.16.29.41.62.52.96.64-.24.13-.48.25-.79.38-.38.14.73.27.26.48.88.17,1.75.33,2.57.49Z"/>
        <path class="cls-4" d="M29.59,26.03c-.23.41-.5.9-.73,1.31-.43.29-.79.55-1.17.87-.72.73-1.43,1.46-2.2,2.25-.43.19-.94.42-1.37.61-.32.19-.64.4-.91.56l-.52-.5c.47-.48,1.08-.95,1.56-1.42.99-.92.89-1.36,1.35-1.74.24-.19.43-.31.61-.44l.76-1.01.82-.95c.52-.19.98-.35,1.49-.54.17-.14.35-.29.52-.43.28.13,1.12-.35,1.05.18.19.02-.04.44-1.27,1.25Z"/>
        <path class="cls-1" d="M21.63,39.02c.09,1.12.06,1.34.01,1.65-.49.51-.9,1.09-1.28,1.69-.37.61-.62,1.3-.92,1.95-.56,1.32-1.23,2.54-2.15,3.53-.24,1.2-.5,2.46-.76,3.73-.44,1.32-1.4,2.61-1.05,3.83-.33.85-.67,1.7-1,2.54-.22,1.31-.36,2.65-.52,3.96-.21.89-.48,1.77-.53,2.68-.04.56-.07,1.05-.11,1.68.17.44.37.89.51,1.74.44-1.63.48-2.31.53-3,.1-.05.21-.18.31-.23l.78.11c.05.76.1,1.51.18,2.27-.01.87-.05,1.76.02,2.63.07.81.15,1.69.22,2.55,0,.2.01.41.02.67-.11.54-.26,1.01-.41,1.62.45.8.14,1.95-.02,2.58,0,.2-.04.41-.04.68.1,1.02.11,2.2.34,3.27-.67-.73-.56-1.94-.83-3.22-.46.04-.62.05-.79.06-.07-.49-.12-.9-.23-1.66-.18-.34-.36-.68-.54-1.01-.15-.34-.3-.67-.44-.99-.54-.28-1.07-.49-1.61-.71-.16,0-.3,0-.46,0-.66-1.1-.82-4.15-.13-4.53.05-.29.13-.5.21-.72.29-.42.56-.9.88-1.3-.11-.81-.22-1.69-.33-2.51-.22.26-.46.44-.67.63-.25-.18-.51-.3-.76-.48-.46-.29-.61-2.76-1.36-.9-.13-.32-.3-.59-.42-.85.27-.81.52-1.69.76-2.49.21-1.99-.87-1.31-1.32-2.55-.11.62-.2,1.16-.33,1.85-.32.66-.67,1.39-.99,2.04-.06.39-.13.78-.19,1.17l-.05.71c.17,2.1,0,3.35.34,4.24-.2.77-.42,1.46-.53,2.24.47,2.22-.69,3.63.23,5.69.03,0,.1,0,.16,0,.3.86.64,1.7,1,2.62.09.62.17,1.16.32,2.17.32.75.64,1.5,1.03,2.15,0,1.81,1.49,4.83.94,5.91l-1.24.29c-.15-.37-.24-.76-.33-1.07-1.72-.87-1.62-4.11-2.51-4.71-.33-.85-.18-1.78.27-1.98-.17-1.52-.34-3.04-.51-4.55-.36-.55-.63-1.03-.93-1.59-.05-1.62-.2-3.35-.18-4.92-.02-.78.14-1.52.32-2.19.19-.66.44-1.24.79-1.7.08-.79-.01-1.78.46-2.26-.23-.44-.47-.8-.7-1.25.13-.79-.25-2.7.74-3.38.06-.32.1-.55.14-.79-.07-1.18.02-1.99.25-2.76.54-.6,1.14-1.66,1.64-1.83.54.59-.25,1.83.05,2.74.52-.58,1.1-1.22,1.67-1.84,1.17-.43,1.43-1.69,1.79-2.84.24-.4.55-.84.88-1.19.44-.87.4-1.55.79-2.44.4-.14.8-.37,1.23-.58-.73,2.27.22,2.52-.03,3.43-.27.6-.47,1.2-.66,1.8-.19.6-.38,1.21-.58,1.83-.25.91-.49,1.75-.74,2.67-.17,1.68-.27,3.3-.39,4.96.69-2.52,1.08-3.81.99-4.79.25-.91.48-1.74.73-2.64.17-.62.34-1.23.51-1.84.16-.61.33-1.22.59-1.81.23-.6.49-1.27.75-1.94.47-.64.94-1.29,1.41-1.94.19-.78.55-1.56.77-2.33.56-1.03,1.13-2.08,1.7-3.13.66-1,1.33-2,2-3.01.01-.08.04-.23.03-.33.1.07.18.13.25.18Z"/>
        <path class="cls-4" d="M7.26,81.91c.64,1.67.95,2.64,1.19,3.64-.1.41-.07,1.13-.33,1.19-1.03-2.15-1.43-3.4-1.45-4.35.26-.44.43-.45.59-.47Z"/>
        <path class="cls-1" d="M28.64,108.36l1.07,1.29,1.18,1.18c.52.92,1.71,1.82,2.63,2.61,1.05.75,2.04,1.46,3.09,2.21.52.41,1.02.86,1.57,1.23l1.66,1.1c.76.5,1.52.99,2.29,1.5.64.44,1.35.74,2.03,1.11.81.42,1.63.84,2.44,1.26.38.18.8.44,1.21.58.34.2.74.44,1.08.65l3.32,1.06c.68.25,1.35.31,2.03.5,1.46.34,2.89.75,4.29,1.02.61.37,1.57.45,2.67.54.55.05,1.14.09,1.74.17.3.04.61.09.92.15.31.04.63.08.94.14.9-.05,1.73-.09,2.56-.13.86.11,1.75.22,2.56.28.67-.09,1.18-.16,1.78-.26.61,0,1.08,0,1.63-.01.87-.1,1.49-.01,1.51.2.71-.14,1.25-.35,1.89-.59,1.25-.22,2.51-.45,3.69-.66.13,0,.25,0,.31,0,1.33-.27,2.63-.74,3.94-1.11l1.96-.59c.63-.26,1.26-.51,1.89-.77.36-.21.75-.49,1.09-.64.19-.07.39-.15.58-.22.5-.16,1-.32,1.5-.48.62-.27,1.07-.55,1.51-.79,1.37-.66,2.11-1.07,2.66-1.41.27-.17.51-.32.76-.47.23-.18.48-.36.79-.57.6-.39,1.19-.78,1.72-1.13.62-.34,1.53-.83,2.39-1.48.85-.67,1.73-1.38,2.45-1.95.13-.06.28-.12.41-.17l1.05-.83.97-.92,1.16-1.05c.35-.35.69-.7,1.23-1.24.01-.03.02-.06.04-.1.43-.4.79-.85,1.16-1.3.17-.19.39-.44.61-.68.28-.35.62-.76.91-1.13.41-.48.81-.95,1.21-1.42.37-.49.71-1.01,1.08-1.52.5-.76,1.15-1.67,1.79-2.57.63-.91,1.12-1.89,1.56-2.65.42-.71.79-1.3,1.17-2,.39-.64.68-1.41,1.01-2.08.5-1.09.91-1.97,1.3-2.82.37-.85.61-1.7.97-2.62.25-.72.39-1.14.58-1.67.46-1.14.67-2.28.98-3.46.16-.65.41-1.66.65-2.64.23-1.06.33-2.15.51-3.22.04-.25.06-.43.09-.62,0,.04,0,.03,0,0-.09.62-.18,1.23-.26,1.85-.07.51-.13.97-.21,1.49-.17.82-.41,1.71-.62,2.6-.4,1.69-.45,1.9-.65,2.75-.03.13-.08.26-.1.33-.34.99-.66,1.92-.97,2.85l-.53,1.55c-.2.71-.56,1.35-.81,1.96-.48,1.08-1.07,2.36-1.52,3.44-.28.51-.55,1.01-.83,1.53-.36.62-.72,1.25-1.11,1.93-.32.57-.54,1.02-.77,1.39-.24.36-.45.67-.67,1.01-.46.7-.91,1.38-1.39,2.11-.39.54-.68,1.04-1.04,1.49-.36.45-.73.9-1.16,1.4-.31.36-.57.66-.87,1.01-.21.3-.45.62-.69.96-.42.55-.87.98-1.37,1.47-.64.64-1.23,1.23-1.87,1.86-1.09,1.2-2.34,2.13-3.52,3.13-.55.5-1.18,1.1-1.92,1.68-.77.53-1.59,1.09-2.42,1.66-.84.54-1.64,1.18-2.49,1.62-.83.47-1.61.91-2.28,1.33l-2.04,1.17c-.71.32-1.43.65-2.14.97-1.45.62-2.86,1.4-4.41,1.86-2.08.7-4.25,1.53-6.5,1.96-1.12.26-2.23.52-3.32.78-1.1.17-2.19.3-3.25.45-.36.04-.72.07-1.01.1-.06-.12-.14-.23-.12-.38-.16-.08-.61-.01-1.04.03-.39.18-.91.36-.96.53-2.15.26-3.64.17-4.86.32-.33,0-.68,0-1.03-.01-.35-.04-.7-.07-1.03-.11.23-.31.44-.6.67-.92.14-.08.34-.14.48-.22,1.16,0,2.42.02,3.51.02,1.04-.04,2.05.02,3.06-.12,1-.12,1.99-.24,2.98-.35.43-.04.93-.08,1.36-.11.38-.02.78-.02,1.18-.07.4-.06.8-.13,1.18-.19,1.38-.33,2.75-.65,4.11-.97,1.04-.25,1.99-.56,3.01-.86.97-.36,1.99-.69,3.06-1.24-.68.23-1.48.34-2.18.5-.76.24-1.52.48-2.27.71-.49.16-.91.3-1.4.46-.21.04-.42.08-.62.11l-1.04.19c-1.21.14-2.06.28-2.76.41-.7.12-1.25.28-1.87.27-.07,0-.21.01-.35.02-.88.11-1.82.23-2.78.35-.76.01-1.51.05-2.36.05-1.05.04-2.09.08-3.21.12-.07,0-.21,0-.36-.01-.46-.18-.84-.37-1.36-.58-.23.22-.53.45-.76.68,0,.02-.03.05-.06.09-.5-.07-.93-.12-1.42-.19-4.52-.97-6.81-.56-10.42-1.76-1.19-.19-1.84-.47-2.49-.56-.22-.23-.46-.47-.68-.71-.55,0-1.1-.02-1.73-.05-.87-.35-1.6-.81-2.42-1.25-.29.07-.51.18-.81.25-.9-.38-1.74-.73-2.62-1.13-.11-.35-.21-.68-.32-1.04.02-.02.06-.05.11-.08.49.32,1.03.55,1.57.79l1.6.74c.2-.17.4-.34.58-.5-1.74-.7-1.94-1.92-3.35-1.76-1.18-.96-1.64-.86-2.1-1.18-.63-.36-1.21-.7-1.84-1.06-1.51-.68-1.32.47-3.1-.75-.34-.27-.69-.54-1.1-.85.1-.06.23-.13.35-.21.48.03.87.03,1.28.01-.7-.92-.74-1.42-2.05-2.51-.86-.7-1.65-1.35-2.44-1.99-.31-.22-1.15-.33-1.6-1.01-.73-.79-1.35-1.57-2.04-2.39,0-.43-.01-.87-.02-1.37.61.47,1.18.89,1.82,1.34Z"/>
        <path class="cls-4" d="M69.57,129.02c.05-.17.57-.34.96-.53.43-.04.88-.11,1.04-.03-.02.15.06.25.12.38-.73.06-1.46.16-2.12.18Z"/>
        <path class="cls-7" d="M124.18,60.69c-.08-.47-.15-.87-.21-1.28-.15-1.04-.3-1.51-.37-1.74-.06-.23-.06-.21-.06-.22-.19-.66-.35-1.26-.54-1.93-.2-.71-.42-1.5-.62-2.22-.94-2.48-1.08-2.85-1.76-4.53-.27-.73-.66-1.37-1.01-2.09-.36-.71-.74-1.46-1.2-2.28-.45-.94-.93-1.63-1.32-2.24-.39-.61-.72-1.12-1.06-1.6-.19-.28-.34-.51-.53-.79-.29-.45-.59-.9-.95-1.31-.52-.58-.7-.79-1.32-1.52-.16-.24-.33-.5-.49-.73-.35-.42-.69-.83-1.03-1.25-1.06-1.12-1.41-1.49-1.77-1.88-.59-.62-1.14-1.2-1.74-1.83-.74-.6-1.66-1.34-2.54-2.05-.88-.71-1.67-1.42-2.24-1.77-.23-.22-.87-.61-1.3-.91-.76-.31-1.05-.79-1.86-1.28-1.27-.84-2.73-1.59-4.18-2.42-.71-.44-1.51-.74-2.29-1.06-.78-.32-1.57-.63-2.35-.93-.49-.2-.96-.42-1.48-.55-.91-.46-2.14-.83-3.42-1.18-.32-.09-.64-.18-.96-.27-.33-.06-.66-.12-.99-.18-.65-.13-1.29-.27-1.87-.44-.73-.14-1.49-.3-2.27-.48-.8-.1-1.62-.21-2.47-.32-.85-.1-1.71-.2-2.58-.31-.88-.05-1.77,0-2.67.05-1.34-.14-3.08-.4-4.65.01-.71.07-1.43.14-2.15.21-.72.08-1.45.1-2.18.28-3.98.22-8.11,1.63-11.08,2.6-1.6.6-3.29,1.13-4.85,2.01-.8.4-1.6.81-2.4,1.21-.81.39-1.53.95-2.3,1.41-.76.48-1.51.96-2.27,1.44-.72.52-1.4,1.09-2.1,1.61-.7.53-1.39,1.04-2.07,1.56-.63.57-1.26,1.12-1.88,1.65-.4.02-.81.64-1.22.94.11.83-.72.45-1.31,1.35-.48.57-1,1.15-1.54,1.73-.53.59-1.12,1.14-1.56,1.8-.93,1.27-1.8,2.5-2.29,3.63-.1.17-.2.33-.3.49-.36.36-.7.75-1.05,1.14-.44.86-1.2,1.68-1.46,2.74-.28.57-.55,1.15-.81,1.68-.67,1.16-1.1,1.6-1.1,2.25-.78,1.72-1.36,3.26-1.94,4.65-.5,1.42-.76,2.78-1,4.12-.05.18-.1.37-.15.56-.19.62-.29,1.18-.38,1.82-.08,1.63-.57,2.65-.93,3.54-.37.88-.43,1.64.11,2.59-.06.84-.11,1.61-.17,2.45-.21.88-.22,1.68-.27,2.43-.04.75-.07,1.46-.08,2.15,0,.69-.07,1.37,0,2.05.06.68.12,1.38.18,2.13l.49,2.62c.23.86.5,1.71.74,2.56.12,1.7.22,2.43.47,3.11-.18.18-.32.35-.49.46.09.74.19,1.54.28,2.28.49.34.75,1.35,1.11,2.35.4.98.81,1.99,1.3,2.38.76,1.12-.23,1.37.82,2.37.34.39.86,1.06,1.18.99.12.23.21.41.3.59.36.31.79.67,1.15.97.77,1.54,1.23,1.64,1.81,2.32.16.48.29.97.43,1.47.84.18,1.19,1.43,1.76,1.68.53.25,1.24,1.46,1.73,2.23.65.83,1.27,1.69,2.02,2.42.27.29.59.62.87.91.74.04,1.28.83,1.57,1.25.37.46.78.86,1.2,1.24.42.39.84.78,1.28,1.18.77.56,1.11.57,1.44.89.31.42.65.8,1.03,1.14.36.28.78.29,1.42.84.49.34,1.04.73,1.59,1.11.35.2.76.48,1.16.62.55.27,1.16.58,1.77.88l.52.29c.9-.06,1.95.91,2.65.9.11.15.24.28.37.41.62.27,1.16.51,1.78.77l1.4.73c.26.08.52.17.79.27.27.08.55.15.83.23.55.17,1.12.35,1.71.53.58.18,1.18.36,1.77.55l.91.25c.31.05.62.09.94.13.07-.09.12-.16.18-.25.29.02.64.07.98.1.87.16,1.75.3,2.56.43.22.12.38.21.54.3.55.07,1.1.07,1.65.1.03-.05.07-.1.11-.17.14.01.2.02.33.03,1.28.1,2.57.2,3.85.3l2.44.28c.09-.03.23-.05.39-.08.92-.08,1.78-.16,2.69-.25.38-.11,1.75-.33,1.76-.47.5,0,1,.02,1.49.03.96-.03,1.42-.3,1.72-.39,1.7-.23,3.31-.63,5.02-.96l.59-.14c.51-.34,1.42-.62,1.92-.73.45-.15.83-.28,1.21-.41.56-.4,1.55-.65,1.98-.88,1.45-.55,2.89-1.16,4.33-1.76.45-.22.82-.41,1.17-.65,1.12-.8,1.59-1.06,2.04-1.28.56-.33,1.12-.67,1.68-1.01.58-.33,1.08-.77,1.65-1.17.35-.4,1.15-.94,1.57-1.21.71-.52,1.45-1.01,2.08-1.63.38-.47,1.12-1.08,1.51-1.41.55-.48,1.1-.96,1.65-1.44,1.72-1.9,3.83-4.03,4.99-5.8.55-.84,1.42-1.9,1.98-2.71.52-.95,1.45-2.4,1.91-3.19.78-1.17,1.27-2.4,1.87-3.62.59-1.22,1.24-2.46,1.72-3.93.25-.72.98-2.66.88-2.44.15-.41.3-.78.42-1.15.1-.37.19-.73.28-1.07.18-.68.34-1.32.5-1.96.16-.64.33-1.27.51-1.96.15-.69.24-1.45.38-2.3.21-1.39.29-1.92.52-3.4-.03.29.02-.14.02-.37.09-1.78.18-3.56.27-5.26v.09c-.01.11-.02.23-.02.34-.02.43-.03.62-.06,1.14-.02.45-.04.88-.06,1.3,0-.02,0,.03,0,0-.02.44-.04.94-.07,1.38l-.06,1.2c-.02.4-.11.8-.16,1.19.02-.16.05-.31.06-.43l-.03.15c.03-.18.05-.37.08-.52.05-.27.03-.48.05-.68.03-.61.06-1.28.1-1.96-.02.39-.04.73-.06,1.12,0,.14-.01.28-.02.42-.01.25-.03.48-.04.72-.06.65-.17,1.22-.27,1.95-.01.08-.03.23-.05.31-.16,1.02-.3,1.98-.45,3-.37,1.79-.32,1.35-.46,1.99-.07.26-.12.46-.17.66-.08.3-.15.59-.22.82-.13.51-.25,1-.38,1.49-.06.25-.13.49-.19.74-.09.24-.17.49-.26.73-.28.75-.57,1.56-.87,2.37-.15.44-.34.95-.49,1.39-.06.16-.13.32-.21.54-.17.37-.38.8-.55,1.16-.23.48-.46.95-.7,1.43-.74,1.49-.48,1.06-.94,2.04-.41.78-.87,1.46-1.31,2.22-.38.62-.8,1.3-1.19,1.93-.43.8-.99,1.44-1.52,2.19-.16.25-.32.5-.49.78-.06.08-.13.19-.22.32-.39.54-.81,1.14-1.18,1.67-.62.73-1.23,1.45-1.85,2.17-.45.49-.67.66-1.29,1.37-.33.28-.89.9-1.36,1.33-.41.38-.82.77-1.23,1.15-.75.62-1.39,1.25-2.19,1.81-.03.07-.06.14-.09.2-.51.41-1.07.85-1.57,1.25-.19.1-.33.14-.46.2-.61.45-1.21.94-1.89,1.42-.68.37-1.41.76-2.15,1.15-.36.23-.78.49-1.13.72l-.99.82c-.33.14-.68.24-1.09.4-.51.27-1.02.53-1.52.8-.41.38-1.3.75-1.85.97-.73.39-1.61.63-2.45.98-.36.34-2.07.75-2.85,1.17-1.83.61-3.39.86-4.84,1.34-.87.27-1.76.34-2.63.5-.88.14-1.75.28-2.65.42-.54.07-1.08.16-1.64.16-.73.1-.1.29-.9.39-.27.01-.62.02-.97.04-1.24.39-2.76.46-3.11.35.06-.42-.37-.4-.78-.44-.68.05-.32.27-.25.39-.71.09-1.48.18-2.2.27-.55-.03-1.11-.07-1.66-.1-.23-.12-.54-.19-.9-.23-.36-.06-.78-.12-1.22-.17-.89-.1-1.89-.18-2.75-.42-.51-.07-1.05-.14-1.59-.21-.54-.09-1.08-.23-1.61-.32-1.05-.2-2.05-.32-2.82-.26-.73-.22-1.43-.46-2.19-.81.07-.07.12-.12.17-.17-1.63-.82-1.42-.3-1.98-.55-.26-.1-.46-.18-.65-.26-.44-.46-1.1-.9-1.67-1.2-.55-.34-1.04-.52-1.19-.34-1.52-.99-1.44-.46-1.97-.76-.69-.35-1.43-.64-2.1-1.03-1.11-1.3-.9-1.54-.76-1.81-.57-.54-1.72-1.52-2.81-1.76-.4-.11-.76-.28-1.12-.42-.33-.41-.58-.79-.93-1.26-.59-.46-1.49-1.04-1.92-.94l-.52-.59-.47-.65c-.55-.51-1.17-1.08-1.72-1.6,0-.44-1.21-1.12-.63-1.42-.54-.44-.96-.9-1.4-1.42-.69-.22-1.44-.67-2.18-1.3-.37-.31-.74-.67-1.1-1.06-.34-.41-.64-.88-.94-1.37-.71-1.3-1.22-2.15-1.94-2.69-.88-2.01-1.05-.75-1.55-1.86-.19-.5-.38-1-.6-1.49-.26-1.09-1.13-1.16-1.47-2,.04-.42.09-.89.12-1.3-.7-1.51-1.06-2.43-2.11-3.26-.47-1.78-1.17-3.53-1.66-5.31-.37-1.53-.72-3-1.08-4.47-.23-1.07-.24-2.25-.34-3.27,0-.27.03-.48.04-.68.16-.63.48-1.78.02-2.58.14-.61.29-1.08.41-1.62,0-.26-.02-.47-.02-.67-.08-.87-.15-1.74-.22-2.55-.07-.87-.03-1.75-.02-2.63-.08-.76-.13-1.51-.18-2.27l-.78-.11c-.1.05-.21.18-.31.23-.05.69-.09,1.37-.53,3,.11.5.17.94.21,1.32.04.38.09.71.09.99,0,.55-.13.89-.32,1.03-.18-.29-.35-.5-.49-.73,0-.38.02-.78.03-1.19.05-.4.1-.8.14-1.18-.42-1.17-.06-2.55-.05-3.68.05-.9.32-1.79.53-2.68.29-.14.55-.31.88-.45.02-.14.04-.27.06-.34.05-.69.09-1.32.17-2.01-.1-.38-.21-.77-.3-1.08.34-.63.68-1.25,1-1.8.19.06.41.13.59.19.07-.12.17-.23.25-.28.28.09.59.19.9.29.13-.73.28-1.52.44-2.25.02-.06.05-.19.07-.26.17-.64.53-1.22.79-1.77.13-.24.26-.39.36-.57l.3-1.62c.08-.52.16-.99.26-1.43.1-.43.27-.8.43-1.13.32-.67.7-1.17,1.17-1.52.12-.17.26-.31.43-.52.22-.6.41-1.23.66-1.82l.82-1.75c-1.07.25.46-1.5.91-1.75.36-1.32,1.1-2.17,1.72-2.94.65-.76,1.29-1.38,1.82-2.08.53-.71,1.1-1.38,1.67-2.05.65-.89,1.35-1.74,2.2-2.42.85-.68,1.74-1.3,2.59-1.94.42-.32.84-.64,1.25-.96.44-.29.86-.59,1.26-.9.8-.63,1.53-1.33,2.16-2.17.62-.54,1.51-.61,1.88-1.2,1.06-.73,1.2-.93,1.28-1.07.24-.61-1.41.24-1.45.74-.47.28-.87.52-1.41.84-.21-.51-1.25.82-1.75.78-.44.47-1.01.91-1.61,1.34-.61.43-1.25.85-1.76,1.38-.13-.66-1.47.67-1.91.78-.1-.13-.23-.29-.33-.42.69-.6,1.38-1.19,2.06-1.78.73-.53,1.46-1.05,2.17-1.56.81-.28,1.69-1.11,2.16-1.7.93-.62,1.9-1.19,2.85-1.8,1.03-.43,2.03-.92,3.1-1.23.38-.17.82-.38,1.2-.55.57-.26,1.2-.55,1.84-.84.84-.42,1.74-.69,2.62-1l2.66-.91c.95-.17,1.79-.17,2.49-.31.7-.12,1.28-.27,1.78-.49.6-.15,1.27-.31,1.87-.45.68-.09,1.36-.13,1.98-.18.95-.21,1.03-.05,1.3.09-1.39.83-.17.94,1.35.35.4-.05.86-.16,1.27-.17.61,0,1.29-.01,1.96-.02,1.12.22,1.97-.28,3.25-.27.88.06,1.68.17,2.54.26.88.04,1.75.07,2.56.11.54.02,1.02.13,1.48.21.45.07.87.14,1.25.2.76.11,1.37.15,1.85.11.53.08,1.07.14,1.6.24.37.17.79.36,1.16.53.73.15,1.61.44,2.18.46.59.15,1.17.3,1.75.44.56.2,1.13.4,1.69.6,1.12.4,2.23.8,3.34,1.19.39.13.76.19,1.25.43.46.26.92.52,1.39.79-.35,0,.16.29.87.6.35.15.75.32,1.11.48.35.17.65.34.85.45.33.13.69.24.99.4.06.04.18.1.23.14.67.44,1.29.84,1.91,1.24l.7.41.66.47c.23.23.18.28.64.65.86.56,1.72,1.19,2.52,1.79.79.61,1.45,1.31,2.04,1.84.66.57,1.28,1.1,1.95,1.68.8.73,1.53,1.54,2.29,2.32.47.49.89.94,1.36,1.43.87,1.14.99,1.27,1.41,1.79.33.43.66.86.99,1.28.41.54.86,1.05,1.22,1.63.36.58.72,1.16,1.09,1.75.71,1.19,1.55,2.33,2.17,3.68.96,1.94,1.85,3.51,2.69,5.9.56,1.45,1.14,2.84,1.49,4.36,0-.01-.01-.03-.03-.05l.58,2.14c.13.46.25.91.37,1.34.1.44.15.87.23,1.29.14.84.27,1.66.41,2.5-.07-.43-.15-.91-.22-1.32Z"/>
        <path class="cls-7" d="M97.39,20.67c-.77-.49-1.5-.82-2.05-1.12-.55-.3-.93-.53-1.07-.68.94.41,1.64.75,2.16,1.03.5.29.79.57.97.77Z"/>
        <path class="cls-7" d="M85.7,14.92c-2.07-.35-3.68-.86-3.85-1.19.58.08,1.15.18,1.73.29.71.3,1.41.6,2.12.9Z"/>
        <path class="cls-7" d="M77.18,12.58c-.51-.04-.96-.07-1.36-.1-.4-.03-.76,0-1.09,0-.65,0-1.17-.02-1.67-.02-.34-.11-.67-.22-.96-.64.51-.05.98-.09,1.49-.14.91.2,1.75.29,2.65.58.33.12.67.23.94.33Z"/>
        <path class="cls-7" d="M40.67,16.93c-.67.32-.63.78-1.48,1.07-.57.19-1.13.4-1.69.61.14-.54,1-.85,1.38-1.29.74-.53,1.17-.32,1.79-.39Z"/>
        <path class="cls-7" d="M30.81,22.92c-.34.56-.67,1.12-1,1.68-.17.14-.35.29-.52.43-.51.19-.98.35-1.49.54l-.82.95-.76,1.01c-.18.14-.37.25-.61.44l-.75-.84c.41-.4.81-.79,1.19-1.17.4-.37.83-.69,1.24-1.04.47-.51.85-.91,1.27-1.36.64-.4,1.29-.81,1.87-1.18,1.33-.88,2.74-1.65,4.11-2.44-.91.69-1.04,1.49-2.1,2.17-.55.26-1.13.49-1.63.82Z"/>
        <path class="cls-7" d="M11.12,50.03c-.14.35-.28.71-.42,1.07.21.33.45.66.69,1-.36,1.15-.62,2.41-1.79,2.84-.57.63-1.15,1.27-1.67,1.84-.3-.9.49-2.15-.05-2.74.15-.53.29-.99.44-1.53.22-.76.38-1.56.65-2.34.28-.78.56-1.56.84-2.35.39-.26.47-.22.59-.17.23.8.47,1.59.72,2.36Z"/>
        <path class="cls-7" d="M12.88,57.8c.09.99-.3,2.28-.99,4.79.11-1.67.22-3.28.39-4.96.19.05.38.11.6.17Z"/>
        <path class="cls-7" d="M7.72,57.94c.45,1.24,1.53.56,1.32,2.55-.24.8-.49,1.69-.76,2.49-.11.06-.23.19-.34.33-.16,1.21-.31,2.44-.42,3.67-.08.45-.18.98-.26,1.44-.25-.18-.51-.27-.76-.47-.34-.9-.17-2.15-.34-4.24l.05-.71c.06-.39.13-.78.19-1.17.32-.65.67-1.38.99-2.04.12-.69.22-1.23.33-1.85Z"/>
        <path class="cls-7" d="M11.82,67.09c-.32.4-.59.88-.88,1.3-.41-.84-.16-2.15-.12-3.18.21-.19.46-.37.67-.63.11.82.22,1.7.33,2.51Z"/>
        <path class="cls-7" d="M9.67,88.74c1.29,2.49,1.75,2.56,1.53,3.68-.64.02-1.33-1.69-1.97-2.52-.29-.6.07,1.12-.27.55-.17-.45-.36-.97-.53-1.42l1.24-.29Z"/>
        <path class="cls-6" d="M20.48,95.51c.34.84,1.22.9,1.47,2,.22.49.41.99.6,1.49.5,1.11.67-.15,1.55,1.86.72.54,1.23,1.39,1.94,2.69.3.49.6.96.94,1.37.36.39.73.75,1.1,1.06.74.62,1.49,1.07,2.18,1.3.45.52.87.98,1.4,1.42-.59.29.63.98.63,1.42.56.52,1.17,1.09,1.72,1.6l.47.65.52.59c.43-.11,1.33.47,1.92.94.35.47.6.85.93,1.26.36.15.72.32,1.12.42,1.09.24,2.24,1.22,2.81,1.76-.14.27-.35.51.76,1.81.67.39,1.41.68,2.1,1.03.53.31.45-.22,1.97.76.15-.18.64,0,1.19.34.57.3,1.23.74,1.67,1.2-.54-.02-1.14-.04-1.67-.07-.4-.14-.82-.4-1.21-.58-.81-.42-1.63-.84-2.44-1.26-.68-.37-1.39-.67-2.03-1.11-.77-.5-1.53-1-2.29-1.5l-1.66-1.1c-.55-.37-1.04-.82-1.57-1.23-1.05-.75-2.04-1.46-3.09-2.21-.92-.79-2.11-1.69-2.63-2.61l-1.18-1.18-1.07-1.29c-.64-.46-1.21-.87-1.82-1.34-.5-.46-1.09-.92-1.55-1.49-.03-.35-.61-1.22.15-1.06-.19-.29-.39-.58-.54-.81-.55-.88-1.02-1.7-1.53-2.58-.33-.53-.63-1.16-.92-1.7l-.46.11-.93-1.95c-.3-.65-.65-1.28-.88-1.97-.55-1.55-1.16-3.07-1.67-4.61,1.06.83,1.41,1.75,2.11,3.26-.04.41-.08.89-.12,1.3Z"/>
        <path class="cls-7" d="M22.43,99.37c.3.54.6,1.17.92,1.7.51.88.98,1.71,1.53,2.58-.39-.15-.75-.25-1.11-.35-.58-.56-1.03-1.22-1.35-1.87-.27-.69-.41-1.37-.46-1.95l.46-.11Z"/>
        <path class="cls-1" d="M25.95,115.01c.43.43.83.88,1.24,1.32.71.86,1.72,1.16,2.21,1.23.25-.29.56-.54.84-.84,1.42,1.15,2.95,2.17,4.45,3.22-.37.23-.71.44-1.17.73.13.09.19.13.31.22-.56.18-1.07.41-1.63.57-.57-.33-1.13-.67-1.67-1.03-.69-.51-1.4-.95-2.04-1.48-.63-.53-1.26-1.05-1.87-1.57-1.19-1.06-2.43-2-3.37-3.12.12-.13.67.04.57-.63.35.25.69.48,1.04.72.36.21.72.42,1.1.64Z"/>
        <path class="cls-7" d="M28.49,115.31c.58.5,1.14.93,1.75,1.41-.28.31-.59.55-.84.84-.53-.62-1.08-1.3-1.56-1.94l.65-.32Z"/>
        <path class="cls-7" d="M34.7,121.52c1.65.4,2.49.91,3.29,1.37.17.3.75.75.56.88-2.34-.9-3.55-1.56-3.86-2.26Z"/>
        <path class="cls-7" d="M47.13,124.3c.63.03,1.18.04,1.73.05.22.23.46.48.68.71.65.09,1.31.37,2.49.56,3.61,1.2,5.9.78,10.42,1.76-.45.18-.96.35-1.5.53-3.46-.16-5.68-.91-7.67-.88-.56-.25-1.2-.48-1.8-.83-.62-.22-1.31-.46-2.28-.8-.8-.23-1.66-.5-2.44-.76.17-.16.27-.25.37-.34Z"/>
        <path class="cls-6" d="M62.45,127.38c.5.07.92.12,1.42.19.02-.04.05-.07.06-.09.68-.03,1.43-.07,2.12-.1.15,0,.29.01.36.01,1.12-.04,2.16-.08,3.21-.12.84,0,1.6-.04,2.36-.05.96-.12,1.91-.24,2.78-.35.14,0,.28-.02.35-.02.06.12.14.23.13.35,2.56-.41,3.15-.64,4.5-1.03l1.04-.19c.21-.04.42-.08.62-.11.49-.16.91-.3,1.4-.46.75-.24,1.51-.47,2.27-.71.71-.16,1.5-.27,2.18-.5-.42.27-.95.47-1.4.69-1.58.49-2.94,1.08-4.67,1.42-1.36.32-2.74.65-4.11.97-.38.06-.78.12-1.18.19-.4.05-.8.05-1.18.07-.43.04-.93.08-1.36.11-.99.12-1.98.23-2.98.35-1,.13-2.02.07-3.06.12-1.09,0-2.34-.02-3.51-.02-.14.08-.34.15-.48.22-.76-.13-1.61-.27-2.38-.4.53-.18,1.05-.34,1.5-.53Z"/>
        <path class="cls-7" d="M64.69,126.8c.51.21.89.4,1.36.58-.69.03-1.44.07-2.12.1.24-.23.54-.45.76-.68Z"/>
        <path class="cls-7" d="M79.74,126.17c-1.35.39-1.93.62-4.5,1.03,0-.12-.07-.23-.13-.35.62,0,1.17-.15,1.87-.27.7-.13,1.55-.27,2.76-.41Z"/>
        <path class="cls-7" d="M75.14,129.59c.62-.12,1.25-.33,1.87-.55.51-.11.94-.21,1.37-.31.9-.27,1.73-.52,2.55-.77.7-.23,1.23-.41,1.69-.54.46-.12.85-.17,1.26-.23.39-.21.79-.43,1.18-.64.95-.32,2.18-.71,2.9-.98.03.06.12.11.21.14.86-.39,1.66-.76,2.52-1.15-.07.16-.14.33-.21.49-.57.34-1.15.69-1.71,1.03-.3-.04-.68-.03-.99-.06-1.43.58-2.91,1.07-4.39,1.6-.09.19-.17.36-.25.54-1.06.45-2.3.72-3.47,1.03-.38,0-.32-.12-.81-.15-.2.03-.41.05-.67.09-.35.16-.78.36-1.19.55-.36.08-.71.16-1.06.24-.35.05-.7.09-1.07.14-.04-.04-.17-.07-.29-.1.22-.14.42-.25.57-.38Z"/>
        <path class="cls-7" d="M82.8,125.4c.75-.24,1.51-.47,2.27-.71-.76.24-1.52.48-2.27.71Z"/>
        <path class="cls-7" d="M88.86,123.48c.45-.37,1.22-.71,1.98-1.02.38-.16.75-.31,1.08-.45.32-.16.59-.34.79-.48,1.28-.75,1.17-.47,1.7-.69-.01.03-.02.05-.03.06-.61.4-1.27.84-1.93,1.28-1.17.51-3.13,1.45-3.59,1.3Z"/>
        <path class="cls-5" d="M72.41,129.23c.09-.15.19-.32.29-.49,1.06-.14,2.15-.27,3.25-.45,1.09-.26,2.2-.52,3.32-.78,2.25-.43,4.42-1.26,6.5-1.96,1.55-.46,2.97-1.24,4.41-1.86.72-.33,1.43-.65,2.14-.97l2.04-1.17c.67-.42,1.45-.87,2.28-1.33.84-.45,1.64-1.08,2.49-1.62.83-.57,1.65-1.13,2.42-1.66.73-.58,1.37-1.18,1.92-1.68,1.18-1,2.42-1.93,3.52-3.13.64-.64,1.23-1.23,1.87-1.86.49-.49.94-.92,1.37-1.47.24-.34.47-.66.69-.96.3-.35.56-.65.87-1.01-.28.49-.5.92-.72,1.35-1.06,1.47-2.4,2.76-3.68,4.12-.63.61-1.17,1.23-1.88,1.76-.93.73-1.45,1.33-1.94,1.89-.27.23-.48.42-.75.65-.5.38-.97.72-1.53,1.03-1.05.66-1.42,1.15-2.3,1.8-1.6,1.3-2.39,1.7-2.98,2.1-1,.57-1.99,1.15-3,1.73-.58.3-1.22.44-1.77.64-1.4.53-2.18,1.11-3.29,1.7-.72.27-1.96.67-2.9.98-.38.21-.79.43-1.18.64-.41.06-.8.11-1.26.23-.46.12-.98.31-1.69.54-.82.25-1.65.5-2.55.77-.43.1-.86.19-1.37.31-.6.07-1.28.14-1.98.13-.88.1-1.83.21-2.78.31.08-.14.11-.19.15-.25Z"/>
        <path class="cls-7" d="M98.99,119.42c.37-.19,1.18-.74,1.02-.54-.33.37-.86.79-1.44,1.22-.29.21-.59.42-.89.63-.31.19-.61.37-.9.54-.28.12-.57.23-.77.26.59-.41,1.38-.81,2.98-2.1Z"/>
        <path class="cls-7" d="M104.27,114l1.26-.93c.4-.33.77-.69,1.16-1.04-.89,1.13-1.99,1.9-2.85,2.62.18-.27-.02-.26.43-.65Z"/>
        <path class="cls-7" d="M112.62,106.14c.64-.69,1.84-2.7,1.9-2.61-.34.69-1.21,2-1.64,2.52-.62.79-.99,1.2-1.39,1.63.38-.51.76-1.03,1.14-1.54Z"/>
        <path class="cls-7" d="M116.97,99.4l.8-1.44c.3-.54.59-1.07.86-1.59.29-.51.48-1.04.68-1.48.08-.2.53-1.22.82-1.86.03-.06.08-.19.14-.31.1-.18.19-.36.29-.54-.14.37-.4.94-.56,1.33-.25.57-.48,1.12-.72,1.67-.23.56-.48,1.1-.79,1.63-.1.18-.2.36-.33.6-.4.76-.78,1.49-1.16,2.23-.25.45-.48.89-.73,1.3-.27.4-.54.79-.81,1.19.28-.45.54-.89.81-1.32.23-.46.46-.92.7-1.39Z"/>
        <path class="cls-1" d="M125,69.48c-.07-1.39-.12-2.35-.16-2.95-.06-.96-.09-1.99-.19-2.94-.15-.94-.32-1.95-.47-2.89.07.41.15.89.22,1.32.06.34.11.68.16.95.05.3.09.6.14.9l.05.89c.03.6.07,1.19.1,1.81.05,1.02.1,1.97.15,2.92Z"/>
        <path class="cls-1" d="M122.99,55.66c-.23-.81-.47-1.61-.7-2.43-.31-.77-.58-1.46-.87-2.19l.04.05c-.29-.73-.54-1.36-.56-1.46-.26-.62-.45-1.17-.68-1.65-.25-.47-.47-.9-.7-1.32-.44-.84-.88-1.67-1.5-2.84-.53-.94-1.18-1.81-1.76-2.72-.26-.39-.49-.73-.71-1.06-.35-.5-.58-.92-.95-1.32.02-.05-.97-1.2-1.41-1.76-.55-.67-1.07-1.29-1.62-1.96-.53-.52-1.1-1.09-1.63-1.61.14.09.07-.07-.58-.68-.8-.73-1.1-1.3-2.14-2.01,0,.06-.64-.5-1.01-.79.07-.03-.58-.52-.63-.63-.57-.47-.99-.73-1.45-1.04-.46-.31-1.01-.59-1.78-1.18-1.18-.82-2.52-1.98-4.52-2.83-1.81-.74-2.3-1.14-2.73-1.51-.45-.32-.83-.62-2.42-.97-.7-.22-.73-.4-1.4-.67-.31-.12-.62-.24-.93-.36-.33-.09-.65-.18-.98-.27-.66-.18-1.32-.37-1.99-.56-.19-.17-.9-.38-1.61-.58-.71-.2-1.45-.28-1.65-.46-.88-.08-2.07-.2-2.78-.47-.84-.24-1.6-.32-2.34-.4-.74-.09-1.46-.18-2.25-.31-.92,0-1.85-.54-2.52-.14-.19.27-1.64.13-2.49.18-.26-.16-1.06-.16-1.84-.16-.79.06-1.57.15-1.84-.04-.71.04-1.41.09-2.13.13-.71.05-1.44.04-2.16.19l-1.51.6c-.93.17-1.83.33-2.71.48-.87.21-1.71.47-2.54.69-.83.22-1.66.45-2.47.67-.79.3-1.58.6-2.38.9-.8.3-1.59.59-2.41.9-.78.38-1.56.77-2.37,1.17-.8.42-1.65.77-2.45,1.27-.8.51-1.62,1.03-2.47,1.58-.55.18-.98.41-1.34.66-.35.27-.62.59-.9.9-.55.62-1.09,1.23-2.15,1.7-.28.17-.56.35-.82.53-.26.19-.49.41-.72.62-.46.43-.9.85-1.34,1.26-.88.82-1.72,1.6-2.58,2.4-.85.3-.58,1.05-1.12,1.49-.43.58-.87,1.04-1.25,1.49-.37.46-.73.86-1.1,1.23-.73.75-1.47,1.4-2.21,2.24.49-1.12,1.35-2.36,2.29-3.63.44-.66,1.03-1.21,1.56-1.8.54-.58,1.06-1.16,1.54-1.73.58-.9,1.41-.52,1.31-1.35.41-.3.83-.92,1.22-.94.62-.53,1.25-1.08,1.88-1.65.68-.51,1.37-1.03,2.07-1.56.7-.52,1.39-1.08,2.1-1.61.75-.48,1.51-.96,2.27-1.44.77-.46,1.49-1.02,2.3-1.41.8-.41,1.6-.81,2.4-1.21,1.56-.88,3.25-1.42,4.85-2.01,2.97-.97,7.1-2.38,11.08-2.6.73-.18,1.46-.2,2.18-.28.72-.07,1.43-.14,2.15-.21,1.57-.42,3.32-.16,4.65-.01.89-.04,1.79-.1,2.67-.05.87.1,1.74.21,2.58.31.85.11,1.67.21,2.47.32.78.18,1.54.34,2.27.48.59.18,1.22.32,1.87.44.33.06.66.12.99.18.32.09.64.18.96.27,1.27.36,2.5.73,3.42,1.18.51.13.99.35,1.48.55.78.29,1.57.6,2.35.93.78.33,1.58.63,2.29,1.06,1.45.83,2.91,1.58,4.18,2.42.81.5,1.1.98,1.86,1.28.44.3,1.07.69,1.3.91.57.35,1.36,1.06,2.24,1.77.88.71,1.8,1.45,2.54,2.05.6.63,1.15,1.2,1.74,1.83.37.39.72.76,1.77,1.88.34.42.68.83,1.03,1.25.15.23.32.49.49.73.62.73.8.94,1.32,1.52.36.4.66.85.95,1.31.19.28.34.51.53.79.34.48.67.99,1.06,1.6.39.61.87,1.29,1.32,2.24.45.83.84,1.57,1.2,2.28.35.72.75,1.36,1.01,2.09.68,1.68.82,2.05,1.76,4.53.2.72.42,1.5.62,2.22-.06-.2-.12-.42-.2-.68l-.03-.06c.2.71.41,1.48.61,2.19.2.72.44,1.51.48,1.9.07,0-.61-2.32-.86-3.2Z"/>
        <path class="cls-1" d="M123.97,59.41c-.05-.31-.11-.62-.16-.95-.08-.35-.19-.71-.27-1.01,0,0,0-.01.06.22.07.23.22.7.37,1.74Z"/>
        <path class="cls-5" d="M105.79,27.84c-.42-.33-.79-.69-1.21-.98-.42-.29-.82-.58-1.22-.86-.79-.57-1.54-1.12-2.28-1.66-.71-.58-1.53-.97-2.27-1.45-.76-.46-1.53-.9-2.31-1.33-1.2-.85-1.5-.78-1.98-1.04-1.18-.6-2.09-1.07-2.8-1.43-.7-.39-1.23-.55-1.52-.77-1.14-.44-2.22-.86-3.37-1.3-.22-.07-.43-.14-.64-.21-.21-.05-.41-.11-.62-.16-.4-.11-.78-.22-1.18-.33-.79-.22-1.62-.44-2.69-.59-.2-.05-.4-.1-.59-.15-.44-.19-.81-.31-1.26-.48-.56-.02-1.06-.04-1.69-.06-1.7-.43-2.52-.63-3.24-.54-.81-.07-1.7-.15-2.58-.23-1.3-.07-2.6-.21-3.97-.1-.41.02-.83.03-1.31.05-1.63-.17-2.46-.24-2.94-.07-.69.43-.55-.17-1.64.15-1.23.19-2.61.27-3.97.62-.62.12-1.28.25-1.89.37-.28-.04-.5-.1-.71-.15-.6.2-1.19.39-1.77.58-.59.18-1.16.38-1.74.66l-2.66.91c-.88.31-1.79.57-2.62,1-.64.29-1.26.58-1.84.84-.38.17-.82.38-1.2.55-1.08.31-2.08.79-3.1,1.23-.95.61-1.92,1.18-2.85,1.8-.47.59-1.35,1.42-2.16,1.7-.71.51-1.44,1.03-2.17,1.56-.68.59-1.37,1.19-2.06,1.78-.08,0-.22.05-.3.07-1.9,1.01-1.37,1.33-1.71,1.68-.82,1.06-1.65,2.12-2.52,3.24-.26.28-.53.56-.79.84-.25.29-.48.6-.72.9-1.25,1.11-2.61,2.18-3.85,3.38-.16.32-.32.65-.48.97.01.1-.01.25-.03.33-.67,1.01-1.34,2.01-2,3.01-.57,1.05-1.14,2.1-1.7,3.13-.09-.04-.17-.09-.25-.14-.9,1.06-1.07,1.39-1.22,1.71-.39.2-.81.4-1.32.47.19.75.38,1.48.61,2.21-.26.67-.52,1.34-.75,1.94l-.45-.18c.25-.92-.69-1.16.03-3.43.11-.19.25-.36.42-.61.11-.43.22-.95.41-1.35.67-.72,1.28-1.39,1.94-2.11.44-.84.85-1.69,1.33-2.51.24-.37.51-.79.75-1.16.17-.77.91-1.6,2.38-3.37,1.25-1.55,2.43-3.13,3.71-4.6l2.05-2.12c.7-.69,1.33-1.46,2.11-2.07.71-.61,1.36-1.16,2.08-1.77.26-.28.57-.59.91-.92.17-.16.35-.33.54-.51.2-.16.41-.31.63-.47.87-.63,1.85-1.26,2.86-1.79.54-.49.88-1.04,1.61-1.36.67-.11,1.44-.5,2.32-.95.44-.23.92-.47,1.42-.71.25-.12.51-.23.78-.34.28-.09.57-.17.87-.24.91-.36,1.9-.76,2.82-1.12.6-.24,1.19-.56,1.82-.78.63-.23,1.26-.46,1.9-.69.64-.24,1.28-.48,1.92-.72l.97-.36c.33-.1.67-.18,1-.27.71-.01,1.34-.02,2.05-.03.86-.39,1.93-.84,3.1-1.03,1.17-.19,2.39-.31,3.5-.36,1.66-.22,3.35-.09,5.01-.1.83.01,1.66,0,2.49.03l2.48.25c.9.05,1.99.2,2.65.05.35.01.69.08,1.03.14,1.88.49,2.43.52,2.92.58.54.11,1.08.22,1.61.33,1.08.22,2.14.57,3.21.85l1.6.44.8.22c.26.09.52.19.77.29.16.14.32.28.54.44.54.17,1.07.33,1.6.49.38.14.84.32,1.22.46.35.14.71.26,1.06.41l1.02.51c.67.44,3.03,1.47,3.81,1.99.78.5,1.58,1.02,2.41,1.55.42.26.84.53,1.26.79.43.26.85.53,1.24.85.8.61,1.6,1.23,2.39,1.83.39.3.78.6,1.16.9.37.31.7.65,1.04.97Z"/>
        <path class="cls-1" d="M87.57,17.08c-.22-.16-.38-.3-.54-.44.57.1,2.22.67,2.14.93-.53-.16-1.06-.33-1.6-.49Z"/>
        <path class="cls-1" d="M83.58,14.02c-.58-.1-1.15-.2-1.73-.29-1.55-.48-3.08-.76-4.67-1.16-.27-.1-.61-.21-.94-.33-.9-.28-1.74-.37-2.65-.58,0-.02,0-.05.02-.08.65.06,1.37.12,2.02.17.72.11,1.43.24,2.07.36,1.36.21,1.51.66,2.26.89.6,0,.33-.3,1.11-.16.56.11,1.1.33,1.65.49.33.13.66.26,1,.39,0,.01-.02.03-.02.05-.04.08-.07.15-.1.23Z"/>
        <path class="cls-1" d="M76.13,13.94c.79-.03,2.74.26,2.92.58-.49-.06-1.04-.09-2.92-.58Z"/>
        <path class="cls-1" d="M21.33,30.36c-.46.73-.94,1.55-1.36,2.3-.05.06-.15.18-.25.3-.49.45-.99.91-1.49,1.37-.5.47-.93.99-1.38,1.48-.18.55-.33,1-.51,1.55-.64.59-1.19,1.49-1.68,2.38-.44.92-.86,1.79-1.42,2.27-.57.94-1.14,1.88-1.7,2.91l-.98,2.4c-.06.15-.12.29-.15.36-.12-.05-.2-.1-.59.17l.03-2.1c.2-.39.36-.88.55-1.34.22-.44.46-.83.73-1.05.46-.75.91-1.49,1.37-2.24.34-.73.63-1.38.96-2.11-.17-.78.99-1.83,1.45-2.68.32-.26.67-.5,1.23-1.05.26-.75.47-1.29.72-1.69.25-.4.5-.69.75-.99.37-.21.89-.6,1.05-.14.05-.06.15-.18.2-.24.2-.57.36-1.05.56-1.61.51-.5,1.03-1.42,1.55-1.57-.25.85.68.56.37,1.34Z"/>
        <path class="cls-1" d="M26.6,41.08c-.56,1.73-1.2,2.43-2.24,4.04-.24.6-.48,1.19-.69,1.73l-1.2,2.18c-.66,1.38-1.19,2.82-1.8,4.23-.33.7-.53,1.44-.75,2.18l-.67,2.21c.23-1.34.49-2.7,1-4.12.58-1.39,1.15-2.93,1.94-4.65,0-.65.43-1.09,1.1-2.25.25-.53.53-1.1.81-1.68.26-1.05,1.02-1.88,1.46-2.74.35-.39.69-.78,1.05-1.14Z"/>
        <path class="cls-1" d="M19.1,58.22c.23.8.17,1.24.07,1.94.17.37.32.73.5,1.03.06,1.49-.74,1.07-.89,2.34-.2.19-.31.49-.32.82,0,.34.05.7.08,1.03.06.64.05,1.11-.63.8-.54-.95-.49-1.71-.11-2.59.36-.89.84-1.91.93-3.54.09-.64.19-1.21.38-1.82Z"/>
        <path class="cls-1" d="M18.06,70.83c.47.95.74,2.47.91,4.1.3,1.61.42,3.34.31,4.74.34.21.48.64.71,1.11-.01.51-.06,1.04-.11,1.57-.35.07-.74.14-1.09.21-.25-.85-.51-1.7-.74-2.56l-.49-2.62c-.06-.75-.12-1.45-.18-2.13-.07-.68,0-1.36,0-2.05.02-.69.04-1.39.08-2.15.05-.75.06-1.55.27-2.43.02.72.16,1.5.32,2.21Z"/>
        <path class="cls-1" d="M19.66,85.91c.96,3.39,2.27,7.39,3.81,10.59-.31.07-.84-.6-1.18-.99-1.06-1-.07-1.25-.82-2.37-.49-.38-.9-1.4-1.3-2.38-.36-1-.63-2.01-1.11-2.35-.09-.74-.19-1.54-.28-2.28.17-.11.31-.29.49-.46.14.1.27.2.39.24Z"/>
        <path class="cls-1" d="M28.12,98.69c.33.54.62,1.02.95,1.56-.33-.01-.12.5.17.86.18.43.42.97.79,1.5.38.52.82,1.07,1.29,1.63.92,1.11,1.92,2.22,2.79,2.85.6.87.26,1.41,1.15,2.44.33.29.63.63.96.94.34.3.68.62,1.02.95.69.66,1.38,1.36,2.1,2.02.58.35,1.19.63,1.73.96.55.33,1.06.67,1.54,1.02.48.35.93.69,1.35,1.02.42.34.86.56,1.25.81.23.13.4.23.58.33,1.22.16,2.49,1.17,3.61,1.62.79.35,1.51.67,2.3,1.02.54.11,1.15.32,1.79.58.65.25,1.36.45,2.06.69.71.24,1.41.47,2.08.66.67.19,1.29.36,1.85.35-.17.23.87.35.33.56-.06.09-.12.16-.18.25-.31-.04-.63-.08-.94-.13l-.91-.25c-.6-.18-1.19-.37-1.77-.55-.58-.18-1.15-.36-1.71-.53-.28-.08-.55-.16-.83-.23-.27-.1-.53-.19-.79-.27l-1.4-.73c-.61-.27-1.16-.51-1.78-.77-.13-.13-.25-.26-.37-.41-.7,0-1.75-.96-2.65-.9l-.52-.29c-.61-.3-1.22-.61-1.77-.88-.4-.14-.81-.42-1.16-.62-.55-.38-1.1-.77-1.59-1.11-.64-.55-1.06-.55-1.42-.84-.38-.34-.72-.73-1.03-1.14-.33-.32-.66-.33-1.44-.89-.44-.4-.86-.79-1.28-1.18-.42-.38-.83-.78-1.2-1.24-.29-.43-.84-1.22-1.57-1.25-.27-.29-.59-.62-.87-.91-.76-.73-1.37-1.6-2.02-2.42-.49-.77-1.19-1.97-1.73-2.23-.57-.25-.93-1.5-1.76-1.68-.14-.5-.27-.99-.43-1.47-.59-.68-1.04-.78-1.81-2.32.39.09.75.2,1.17.34l.3-1.06c.28.15.6.12.9.25.29.13.58.39.84,1.1Z"/>
        <path class="cls-1" d="M30.95,99.24c-.05,1.22,3.53,4.53,1.02,3.35-.36-.51-.76-.97-1.04-1.46-.09-.16-.19-.32-.32-.54-.2-.5-.43-1.07-.65-1.63.19-.39.72.44,1,.27Z"/>
        <path class="cls-1" d="M23.42,111.55c.6-.38,1.05-.18,2.19.97.66.43,1.38.8,1.86,1.19.49.38.77.75.66,1.07.11.18.22.36.36.53l-.65.32c-.5-.23-1.09-.51-1.6-.74-.48-.56-.92-1.06-1.33-1.68-.46-.52-.98-1.09-1.49-1.66Z"/>
        <path class="cls-1" d="M49.32,127.51c.15-.53.84-.42,2.76-.03.29-.02.59-.06.89-.1.78.4,1.57.78,2.36,1.16-.14.16-.3.34-.46.52-.51-.11-.96-.21-1.48-.32-.38-.17-.77-.32-1.24-.49-1-.15-1.85-.49-2.83-.74Z"/>
        <path class="cls-6" d="M55.33,128.53c.33.04.7.09,1.1.13.54.17,1.07.38,1.61.5.66,0,1.3,0,2.3.06.07-.09.14-.18.19-.25.66.07,1.4.15,2.14.24.33.03.68.07,1.03.11.35,0,.7,0,1.03.01,1.22-.15,2.71-.05,4.86-.32.66-.02,1.39-.12,2.12-.18.29-.03.65-.06,1.01-.1-.1.17-.2.34-.29.49-.04.07-.07.12-.15.25-.13.11-.35.25-.56.37-.37.04-.66.07-1.03.12-.43.01-.93.07-1.36.02-.99.04-1.97.08-2.96.11-.69.03-1.46.06-2.23.1-1.28-.01-2.61-.21-3.89-.32-1.01-.06-2.08-.02-3.04-.11-.94-.14-1.78-.34-2.32-.72.16-.18.32-.36.46-.52Z"/>
        <path class="cls-1" d="M56.71,128.33c.32.08.64.15.95.23.32.05.64.09.95.14.63.09,1.26.18,1.91.28-.06.07-.12.16-.19.25-1-.05-1.64-.06-2.3-.06-.54-.12-1.07-.33-1.61-.5.09-.11.2-.23.29-.33Z"/>
        <path class="cls-6" d="M50.13,122.74c.56.25.35-.27,1.98.55.68.42,1.35.7,2.02.98.77-.06,1.77.06,2.82.26.53.09,1.07.23,1.61.32.54.07,1.08.15,1.59.21.86.24,1.86.32,2.75.42.44.04.86.11,1.22.17.37.04.67.11.9.23.56.04,1.11.07,1.66.1.71-.09,1.49-.19,2.2-.27-.06-.12-.43-.34.25-.39.41.04.84.02.78.44.34.11,1.87.04,3.11-.35.34-.01.69-.03.97-.04.8-.11.17-.29.9-.39.55,0,1.09-.09,1.64-.16.89-.14,1.77-.28,2.65-.42.87-.16,1.76-.23,2.63-.5,1.45-.48,3.01-.73,4.84-1.34.78-.42,2.49-.83,2.85-1.17.84-.35,1.72-.59,2.45-.98.55-.22,1.44-.59,1.85-.97.5-.27,1.01-.53,1.52-.8.41-.16.76-.26,1.09-.4l.99-.82c.35-.22.77-.49,1.13-.72.74-.4,1.47-.79,2.15-1.15.68-.48,1.28-.97,1.89-1.42.14-.05.27-.1.46-.2-.02.05-.04.11-.06.15,1.21-.85,1.74-1.32,1.84-1.45-.03-.01-.12.02-.21.05.03-.06.05-.13.09-.2.79-.56,1.44-1.2,2.19-1.81-.62.67-1.09,1.07-1.53,1.54.96-.69,3.63-3.36,2.98-2.52-.67.66-.69.71-1.53,1.56.18-.12.29-.19.42-.26.53-.47,1.11-.99,1.63-1.46-.02.04-.03.07-.04.1-.54.54-.88.88-1.23,1.24l-1.16,1.05-.97.92-1.05.83c-.13.06-.28.12-.41.17-.72.57-1.6,1.28-2.45,1.95-.86.65-1.77,1.13-2.39,1.48-.53.35-1.12.74-1.72,1.13-.31.17-.62.36-.94.53l-.99.45c-.55.39-2.01.94-2.17,1.22-.86.44-1.79.91-2.71,1.22-.09.09-.25.2-.41.32-.19.07-.39.15-.58.22-.49.13-.98.26-1.47.39-.68.24-1.28.52-1.88.7-.6.18-1.18.36-1.78.54-.6.19-1.22.4-1.92.62-.7.23-1.46.51-2.38.68-2.21.13-3.03.48-3.39.69l-.07.14c-.63.24-1.18.44-1.89.59-.02-.21-.64-.29-1.51-.2-.55.02-1.03.01-1.63.01-.6.1-1.12.17-1.78.26-.81-.06-1.69-.17-2.56-.28-.83.04-1.66.09-2.56.13-.32-.06-.63-.09-.94-.14-.31-.06-.62-.11-.92-.15-.6-.08-1.19-.13-1.74-.17-1.1-.09-2.06-.17-2.67-.54-1.4-.27-2.83-.68-4.29-1.02-.69-.19-1.35-.25-2.03-.5-.07-.21-.13-.43-.26-.67-.58-.23-1.23-.49-1.82-.72Z"/>
        <path class="cls-1" d="M60.81,123.17c1.65-.29,1.95.12,2.66.29.24-.14.57-.1.95-.03.38.06.81.22,1.25.41.14.01.2.02.33.03-.18.05-.28.1-.45.14-.55-.03-1.11-.03-1.65-.1-.16-.09-.33-.18-.54-.3-.81-.13-1.69-.27-2.56-.43Z"/>
        <path class="cls-1" d="M72.26,129.49c.95-.11,1.9-.21,2.78-.31.7,0,1.37-.07,1.98-.13-.62.22-1.25.43-1.87.55-.15.12-.35.24-.57.38.12.03.24.06.29.1-.96.35-1.41.42-2.4.23,0-.02.03-.05.04-.07.07-.12.13-.22.2-.34l-1.01-.03c.21-.12.43-.26.56-.37Z"/>
        <path class="cls-1" d="M83.4,127.62c.15-.06.31-.14.38-.18,1.32-.46,2.72-.89,4-1.41.31.03.69.03.99.06-.44.25-.84.47-1.2.65-.37.15-.7.28-1,.39-.6.21-1.08.38-1.51.54.03-.19-1.01.16-1.93.5.08-.18.17-.35.25-.54Z"/>
        <path class="cls-1" d="M87.97,125.58c1.11-.58,1.89-1.17,3.29-1.7.55-.2,1.19-.34,1.77-.64-.34.28-.71.51-1.07.75.21-.01.36,0,.51.03-.75.65-1.71.93-1.97,1.03.07-.16.14-.33.21-.49-.86.39-1.66.76-2.52,1.15-.1-.03-.18-.08-.21-.14Z"/>
        <path class="cls-1" d="M98.99,119.42c.88-.64,1.24-1.14,2.3-1.8.56-.31,1.02-.65,1.53-1.03-.73.73-1.28,1.13-1.7,1.47-.42.33-.73.57-1.1.82.16-.19-.65.36-1.02.54Z"/>
        <path class="cls-1" d="M103.57,115.94c.49-.56,1.01-1.16,1.94-1.89.71-.53,1.24-1.15,1.88-1.76-.27.33-.49.61-.76.94-.94.96-2.06,1.82-3.06,2.71Z"/>
        <path class="cls-1" d="M121.77,88.77c.03-.09.05-.14.09-.23-.52,1.63-.87,2.77-1.3,3.63-.1.18-.19.36-.29.54.26-.63.59-1.25.82-1.92.23-.67.45-1.35.68-2.03Z"/>
        <path class="cls-1" d="M122.57,86.42c.31-.91.45-1.79.69-2.72.07-.32.16-.68.24-1.06.36-1.57.49-1.91.61-3.01.13-.95.27-1.95.4-2.91.07-.48.13-.95.2-1.4.06-.45.05-.89.08-1.3.03-.68.07-1.53.1-2.28,0,.02,0,.03,0,.05-.14,2.73-.07,3.07-.36,4.85-.07.5-.24,1.73-.41,2.94-.07.45-.1.98-.22,1.42-.21.91-.36,1.56-.62,2.67-.18.78-.36,1.56-.53,2.34-.2.56,0-.1-.26.66.02-.06.07-.19.09-.26Z"/>
        <path class="cls-6" d="M124.58,76.11c.05-.39.14-.79.16-1.19l.06-1.2c0,.09,0,.16,0,.24.02-.41.04-.88.06-1.29.02-.44.05-.94.07-1.37.06-1.24.06-1.2.05-1.1,0-.03,0-.04,0,0,0-.16.02-.32.02-.47-.03.58-.05,1.11-.08,1.76-.03.53-.05,1.12-.08,1.65-.07.9-.02,1.8-.19,2.69,0,.06-.02.12-.03.19.06-.46.15-.92.15-1.39,0,.15,0,.31-.03.54,0-.04,0-.07,0-.1l-.3,2.08s0,.04,0,0c.05-.36.1-.66.15-1.04Z"/>
        <path class="cls-1" d="M124.8,73.72c.02-.44.04-.94.07-1.38.02-.33.04-.71.05-1.04-.02.43-.05.93-.07,1.37-.02.41-.04.88-.06,1.29,0-.08,0-.15,0-.24Z"/>
        <path class="cls-6" d="M113.2,36.19c-.42-.52-.54-.65-1.41-1.79.5.54.95,1.22,1.41,1.79Z"/>
        <path class="cls-6" d="M110.43,32.97c-.76-.77-1.49-1.58-2.29-2.32-.67-.58-1.28-1.11-1.95-1.68-.6-.53-1.25-1.23-2.04-1.84-.8-.6-1.66-1.23-2.52-1.79-.46-.37-.41-.42-.64-.65l-.66-.47-.7-.41c-1.37-.68-1.42-.8-2.14-1.38-.3-.16-.66-.27-.99-.4-.2-.1-.5-.28-.85-.45-.36-.15-.76-.32-1.11-.48-.7-.31-1.21-.59-.87-.6-.47-.26-.93-.53-1.39-.79-.49-.24-.85-.3-1.25-.43-1.11-.4-2.22-.79-3.34-1.19-.56-.2-1.12-.4-1.69-.6-.58-.15-1.16-.29-1.75-.44-.57-.03-1.46-.31-2.18-.46-.37-.17-.79-.37-1.16-.53-.53-.1-1.07-.16-1.6-.24-.48.05-1.09,0-1.85-.11-.38-.06-.79-.13-1.25-.2-.45-.08-.94-.19-1.48-.21-.81-.03-1.69-.07-2.56-.11-.86-.09-1.66-.2-2.54-.26-1.28-.02-2.12.48-3.25.27-.67,0-1.34.01-1.96.02-.4.02-.86.12-1.27.17-1.53.59-2.74.48-1.35-.35-.28-.13-.35-.3-1.3-.09-.61.05-1.3.1-1.98.18-.61.15-1.27.31-1.87.45-.49.22-1.07.37-1.78.49-.7.13-1.54.14-2.49.31.57-.28,1.15-.48,1.74-.66.58-.19,1.17-.38,1.77-.58.22.06.43.11.71.15.61-.12,1.28-.25,1.89-.37,1.35-.36,2.74-.43,3.97-.62,1.09-.32.95.28,1.64-.15.48-.17,1.32-.1,2.94.07.48-.02.89-.03,1.31-.05,1.37-.11,2.67.03,3.97.1.88.08,1.77.16,2.58.23.71-.1,1.53.1,3.24.54.63.02,1.12.04,1.69.06.45.16.82.28,1.26.48.61.1,1.3.22,1.92.32.8.19,1.72.47,1.87.61.59.31,1.29.25,1.93.51,1.14.44,2.22.86,3.37,1.3.29.23.83.38,1.52.77.71.36,1.62.83,2.8,1.43.48.26.78.19,1.98,1.04.78.43,1.55.87,2.31,1.33.75.48,1.56.87,2.27,1.45.74.54,1.49,1.09,2.28,1.66.4.28.8.56,1.22.86.42.29.79.65,1.21.98.87.77,1.79,1.6,2.66,2.38.46.4.72.8,1.09,1.19.55.61,1.04,1.16,1.54,1.71.17.26.46.68.23.54-.29-.23-.6-.47-.89-.7Z"/>
        <path class="cls-6" d="M91.33,17.26c-2.3-.77-3.78-1.37-4.06-1.73.76.06,2.37.82,4.06,1.73Z"/>
        <path class="cls-6" d="M56.24,12.22c-.56.23-1.35.35-3.19.51.83-.4,2.49-.82,3.19-.51Z"/>
        <path class="cls-6" d="M44.09,21.49c-.25-.59.75-1.06,1.95-1.33.84.32-1.32.9-1.95,1.33Z"/>
        <path class="cls-6" d="M40.67,23.37c-.38.59-1.27.66-1.88,1.2-.62.84-1.35,1.54-2.16,2.17-.4.32-.82.61-1.26.9-.41.32-.83.64-1.25.96-.85.63-1.73,1.26-2.59,1.94-.85.68-1.55,1.53-2.2,2.42-.57.67-1.15,1.34-1.67,2.05-.53.7-1.17,1.32-1.82,2.08-.63.77-1.36,1.62-1.72,2.94-.44.25-1.97,1.99-.91,1.75l-.82,1.75c-.26.59-.44,1.22-.66,1.82-.17.21-.31.35-.43.52-.47.34-.85.85-1.17,1.52-.15.34-.32.7-.43,1.13-.1.43-.18.91-.26,1.43l-.3,1.62c-.1.18-.23.34-.36.57-.26.54-.62,1.13-.79,1.77-.02.07-.05.2-.07.26-.16.73-.31,1.52-.44,2.25-.31-.1-.62-.2-.9-.29-.08.05-.18.16-.25.28-.19-.06-.41-.13-.59-.19-.32.55-.66,1.17-1,1.8.09.31.21.7.3,1.08-.08.69-.12,1.32-.17,2.01-.01.07-.03.2-.06.34-.32.14-.59.31-.88.45.16-1.31.3-2.65.52-3.96.33-.85.67-1.7,1-2.54-.34-1.23.61-2.51,1.05-3.83.26-1.27.51-2.53.76-3.73.93-.99,1.59-2.21,2.15-3.53.3-.65.55-1.33.92-1.95.38-.61.8-1.19,1.28-1.69.05-.31.08-.54-.01-1.65-.09.02-.19.13-.28.15.01-.08.04-.23.03-.33.16-.33.32-.65.48-.97,1.24-1.21,2.6-2.27,3.85-3.38.24-.3.47-.61.72-.9.26-.28.53-.56.79-.84.87-1.12,1.69-2.18,2.52-3.24.34-.35-.18-.67,1.71-1.68.07-.03.21-.07.3-.07.1.13.22.29.33.42.43-.12,1.77-1.44,1.91-.78.5-.52,1.15-.94,1.76-1.38.6-.44,1.17-.88,1.61-1.34.49.04,1.54-1.29,1.75-.78.53-.32.94-.56,1.41-.84.05-.51,1.69-1.36,1.45-.74-.09.14-.22.34-1.28,1.07Z"/>
        <path class="cls-6" d="M31.46,26.21c-.71.61-1.36,1.17-2.08,1.77-.04-.04-.07-.09-.09-.11.73-.59,1.42-1.1,2.17-1.66Z"/>
        <path class="cls-6" d="M25.61,27.98c-.46.38-.37.82-1.35,1.74-.48.47-1.09.94-1.56,1.42-.59.79-1.17,1.59-1.75,2.38.14.12.3.26.44.37l-1.38,1.62c-.46.54-.84,1.15-1.25,1.72-.42.71-.88,1.49-1.29,2.2-.25.38-.53.82-.78,1.19-.32.06-.64.13-.99.25-.35.59-.52,1.11-.89,2.03.16.1.36.21.52.31-.08.91-.12,1.82-.18,2.71-.19.4-.3.92-.41,1.35-.17.25-.31.43-.42.61-.43.21-.83.43-1.23.58-.39.9-.34,1.57-.79,2.44-.33.35-.64.79-.88,1.19-.24-.34-.48-.67-.69-1,.14-.36.28-.72.42-1.07-.25-.77-.49-1.56-.72-2.36.03-.07.09-.21.15-.36l.98-2.4c.57-1.03,1.13-1.97,1.7-2.91.7-1.22,1.36-2.45,2.16-3.51,1.16-.79.64-1.64,1.46-2.69.45-.49.88-1.01,1.38-1.48.5-.46,1-.92,1.49-1.37.1-.12.2-.24.25-.3.42-.75.9-1.57,1.36-2.3.49-.49,1.13-.94,1.72-1.43.25-.63,1.14-1.26,1.8-1.79l.75.84Z"/>
        <path class="cls-6" d="M14.71,51.51c-.26.6-.42,1.21-.59,1.81-.17.61-.34,1.21-.51,1.84-.25.9-.48,1.73-.73,2.64-.22-.06-.41-.12-.6-.17.25-.91.49-1.76.74-2.67.2-.62.39-1.23.58-1.83.19-.61.38-1.21.66-1.8l.45.18Z"/>
        <path class="cls-6" d="M7.27,68.43c-.1.97-.03,1.96,0,2.95.04,1,.08,2.01.12,3.01-.43.07-.51,1.8-1.02,1.5-.07,0-.13,0-.16,0-.92-2.06.23-3.48-.23-5.69.11-.78.33-1.47.53-2.24.25.19.51.29.76.47Z"/>
        <path class="cls-6" d="M26.23,114.88c.51.23,1.1.51,1.6.74.49.64,1.04,1.32,1.56,1.94,0,.08.07.21.16.33-1.42-.4-2.56-1.87-3.6-2.88-.37-.22-.74-.43-1.1-.64-.34-.24-.68-.48-1.04-.72-.65-.84-1.35-1.74-1.95-2.61.26-.25.88-.16,1.55.51.95,1.16,1.79,2.34,2.82,3.34Z"/>
        <path class="cls-6" d="M44.71,123.05c.82.43,1.54.9,2.42,1.25-.1.09-.19.18-.37.34-.95-.39-1.93-.9-2.85-1.33.29-.07.52-.18.81-.25Z"/>
        <path class="cls-6" d="M42.05,125.28c1.29.28,2.3.61,3.15.95.84.36,1.59.59,2.24.86l1.89.41c.98.25,1.83.58,2.83.74.47.17.86.32,1.24.49-.1.11-.22.24-.32.35-.24-.03-.5-.04-.76-.05-.89-.18-1.74-.49-2.6-.78-.86-.29-1.72-.59-2.58-.88-.6-.13-1.18-.25-1.73-.4-.53-.17-1.04-.35-1.49-.53-.9-.36-1.58-.73-1.87-1.16Z"/>
        <path class="cls-5" d="M106.88,110.68c.41-.39.82-.77,1.23-1.15.47-.43,1.04-1.05,1.36-1.33.61-.71.84-.88,1.29-1.37.61-.72,1.22-1.44,1.85-2.17.14-.14.32-.36.5-.57.33-.47.67-.94,1-1.4.41-.58.79-1.1,1.21-1.68.46-.56.8-1.21,1.19-1.84.66-1.17,1.71-2.84,2.16-3.7.15-.33.28-.61.43-.95.03-.1.06-.19.08-.28.15-.33.31-.65.45-.97.31-.64.62-1.28.93-1.92.23-.44.33-.86.48-1.25.46-1.27.89-2.46,1.32-3.65.06-.17.1-.3.16-.46.24-.93.49-1.93.73-2.87.02-.09.04-.19.06-.28.05-.2.1-.39.17-.66.14-.65.09-.2.46-1.99.15-1.02.3-1.97.45-3,.01-.08.03-.23.05-.31.02-.12.04-.23.05-.3.12-.77.26-1.6.27-2.38,0-.13.01-.28.02-.42-.01.28-.03.57-.04.85-.02.2,0,.41-.05.68-.02.15-.05.34-.08.52l.03-.15c-.02.11-.04.27-.06.43-.05.38-.1.67-.15,1.04-.03.19-.06.37-.09.62l-.27,1.73c-.09.49-.11.92-.23,1.39l-.13.5c-.17.68-.33,1.31-.5,2-.13.54-.27,1.07-.4,1.6-.13.54-.26,1.07-.47,1.58-.27.78-.55,1.56-.84,2.41.24-.66.47-1.28.7-1.9-.19.54-.33.95-.58,1.67-.35.92-.6,1.77-.97,2.62-.39.85-.79,1.73-1.3,2.82-.33.67-.62,1.44-1.01,2.08-.38.69-.75,1.28-1.17,2-.44.76-.93,1.74-1.56,2.65-.64.9-1.29,1.8-1.79,2.57-.37.52-.71,1.03-1.08,1.52-.4.47-.8.94-1.21,1.42-.29.36-.63.78-.91,1.13-.22.24-.44.49-.61.68-.37.45-.73.9-1.16,1.3-.53.47-1.1.99-1.63,1.46-.13.08-.25.14-.42.26.84-.86.86-.91,1.53-1.56.65-.84-2.02,1.83-2.98,2.52.44-.47.92-.86,1.53-1.54Z"/>
        <path class="cls-6" d="M108.11,109.52c.47-.43,1.04-1.05,1.36-1.33-.33.28-.89.9-1.36,1.33Z"/>
        <path class="cls-6" d="M111.06,108.17c.22-.43.44-.86.72-1.35.43-.5.79-.95,1.16-1.4.36-.45.65-.96,1.04-1.49.48-.73.93-1.42,1.39-2.11.82-1.15,1.13-1.86,1.44-2.4.39-.68.75-1.3,1.11-1.93-.44.85-.53,1.03-1.09,2.12.06-.09.12-.18.14-.2-.24.47-.47.93-.7,1.39-.27.44-.54.88-.81,1.32-.31.47-.63.95-.94,1.42-.06-.09-1.25,1.92-1.9,2.61-.38.51-.76,1.03-1.14,1.54-.17.2-.3.34-.42.49Z"/>
        <path class="cls-6" d="M112.6,104.65c.38-.53.8-1.13,1.18-1.67.09-.13.16-.24.22-.32.18-.28.34-.53.49-.78.37-.52.81-1.08,1.2-1.67.11-.17.21-.35.32-.52.39-.63.8-1.31,1.19-1.93.45-.76.91-1.44,1.31-2.22.46-.98.2-.55.94-2.04.23-.48.46-.95.7-1.43.17-.36.38-.8.55-1.16.08-.22.15-.38.21-.54.15-.44.34-.96.49-1.39.3-.82.6-1.62.87-2.37.09-.25.18-.49.26-.73.06-.25.13-.49.19-.74.13-.49.25-.98.38-1.49.06-.24.14-.52.22-.82-.02.09-.04.19-.06.28-.24.94-.5,1.95-.73,2.87-.06.17-.1.3-.16.46-.43,1.19-.87,2.39-1.32,3.65-.15.39-.25.81-.48,1.25-.31.64-.62,1.28-.93,1.92-.15.31-.3.64-.45.97-.03.09-.06.19-.08.28-.15.34-.28.61-.43.95-.45.85-1.5,2.53-2.16,3.7-.39.63-.73,1.28-1.19,1.84-.42.58-.79,1.11-1.21,1.68-.33.47-.67.93-1,1.4-.18.21-.36.43-.5.57Z"/>
        <path class="cls-6" d="M118.15,97.4c.13-.24.23-.42.33-.6.32-.53.56-1.08.79-1.63.24-.55.48-1.1.72-1.67-.22.53-.41.99-.61,1.49-.23.52-.44,1.11-.82,1.75-.65,1.23-1.26,2.37-1.58,2.89.39-.74.77-1.47,1.16-2.23Z"/>
        <path class="cls-6" d="M118.76,95.96c.45-1.08,1.04-2.36,1.52-3.44.24-.61.61-1.25.81-1.96l-.05.24c-.25.71-.58,1.37-.84,2-.53,1.15-1.04,2.39-1.62,3.51.07-.14.15-.26.18-.35Z"/>
        <path class="cls-6" d="M122.97,84.81c.14-.58.29-1.22.43-1.8.04-.14.07-.25.1-.37-.09.38-.17.74-.24,1.06-.24.93-.38,1.81-.69,2.72.2-.57.18-.67.4-1.6Z"/>
        <path class="cls-1" d="M80.36,123.29c.07-.33,1.16-.38,1.42-.58,1.43-.33,3.15-.62,4.79-1.09,1.62-.55,3.23-1.1,4.56-1.55,1.61-.74,3.22-1.48,4.77-2.18.18-.19.85-.55.91-.69,1.93-1.14,3.79-2.07,5.37-3.31.81-.59,1.6-1.16,2.39-1.74.76-.6,1.45-1.29,2.16-1.93.6-.53,1.22-1.09,1.87-1.66.61-.6,1.19-1.27,1.79-1.92.6-.65,1.2-1.31,1.79-1.96.56-.68,1.05-1.39,1.56-2.05.51-.61,1.07-1.38,1.59-2.08.5-.72.88-1.43,1.2-1.86.27-.51.85-1.43,1.35-2.22.52-.77.81-1.5.75-1.46.61-1.24,1.2-2.46,1.79-3.68.55-1.24.97-2.55,1.47-3.87-.12.25.47-1.23.6-1.67.29-1.12.48-1.82.87-3.33.59-1.91.77-3.76,1.17-6.19.04-.28.08-.55.14-.92.08-.47.07-.97.08-1.08.1-1.97.07-1.37.14-2.67.03-.55.06-1.11.09-1.67,0,.16-.02.3-.03.58.02-.33.03-.64.05-.95,0-.6,0-.11,0-.1-.09,1.7-.18,3.48-.27,5.26,0,.23-.05.66-.02.37-.23,1.48-.31,2.01-.52,3.4-.14.85-.23,1.61-.38,2.3-.18.68-.34,1.32-.51,1.96-.16.64-.33,1.27-.5,1.96-.09.34-.18.7-.28,1.07-.12.37-.27.75-.42,1.15.11-.22-.63,1.72-.88,2.44-.49,1.47-1.14,2.7-1.72,3.93-.6,1.21-1.1,2.45-1.87,3.62-.46.79-1.38,2.24-1.91,3.19-.55.81-1.43,1.87-1.98,2.71-1.17,1.77-3.28,3.9-4.99,5.8-.55.48-1.1.96-1.65,1.44-.39.33-1.13.94-1.51,1.41-.64.61-1.37,1.1-2.08,1.63-.42.28-1.22.81-1.57,1.21-.56.39-1.07.84-1.65,1.17-.57.34-1.13.67-1.68,1.01-.45.22-.91.48-2.04,1.28-.35.23-.73.43-1.17.65-1.44.59-2.88,1.21-4.33,1.76-.43.23-1.42.48-1.98.88-.38.13-.77.26-1.21.41-.5.11-1.41.39-1.92.73l-.59.14c-1.71.33-3.32.73-5.02.96Z"/>
        <path class="cls-6" d="M123.49,82.17c.14-.65.09-.2.46-1.99-.37,1.79-.32,1.35-.46,1.99Z"/>
        <path class="cls-6" d="M124.73,74.93c0-.13.01-.27.02-.34,0-.14.01-.26.02-.39,0,.78-.15,1.61-.27,2.38-.03.2-.06.4-.09.6.01-.08.03-.23.05-.31.1-.72.21-1.3.27-1.95Z"/>
        <path class="cls-6" d="M124.79,73.79c.02-.39.04-.73.06-1.12-.03.68-.07,1.36-.1,1.96.01-.28.03-.56.04-.85Z"/>
        <path class="cls-2" d="M116.83,99.6c.56-1.08.65-1.27,1.09-2.12.21-.38.45-.81.66-1.18.07-.14.15-.26.18-.35l.64-1.4c.27-.61.73-1.66.8-1.77-.03.09-.05.16-.07.23-.28.65-.74,1.66-.82,1.86-.2.44-.39.98-.68,1.48-.28.51-.57,1.04-.86,1.59l-.8,1.44s-.08.11-.14.2Z"/>
        <path class="cls-2" d="M122.34,86.58c.21-.51.34-1.05.47-1.58.13-.53.27-1.07.4-1.6.17-.69.33-1.31.5-2l.13-.5c.13-.47.15-.9.23-1.39l.27-1.73c-.18,1.07-.28,2.15-.51,3.22-.24.98-.49,1.99-.65,2.64-.31,1.18-.52,2.32-.98,3.46-.23.62-.46,1.23-.7,1.9.3-.84.57-1.62.84-2.41Z"/>
        <path class="cls-5" d="M120.2,92.79c.26-.62.59-1.29.84-2l.05-.24.53-1.55c.32-.93.64-1.86.97-2.85.02-.07.08-.19.1-.33.17-.68.33-1.36.5-2.05.07-.32.14-.61.2-.89-.02.07-.04.13-.05.19.21-.9.45-1.78.62-2.6,0,.06,0,.13-.03.19-.02.11-.05.22-.07.33.02-.07.03-.13.05-.19.3-2.08.56-3.92.72-4.97.17-.89.13-1.79.19-2.69.03-.53.05-1.12.08-1.65v.24c-.05.76-.08,1.61-.11,2.28-.03.41-.02.85-.08,1.3-.06.45-.13.92-.2,1.4-.13.96-.27,1.96-.4,2.91-.12,1.1-.25,1.44-.61,3.01-.03.13-.06.24-.1.37-.14.58-.29,1.23-.43,1.8-.23.93-.2,1.03-.4,1.6-.02.06-.07.19-.09.26-.22.65-.43,1.29-.63,1.87-.03.08-.05.14-.09.23-.23.68-.46,1.36-.68,2.03-.23.67-.55,1.29-.82,1.92-.05.12-.11.25-.14.31.02-.08.04-.15.07-.23Z"/>
        <path class="cls-2" d="M122.7,85.84c.2-.85.25-1.06.65-2.75.02-.06.03-.12.05-.19-.07.29-.13.57-.2.89-.17.68-.33,1.36-.5,2.05Z"/>
        <path class="cls-2" d="M123.94,80.67c.02-.06.02-.13.03-.19.07-.52.14-.98.21-1.49.08-.54.17-1.14.25-1.69.12-.85.18-1.23.31-2.13.02-.23.02-.38.03-.54,0,.47-.09.93-.15,1.39,0-.07.02-.13.03-.19-.15,1.05-.42,2.89-.72,4.97-.02.06-.03.12-.05.19.02-.11.05-.23.07-.33Z"/>
        <path class="cls-5" d="M17.45,39.43c.42-.71.88-1.49,1.29-2.2-.42.71-.88,1.49-1.29,2.2Z"/>
        <path class="cls-5" d="M15.3,43.22c-.16-.1-.35-.21-.52-.31.37-.92.55-1.44.89-2.03.35-.13.67-.2.99-.25l-1.37,2.59Z"/>
        <path class="cls-5" d="M49.48,122.48c.19.08.39.15.65.26.59.23,1.23.49,1.82.72.13.24.2.45.26.67l-3.32-1.06c-.34-.2-.74-.44-1.08-.65.54.02,1.13.04,1.67.07Z"/>
        <path class="cls-5" d="M76.8,125.98c.36-.21,1.18-.55,3.39-.69.92-.17,1.68-.44,2.38-.68.7-.23,1.32-.43,1.92-.62.6-.18,1.18-.36,1.78-.54.6-.18,1.2-.46,1.88-.7.49-.13.98-.26,1.47-.39-.34.15-.73.43-1.09.64-.63.26-1.26.51-1.89.77l-1.96.59c-1.32.37-2.62.83-3.94,1.11-.06,0-.18-.01-.31,0-1.18.21-2.45.44-3.69.66l.07-.14Z"/>
        <path class="cls-5" d="M90.61,121.82c.92-.31,1.85-.78,2.71-1.22.16-.28,1.62-.83,2.17-1.22l.99-.45c.32-.16.63-.35.94-.53-.31.21-.56.4-.79.57-.25.15-.49.3-.76.47-.56.34-1.29.75-2.66,1.41-.45.24-.89.53-1.51.79-.5.16-1,.32-1.5.48.16-.12.32-.23.41-.32Z"/>
        <path class="cls-5" d="M103.03,113.94c.51-.4,1.06-.84,1.57-1.25.09-.03.17-.06.21-.05-.1.14-.62.61-1.84,1.45.02-.04.04-.1.06-.15Z"/>
        <path class="cls-5" d="M124.17,79c.09-.62.18-1.23.26-1.85l.3-2.08s0,.06,0,.1c-.13.9-.18,1.28-.31,2.13-.08.54-.17,1.15-.25,1.69Z"/>
        <path class="cls-1" d="M15.46,77.22c0,.2-.04.41-.04.68,0-.27.03-.48.04-.68Z"/>
        <path class="cls-1" d="M41.07,121.05c0-.09-.05-.21-.11-.34.06.13.12.25.11.34Z"/>
        <path class="cls-1" d="M66.01,123.87c.73-.35,1.94-.03,2.44-.15.12-.08,1.91,0,1.51.29.65-.09,1.16-.15,1.74-.23.68-.03,1.51.06,1.99-.08,0-.14.9-.04,1.31-.08-.08.31,1.48-.02,2.15.03-.01.14-1.38.36-1.76.47-.91.08-1.77.16-2.69.25-.15.03-.3.05-.39.08l-2.44-.28c-1.28-.1-2.57-.2-3.85-.3Z"/>
        <path class="cls-6" d="M14.85,47.35c.51-.08.93-.27,1.32-.47.15-.33.33-.65,1.22-1.71.08.05.16.1.25.14-.23.77-.59,1.55-.77,2.33-.47.64-.94,1.29-1.41,1.94-.23-.74-.42-1.47-.61-2.21Z"/>
        <path class="cls-6" d="M14.71,47.28s.09.04.14.07c-.06-.03-.12-.05-.14-.07Z"/>
        <path class="cls-6" d="M124.58,76.11c.02-.16.05-.31.06-.43-.02.11-.04.27-.06.43Z"/>
        <path class="cls-5" d="M103.57,115.94c1-.89,2.12-1.75,3.06-2.71-.34.54-.8.91-1.32,1.36-.94.89-1.21.91-1.74,1.34Z"/>
        <path class="cls-1" d="M77.15,123.65c1.29-.43,2.43-.43,3.21-.36-.3.09-.76.36-1.72.39-.5,0-.99-.02-1.49-.03Z"/>
      </g>
    </g>
  </g>
  <path id="desssin" class="cls-3" d="M105.82,60c-6.66-4.5-13.31-9.01-19.97-13.5-5.4-3.64-10.83-7.24-16.24-10.87-.8-.53-1.57-1.11-2.24-1.59.04-.29.11-.49.1-.69-.02-.39-.07-.77-.13-1.16-.02-.12-.08-.26-.17-.35-.31-.33-.64-.64-.94-.98-.23-.26-.47-.46-.84-.48-.3-.01-.59-.03-.93-.05-.05.36-.09.7-.14,1.09-.13-.1-.21-.17-.3-.24-4.65-4.09-13.78-12.16-13.8-12.12s-.18.06-.58.26c3.24,2.84,6.48,5.68,9.72,8.52,1.58,1.38,3.15,2.77,4.72,4.15.46.41.56.86.31,1.4-.41.9-.4,1.77.15,2.61.3.46.28.94.16,1.46-.13,0-.24-.01-.35-.02-.55-.02-.72.19-.55.72.1.3.24.59.36.89.14.34.12.63-.2.89-.13.11-.24.38-.2.52.14.42.37.81.56,1.21.07.15.14.31.13.47-.09,1.6-.19,3.2-.29,4.8-.02.32-.08.63-.12,1-.21-.08-.38-.13-.51-.21-.29-.18-.57-.23-.91-.16-.48.1-.98.15-1.43-.15-.07-.05-.17-.05-.26-.05-.23-.02-.47-.02-.7-.04-.28-.03-.52-.03-.6.33-.09.38-.22.42-.67.32-.4-.09-.56-.3-.53-.63.03-.29.06-.6.03-.89-.01-.14-.12-.32-.25-.39-.2-.12-.23-.24-.19-.45.04-.23.07-.49,0-.71-.45-1.55-1.41-2.58-2.99-3.11-.83-.28-1.43-.1-2.06.34-.44.3-.89.6-1.3.95-.22.19-.43.45-.51.71-.31,1.01-.35,2.04-.12,3.08.05.22.03.46,0,.69-.05.51-.14,1.01-.18,1.52-.01.14.07.29.12.49.16-.13.25-.23.35-.28.08-.04.21-.06.27-.02.37.24.34.88-.03,1.12-.27.18-.58.37-.74.63-.32.52-.59,1.09-.83,1.65-.24.58-.39,1.2-.82,1.69-.08.09-.12.22-.14.35-.21,1.24-.43,2.47-.6,3.71-.11.83.3,1.5.79,2.13.34.44.78.82.79,1.46,0,.23.19.46.31.68.16.29.35.56.51.85.05.09.08.24.04.34-.41,1.05-.21,2.05.26,3.01.21.43.51.82.77,1.23.02.04.05.08.06.12.16.67.34,1.33.47,2,.08.45.12.51.58.44.11-.02.23-.04.34-.06.32-.06.34.23.42.4.04.08-.06.28-.16.34-.76.5-.66,1.21-.2,1.8.06.08.14.2.13.29-.03.34-.06.69-.14,1.02-.22.89-.47,1.77-.69,2.65-.1.43-.13.87-.6,1.09-.05.02-.04.16-.06.25.2.03.4.09.59.06.07-.01.14-.22.17-.35.06-.26.09-.54.16-.8.26-.95.53-1.89.8-2.84.04-.16.09-.31.13-.47.1.14.12.27.15.41.12.54.2,1.08.36,1.6.16.53.44,1.02.92,1.33.49.32,1,.6,1.5.9.51.3.63,1.04,1.31,1.14.13.48.6.6.9.9.48.47.81,1.09,1.21,1.64.16.21.36.4.54.6.07.08.14.17.19.27.1.18.19.37.26.57.04.12.07.32.01.37-.31.24-.35.56-.35.92,0,.2-.06.42-.14.61-.15.37-.35.71-.48,1.09-.17.48-.19,1.05-.44,1.47-.63,1.04-.73,2.22-.99,3.36-.15.64-.18,1.3-.25,1.96-.01.11-.04.25,0,.34.2.39.09.77,0,1.16-.05.24-.09.54.19.68.41.21.38.53.39.92.03.74-.36,1.5.05,2.24.03.05.02.11.02.17,0,.55,0,1.1,0,1.65,0,.2-.05.32-.29.23-.21-.08-.35.03-.44.21-.12.26-.24.52-.35.78-.19.42-.37.85-.57,1.27-.29.59-.23,1.01.26,1.44.39.35.85.63,1.21,1.01,1,1.06,2.24,1.66,3.63,1.95.56.11,1.16.1,1.74.1.14,0,.37-.15.39-.25.09-.53.13-1.07-.35-1.49-.33-.3-.63-.63-.92-.97-.12-.14-.22-.33-.28-.51-.12-.38-.21-.77-.31-1.16-.02-.08-.01-.18.01-.27.12-.4.09-.6-.16-1.01.06.27.1.49.15.72-.4-.11-.41-.22-.4-.6.03-.68.12-1.4-.06-2.03-.24-.86-.3-1.71-.29-2.58,0-.27.1-.54.18-.79.27-.83.56-1.66.84-2.49.03-.1.04-.2.05-.3.08-1.15.42-2.24.75-3.34.4-1.35.74-2.71,1.12-4.06.07-.25.14-.51.27-.73.37-.62.49-1.28.59-1.98.2-1.36-.68-2.44-.9-3.68-.08-.43-.31-.83-.47-1.24-.07-.19-.01-.3.18-.4.48-.26.99-.25,1.5-.2.35.04.65.16.87.55.23.4.62.71.98,1.02.31.27.66.49,1,.71.19.12.39.22.58.34.2.12.45.21.6.38.61.74,1.29,1.35,2.27,1.53.08.01.16.04.22.09.05.04.12.15.11.19-.17.36,0,.67.1.99.03.09.04.23-.01.3-.18.24-.13.49-.08.75.03.18-.02.36,0,.55.02.35,0,.71.09,1.05.11.44.18.87.06,1.32-.03.14,0,.29.02.44.07.52.19,1.04.21,1.56.01.37.09.68.38.91.35.28.42.63.35,1.04-.03.21-.08.43-.09.64,0,.13,0,.34.07.38.52.29.29.76.27,1.14-.01.23-.18.54-.37.65-.46.27-.7.66-.89,1.13-.11.29-.28.57-.49.8-.71.77-.64,1.57.26,2.12.54.33,1.12.61,1.69.91.74.38,1.5.75,2.05,1.42.87,1.06,1.95,1.83,3.2,2.37.46.2.98.33,1.48.38.62.06,1.09-.37,1.05-.95-.02-.38-.17-.79-.38-1.1-.28-.41-.7-.72-1.03-1.09-.37-.41-.78-.82-1.04-1.3-.33-.59-.7-1.12-1.19-1.58-.21-.2-.3-.58-.2-.89.12.28.23.54.37.87.05-.8-.21-1.25-.61-1.17-.24-.35-.49-.7-.72-1.05-.06-.09-.08-.22-.09-.33-.03-.51-.05-1.03-.06-1.54,0-.1,0-.23.07-.29.26-.25.27-.56.26-.89-.01-.3,0-.59.02-.89.02-.4.13-.74.4-1.07.18-.22.28-.57.26-.85-.06-.85.02-1.68.18-2.52.14-.71.21-1.45.23-2.17.04-1.12.02-2.24,0-3.36,0-.44-.07-.89-.13-1.33-.02-.15-.1-.37-.21-.41-.49-.19-.69-.65-1.02-.99-1.42-1.51-2.83-3.03-4.24-4.54-.41-.44-.82-.9-1.4-1.13-.13-.05-.25-.17-.32-.3-.24-.42-.6-.67-1.02-.88-.45-.22-.78-.53-.93-1.09-.35-1.33-.33-2.7-.48-4.05-.03-.31,0-.62,0-.91.29.07.54.16.79.17.37.01.58-.25.71-.56.11-.26.12-.51-.09-.73-.34-.35-1.15-.49-1.62-.26-.18-.21-.36-.42-.55-.64-1.18-1.33-2.36-2.65-3.52-3.99-.15-.17-.23-.44-.27-.67-.08-.54-.1-1.09-.17-1.64-.1-.79-.05-1.53.51-2.16.18-.2.24-.44.22-.73-.03-.39.24-.68.5-.7.44-.03.88-.07,1.31-.17.63-.15,1.25-.38,1.88-.53.91-.22,1.67-.64,2.17-1.45.12-.19.25-.49.19-.66-.26-.72-.34-1.46-.4-2.21,0-.09-.07-.17-.09-.26-.11-.49-.28-.98-.3-1.47-.03-.72-.24-1.33-.71-1.88-.24-.28-.39-.64-.59-.95-.06-.1-.14-.24-.24-.27-.52-.15-.73-.54-.85-1.02-.04-.16-.12-.37-.24-.43-.55-.27-.65-.78-.76-1.29-.15-.75-.02-1.52-.25-2.27-.15-.48-.26-.89-.77-1.07-.11-.04-.21-.1-.3-.17-.06-.04-.13-.12-.13-.18.03-.49-.04-1,.31-1.44.36-.46.53-1.01.52-1.6,0-.16.03-.33.05-.54.13.08.19.11.26.16,2.41,1.68,4.8,3.4,7.24,5.04,8.21,5.53,16.46,11.01,24.67,16.55,8.53,5.75,17.04,11.53,25.55,17.3v-.72c-2.98-2.02-12.86-8.7-18.26-12.35ZM69.76,64.69c.23.01.39.18.37.4-.01.12-.17.22-.26.33-.3-.05-.42-.16-.42-.38,0-.21.09-.37.32-.36ZM64.63,60.34c1.32,1.56,2.65,3.13,3.96,4.7.08.09.08.29.06.43-.04.27-.18.53-.19.79-.03,1.33-.21,2.68.3,3.97.01.03,0,.07,0,.1-.04.03-.07.06-.11.09-.11-.16-.29-.31-.32-.48-.12-.68-.62-.87-1.19-1.01-.11-.03-.23-.1-.3-.19-.33-.43-.61-.89-.97-1.29-.29-.32-.66-.56-.98-.85-.12-.11-.2-.26-.29-.39.11-.06.25-.1.32-.19.23-.33.47-.66.64-1.02.13-.28-.1-.5-.3-.67-.28-.25-.44-.56-.47-.92-.1-1.01-.18-2.02-.27-3.03l.11-.03ZM65.67,43.51s-.04.19-.1.26c-.2.24-.18.44.06.65.43.36.47.46.28,1-.11.3-.08.54.06.81.08.16.03.38.07.57.07.36.16.72.25,1.08.02.07.05.15.09.25-.61.32-1.17.2-1.71-.07-.07-.03-.11-.19-.11-.28.14-1.71.29-3.42.51-5.16.2.3.41.6.6.91ZM65.87,34.42c-.07.32-.13.64-.2.97-.08.39-.47.33-.73.47-.01,0-.13-.12-.12-.15.16-.5-.08-.92-.25-1.35,0-.01,0-.02-.01-.03-.24-.68-.16-.8.57-.79.9.01.91.03.74.89Z"/>
</svg>