<?xml version="1.0" encoding="UTF-8"?>
<svg id="markerSpeleo" xmlns="http://www.w3.org/2000/svg" xmlns:xlink="http://www.w3.org/1999/xlink" viewBox="0 0 151.1 232.71">
  <defs>
    <style>
      .cls-1 {
        fill: #d8e7f1;
      }

      .cls-1, .cls-2, .cls-3, .cls-4, .cls-5, .cls-6, .cls-7, .cls-8, .cls-9 {
        stroke-width: 0px;
      }

      .cls-10 {
        opacity: .9;
      }

      .cls-2 {
        fill: #7aaed0;
      }

      .cls-3 {
        fill: #0264a5;
      }

      .cls-4 {
        fill: #f2f7fa;
      }

      .cls-5 {
        fill: url(#Dégradé_sans_nom_11);
      }

      .cls-6 {
        fill: #93bdd9;
      }

      .cls-11 {
        fill: #000;
        font-family: Heaters, Heaters;
        font-size: 60.71px;
      }

      .cls-7 {
        fill: #fff;
      }

      .cls-8 {
        fill: #a9cae0;
      }

      .cls-9 {
        fill: #c0d9e9;
      }
    </style>
    <linearGradient id="Dégradé_sans_nom_11" data-name="Dégradé sans nom 11" x1="78.97" y1="81.16" x2="109.12" y2="81.16" gradientUnits="userSpaceOnUse">
      <stop offset="0" stop-color="#fff"/>
      <stop offset="0" stop-color="#1d1d1b" stop-opacity=".5"/>
      <stop offset="1" stop-color="#f4f4f4" stop-opacity="0"/>
    </linearGradient>
  </defs>
  <g id="contour">
    <path class="cls-7" d="M75.68,33.92c-27.98,0-60.63,18.72-60.63,66.36,0,32.33,46.64,103.8,60.63,122.51,12.44-18.72,60.63-88.48,60.63-122.51,0-47.64-32.65-66.36-60.63-66.36Z"/>
    <g class="cls-10">
      <g class="cls-10">
        <path class="cls-1" d="M133.39,111.11c.19.93-.3,2.33-.6,3.5-1.38,4.24-3.13,8.34-4.96,12.41-1.38,2.62-2.68,5.92-3.08,8.47-.6.73-1.14,1.39-1.75,2.12-1.39,3.39-2.85,6.76-4.46,9.82-.66,1.13-1.37,2.35-2.02,3.47-2.02,2.48-3.02,5.16-4.37,6.29-.56.86-.69,1.67-1.03,2.56-1.79,2.4-3.18,5.18-4,7-.67,1.01-1.3,1.94-1.94,2.97.03.02.09.06.14.1-2.63,4.44-5.25,8.78-7.96,13.17-1.81,2.39-2.7,3.47-2.96,4.44-.3.48-.65,1.03-.95,1.51l-1.95,3.1c-.86.86-1.66,1.66-2.53,2.54.25-1.11.51-2.21.76-3.32l1.93-3.11c.3-.48.64-1.03.94-1.51.5-.9,1.05-1.89,1.55-2.79.97-1.5,1.93-2.98,2.89-4.48-.17-.12-.36-.26-.53-.38.61-1.06,1.18-2.14,1.74-3.23l.67.49c.3-.24.63-.58.95-.91.47-.36,1-.79,1.46-1.14.72-1.21,1.39-2.33,2.06-3.46.38-.53.71-.98,1.1-1.51.11-.61.24-1.31.34-1.91,1.12-1.5,1.23-2.1.99-2.04-.14-.66-.93.27-1.31.23.14-.8.28-1.61.42-2.42.46-.59.91-1.17,1.4-1.74.81-1.35.5-2.35,1.08-3.62.77-1.05,1.54-2.09,2.36-3.21.44-.6.88-1.18,1.36-1.76.71-.86.29-1.35.77-2.14,2.64-4.77,5.17-9.6,7.57-14.46,1.25-1.92,1.76-2.81,1.87-3.57,1.78-3.82,3.48-7.66,5.05-11.61.98-1.93,1.73-4.55,2.45-6.84.87-.16,1.17-.54,1.43-.91.25.37.44.72.64,1.19.2.56.69-.82,1.02-.11.51-1.09.97-2.19,1.46-3.19Z"/>
        <path class="cls-4" d="M104.84,167.33c-.11.6-.23,1.31-.34,1.91-.39.53-.72.99-1.1,1.51-.67,1.13-1.34,2.25-2.06,3.46-.46.36-.99.78-1.46,1.14-.32.33-.65.67-.95.91l-.67-.49c.49-.68,1.03-1.44,1.49-2.14.92-1.4.68-1.91,1.12-2.51.22-.31.42-.5.59-.72.41-.97.79-1.95,1.16-2.93.5-.45.99-.79,1.49-1.24.14-.24.28-.48.42-.72.38.04,1.17-.89,1.31-.23.24-.06.13.55-.99,2.04Z"/>
        <path class="cls-1" d="M97.35,185.78c0,1.41-.08,1.71-.17,2.11-2.49,2.82-3.82,6.89-6.49,9.21-.69,1.48-1.46,3.02-2.22,4.58-.93,1.65-2.59,2.97-2.86,4.56l-1.13,1.44c-.37.48-.76.98-1.1,1.39-.88,1.38-1.76,2.78-2.64,4.16-.66.86-1.31,1.7-1.94,2.56-.38.55-.71,1.04-1.14,1.66-.24.67-.48,1.4-1.04,2.56,1.24-1.27,1.78-2.06,2.29-2.8.08.05.22.01.3.05l.22.82c-.59.99-1.18,1.98-1.77,2.99-.63.96-1.26,1.92-1.89,2.88l-.28-.28c-.48-.48-.98-.99-1.52-1.47-.24-.34-.49-.69-.75-1.05-.18-.27-.36-.54-.6-.89-.43-.87-.8-1.62-1.28-2.59-.81-.6-1.61-2.53-1.99-3.42-.14-.27-.29-.54-.48-.9-.76-1.21-1.62-2.59-2.43-3.89.89.72,1.64,2.1,2.65,3.53.2-.34.27-.46.34-.58.34.51.63.94,1.17,1.73.57.49,1.13.94,1.6,1.27.3-.28.53-.66.74-1.07.03-.18.05-.33.08-.51.27.06.66.4,1.05.87.44.6.9,1.28,1.19,1.96.1-.03.17,0,.22.1.15-.17.28-.24.4-.31.27.05.58-.03.89.01.41-.86.85-1.78,1.26-2.65-.22,0-.41-.1-.58-.18,0-.43-.05-.8-.06-1.21-.02-.35.21-1.01.29-1.49.08-.48.01-.77-.48-.55.05-.35.08-.65.1-.94.36-.3.75-.69,1.12-1.07.68-1.19-.22-1.45-.31-2.38-.18.26-.34.48-.54.77-.31.13-.64.22-.91.28l-.3.42-.18.25c-.41,1.11-.77,1.45-.93,2.33-.16.05-.31.09-.45.13-.07-.16-.14-.33-.21-.5-.16-.09-.31-.28-.44-.63-.37-.71-.53-1.58-1.02-1.51,0,.03-.02.1-.04.17-.27-.13-.56-.3-.91-.52-.18-.27-.33-.51-.62-.94-.35-.22-.7-.45-1.02-.65-.03-.13-.08-.27-.13-.4-.03-.07-.06-.13-.09-.2l-.03-.05-.07-.11-.14-.21c-.39-.57-.8-1.17-1.19-1.74-.78-1.15-1.46-2.21-1.45-2.83l.88-.43c.26.38.52.77.73,1.08.89.33,1.68,1.33,2.38,2.29.24.34.48.66.67.94.08.09.17.14.31.08.2.13.2.47,0,.85.24.48.52.94.8,1.46.18-.09.33-.23.47-.37.16.29.34.49.52.71.14.32.28.46.43.78.22-.13.45-.05.76.4.18-.2.33-.67.6-.36,0-.43-.03-.81-.07-1.19.08-.11.13-.45.21-.67.09-.23.22-.34.56-.13.07-.09.12-.16.16-.23.02-.27.07-.45.13-.59.03-.17.09-.29.2-.37.08.07.29-.14.48-.3.19-.17.39-.35.58-.51.39-.33.75-.6,1-.63.13.4-.1.9-.38,1.44-.13.26-.3.57-.4.8-.05.12-.07.24-.04.4.12-.02.25-.04.38-.06.07-.03.12,0,.22-.07l.28-.21c.38-.28.76-.57,1.14-.86,1.24-.19,2.02-1.61,2.84-2.85.41-.41.87-.86,1.3-1.24.72-.97.9-1.79,1.57-2.8.45-.12.93-.33,1.44-.54-1.47,2.64-.63,3.08-1.22,4.17-.95,1.4-1.85,2.71-2.8,4.11-.33.51-.65,1.01-.97,1.5-.16.25-.32.49-.48.74-.13.19-.27.37-.4.56-.83,1.48-1.63,2.9-2.46,4.38,1.59-1.89,2.56-3.02,2.89-3.99.14-.2.28-.4.42-.59.16-.25.32-.5.48-.74.32-.49.64-.99.98-1.5.92-1.42,1.79-2.76,2.71-4.19.46-.7.97-1.5,1.48-2.29.72-.74,1.44-1.49,2.17-2.24.49-.93,1.02-1.94,1.47-2.9,1.72-2.57,3.49-5.23,5.21-7.92.02-.1.07-.3.06-.42.11.08.19.14.28.2Z"/>
        <path class="cls-4" d="M71.52,205.38c-.31-.23-.53-.47-.68-.7-.17-.23-.32-.45-.47-.66-.18-.26-.35-.51-.52-.76-.12-.45-.48-1.2-.3-1.3.46.52.86.99,1.2,1.41.27.34.51.63.73.9.15.22.25.4.31.6-.09.31-.18.41-.26.51Z"/>
        <path class="cls-1" d="M45.46,173.84c-.7-1.31-1.4-2.63-2.1-3.95-.43-1.31-1.48-2.97-2.28-4.38-.84-1.5-1.63-2.92-2.47-4.42-.79-1.59-1.57-3.17-2.36-4.75-.53-1.09-1.05-2.17-1.58-3.27l-1.31-2.77c-.51-1.1-1.02-2.2-1.53-3.29-.23-.51-.5-1.1-.73-1.61-.16-.49-.35-1.07-.52-1.57-.69-1.36-1.33-2.75-2-4.12-.42-.86-.79-1.64-1.16-2.5-.79-1.81-1.56-3.61-2.26-5.35-.22-1.82-2.01-4.58-2.78-7.86-.45-1.08-.89-2.08-1.29-3.09-.27-1.11-.55-2.23-.81-3.26-.28-.82-.51-1.46-.76-2.21-.17-.77-.31-1.38-.46-2.08-.29-1.09-.34-1.91-.12-1.95-.32-.87-.61-1.56-.87-2.37-.15-.8-.3-1.61-.45-2.41-.12-.8-.2-1.59-.3-2.35,0-.17.01-.32.02-.39-.15-.86-.12-1.71-.2-2.58-.08-.85-.07-1.75-.06-2.65,0-.9,0-1.8,0-2.69.04-.89.08-1.78.12-2.67-.04-.54-.16-1.16-.14-1.65.03-.27.06-.55.09-.82.11-.68.23-1.36.34-2.05.1-.89.18-1.57.25-2.24.17-.99.29-1.76.37-2.39.1-.63.18-1.11.23-1.54.11-.85.13-1.47.32-2.46.22-.92.44-1.84.63-2.66.29-.9.77-2.17,1.18-3.55.45-1.36.96-2.77,1.38-3.92.12-.15.26-.31.38-.46.48-1.09.9-2.2,1.44-3.25l.97-1.83c.3-.59.6-1.16,1.06-2.06,0-.04,0-.09,0-.15.34-.7.76-1.35,1.16-2.02.19-.29.44-.65.68-1.02.3-.53.71-1.11,1.04-1.63.48-.7.96-1.38,1.48-2.01.52-.64,1.01-1.32,1.58-1.95,1.49-1.96,4.13-4.35,5.87-5.97.88-.69,1.61-1.25,2.48-1.93.84-.58,1.72-1.26,2.59-1.79,2.72-1.77,4.55-2.81,7.01-3.92.96-.41,1.47-.68,2.2-1.01,1.55-.61,3.02-1.18,4.62-1.68.32-.19,2.25-.69,3.57-1.07,1.45-.34,2.89-.68,4.36-.92.34-.05.59-.1.85-.14-.05.04-.02.07.02.1-.83.17-1.66.35-2.49.52-.69.15-1.29.32-1.99.49-1.12.24-2.31.64-3.52.97-2.29.78-2.47.87-3.6,1.32-.17.07-.34.13-.43.17-1.33.49-2.53,1.09-3.74,1.64l-1.98,1c-.87.47-1.71,1-2.48,1.45-1.36.84-2.97,1.84-4.18,2.86-.63.45-1.23.95-1.82,1.46-.38.3-.75.59-1.14.9-.37.33-.75.66-1.15,1.01-1.29,1.18-1.87,1.89-2.61,2.67-.75.81-1.4,1.68-2.16,2.57-1.11,1.36-1.87,2.42-2.85,3.85-.35.51-.68.92-1,1.43-.21.42-.45.9-.69,1.38-.49.76-.87,1.48-1.29,2.28-.27.52-.54,1.01-.8,1.51-.24.51-.47,1.02-.72,1.55-.22.47-.43.94-.64,1.41-.19.48-.37.95-.56,1.42-.19.47-.37.94-.55,1.4l-.48,1.42c-.24.93-.59,1.98-.87,3.15-.31,1.15-.66,2.38-.93,3.64-.14.62-.29,1.25-.43,1.87-.11.63-.22,1.24-.32,1.84-.1.6-.19,1.18-.28,1.74-.06.56-.1,1.1-.14,1.59-.25,1.96-.36,3.93-.48,5.91-.04.99-.04,1.99-.07,2.99-.04,1-.02,2.01,0,3.02.01.69.03,1.39.04,2.09,0,.71.11,1.33.15,2,.06,1.31.35,2.68.54,4.01.26,1.35.56,2.69.87,4.01.37,1.32.67,2.61,1.07,3.85.12.43.24.86.34,1.2-.11.11-.19.22-.34.23-.04.21.14.74.28,1.26.26.43.6,1,.79,1,.53,1.22.91,2.27,1.23,3.18.35.91.64,1.69.96,2.36.27.77.56,1.62.86,2.38-.38-.11-.74-.22-1.12-.34-.14-.12-.3-.33-.44-.45-.49-1.39-1.06-2.86-1.49-4.17-.43-1.24-.84-2.45-1.26-3.65-.37-1.21-.74-2.41-1.11-3.6-.12-.53-.26-1.14-.38-1.66-.19-.94-.41-1.98-.54-2.92-.19-.85-.41-1.71-.57-2.56-.14-.85-.28-1.7-.41-2.55-.07-.65-.07-1.27-.11-1.89-.03-.63-.09-1.23-.06-1.93-.03-1.31-.16-2.68-.26-4.22-.13.92-.18,1.95-.27,2.88.01,1.02,0,2.07.09,3.02.05.63.1,1.17.15,1.8.02.26.06.53.09.79l.16,1.32c.05,1.52.32,2.6.46,3.49.15.89.33,1.59.49,2.36.02.09.06.27.1.44.29,1.09.61,2.26,1.01,3.44.23.94.41,1.9.73,2.94.48,1.26.91,2.52,1.45,3.86.03.08.09.26.15.44.04.62.07,1.18.11,1.88.3.18.63.44.93.62.02,0,.06.02.1.03.2.61.41,1.12.63,1.73,1.68,5.73,3.67,7.89,5.37,12.4.79,1.31,1.12,2.15,1.55,2.85.05.39.07.79.13,1.18.41.54.83,1.08,1.29,1.69.47,1.1.9,2.09,1.37,3.17.27.19.5.3.77.5.57,1.1,1.09,2.11,1.65,3.19-.03.39-.06.76-.09,1.15-.02,0-.07,0-.12-.01-.69-1.33-1.35-2.68-2.02-4.02-.24-.04-.47-.07-.69-.1,1.16,2.11.79,3.41,2.12,4.44.73,1.82,1.16,2.1,1.46,2.76.43.84.87,1.59,1.3,2.42,1.17,1.77,1.29.52,2.62,2.92.26.49.51.99.81,1.56-.1,0-.23-.02-.35-.03-.42-.35-.78-.62-1.15-.88.48,1.38.4,1.93,1.44,3.92.74,1.25,1.43,2.4,2.11,3.55.27.42,1.03,1.02,1.41,1.99.66,1.23,1.28,2.38,1.95,3.61.03.48.04.96.09,1.53-.6-.81-1.16-1.56-1.78-2.4Z"/>
        <path class="cls-4" d="M22.56,117.42c-.19,0-.53-.58-.79-1-.14-.52-.32-1.05-.28-1.26.15-.01.24-.13.34-.23.25.86.47,1.73.73,2.5Z"/>
        <path class="cls-9" d="M88.06,33.74c.66.11,1.24.17,1.81.29,2.9.59,2.76.55,2.8.5.95.21,1.83.35,2.79.6,1.01.3,2.15.58,3.16.93,3.62,1.17,4.02,1.67,6.51,2.53,1.08.34,2.03.88,3.06,1.4,1.01.56,2.06,1.17,3.32,1.75,1.3.8,2.33,1.46,3.18,2.09.86.61,1.61,1.11,2.35,1.58.4.29.73.53,1.13.83.66.46,1.26.99,1.89,1.49,1.02.61,1.34.85,2.47,1.77.26.4.51.81.68,1.16.61.55,1.14,1.14,1.72,1.72.73.87,1.2,1.49,1.55,1.96.36.47.6.78.83,1.1.81,1.01,1.42,2.04,2.16,3.11,1.88,2.09,4.23,5.93,4.98,7.8.04.5.7,1.45,1,2.2,1.05.89.63,1.9,1.31,3.17,1.6,4.36,2.83,9.51,4.07,14.45.18.79.28,1.58.41,2.37-.11.8-.09,1.67,0,2.59.06.92.18,1.9.33,2.9.32,1.99.5,4.08.32,5.94.05,1.16-.03,2.47-.1,3.77-.13,1.29-.34,2.6-.52,3.94-.24,1.32-.52,2.64-.74,4-.28,1.33-.55,2.67-.73,4.04-.84,1.92-1.83,4.38-2.25,6.75-.63,2.09-1.39,4.09-2.14,6.21-2.84,5.29-4.92,11.37-7.31,15.41-4.67,9-9.84,19.15-15.09,27.28-.5.24-.87,1.25-1.31,1.86.35,1.06-.79.96-1.43,2.36-2.17,3.8-5.31,8.07-6.71,11.4-.16.24-.31.48-.47.72-.52.55-1.01,1.13-1.51,1.71-.71,1.23-1.76,2.46-2.36,3.91-.52.78-1.04,1.57-1.51,2.29-1.18,1.59-1.81,2.18-2.05,3.06-3.21,4.58-5.67,7.81-7.73,11.24-.16.23-.33.46-.49.7-.15.22-.3.43-.45.64-.16.23-.31.46-.48.68-.34.44-.66.88-.99,1.34-.79,1.22-1.53,2.2-2.18,2.96-.65.76-1.22,1.34-1.72,1.88-1.01,1.08-1.7,1.92-2.45,3.77-.82,1.11-1.58,2.14-2.4,3.24-.29.35-.58.69-.83.99-.78-.51-1.41-1.06-1.99-1.4-2.24-3.75-3.82-6.28-5.77-9.32l-2.58-3.68-2.45-3.55c-1.12-2.17-1.69-3.04-2.24-3.93.06-.23.09-.46.17-.61-.45-.93-.94-1.95-1.39-2.88-1.17-.89-3.04-5.06-4.23-6.18-1.13-1.53-.33-1.64-1.65-3.1-.43-.57-1.12-1.54-1.39-1.54-.18-.32-.32-.57-.46-.81-.43-.49-.94-1.07-1.37-1.55-1.2-2.13-1.6-2.46-2.31-3.53-.25-.66-.47-1.31-.7-1.97-.84-.58-1.44-2.23-2.01-2.82-.54-.58-1.36-2.4-1.89-3.56-.69-1.33-1.39-2.65-2.08-3.98-.26-.5-.55-1.09-.81-1.59-.71-.53-1.22-1.78-1.49-2.44-.71-1.5-1.38-2.92-2.09-4.43-.66-1.18-.97-1.46-1.23-2.04-.23-.67-.48-1.33-.74-2-.26-.58-.65-.94-1.1-2.04-.36-.76-.76-1.61-1.16-2.46-.27-.5-.6-1.11-.88-1.62-.38-.77-.8-1.63-1.22-2.49-.12-.25-.23-.51-.35-.77-.83-.84-1.39-2.69-1.95-3.42-.02-.24-.06-.48-.1-.72-.38-.86-.72-1.63-1.08-2.5-.25-.68-.51-1.37-.76-2.05-1.37-2.72-2.46-6.06-3.87-9.28-.11-.03-.19-.05-.3-.08-.17-.37-.37-.81-.57-1.26-.44-1.16-.87-2.32-1.28-3.4-.04-.33-.07-.57-.1-.82l-.79-2.17c-.06-.02-.12-.05-.21-.08-.06-.18-.09-.27-.14-.45-.59-1.69-1.07-3.44-1.6-5.16-.2-1.13-.34-2.25-.53-3.37-.06-.11-.13-.3-.21-.5-.38-1.23-.67-2.39-.99-3.62-.22-.5-.53-2.42-.7-2.43-.03-.7-.09-1.38-.08-2.07-.03-1.33-.33-1.99-.43-2.42-.09-1.2-.02-2.39-.04-3.56.05-1.17.14-2.35.21-3.54.01-.28.02-.56.04-.83-.2-.82,0-2.14.12-2.84.06-.65.11-1.21.16-1.76-.12-.93.16-2.32.15-3,.16-1.06.44-2.11.66-3.17l.34-1.58.42-1.56c.13-.67.25-1.25.36-1.81.32-1.87.56-2.57.78-3.22.22-.87.54-1.71.81-2.58.28-.87.56-1.75.92-2.62.12-.72.63-1.95.96-2.56.53-1.1.99-2.22,1.56-3.3.25-.79.9-1.95,1.27-2.55.52-.85,1.05-1.71,1.58-2.57,1.86-3.01,4.42-6.23,6.39-8.37.85-1.1,2.25-2.37,3.24-3.29.52-.53,1.26-1.15,1.97-1.77.71-.61,1.45-1.13,1.93-1.54,3.07-2.32,5.97-4.21,9.82-6.03.91-.53,3.58-1.56,3.23-1.53,2.23-.86,3.94-1.46,5.67-2,1.73-.52,3.48-1.01,5.83-1.45,1.91-.39,2.61-.51,4.68-.8-.4.07.2.02.52.02,2.44-.3,4.9-.39,7.25-.42,0,.05-.02.1-.12.15-.15.04-.32.08-.47.12-.61.03-.84.04-1.56.08-.66.06-1.22.19-1.77.27.03.03-.03.07,0,.11-.59.04-1.29.07-1.88.14-1.09.08-2.2.14-3.28.29.22-.04.44-.08.58-.11-.04-.05-.09-.09-.22-.12.25-.05.52-.11.71-.16.38-.04.65-.07.93-.09.83-.08,1.76-.19,2.69-.22-.54,0-.99,0-1.54.04-.19,0-.39,0-.58,0-.34,0-.67,0-1,.01-.9.12-1.68.29-2.67.46-.1.02-.32.05-.42.07-1.4.27-2.71.49-4.09.84-2.47.55-1.84.51-2.72.74-.36.1-.63.18-.9.25-.4.09-.8.23-1.12.32-.68.23-1.35.44-2.01.68-.65.25-1.3.51-1.98.77-1.02.39-2.1.88-3.2,1.36-.56.3-1.23.65-1.8.95-.21.1-.44.19-.73.33-.49.27-1.06.59-1.55.86-.65.34-1.26.71-1.89,1.1-1.97,1.17-1.31.92-2.53,1.78-1.01.67-1.89,1.37-2.85,2.11-.82.6-1.62,1.34-2.4,1.99-.93.83-1.74,1.67-2.63,2.54-.24.32-.49.63-.77,1.01-.08.1-.21.25-.34.41-.61.67-1.22,1.46-1.78,2.16-.83,1.01-1.54,2.09-2.28,3.14-.55.72-.8,1.01-1.48,2.09-.21.21-.46.57-.7.97-.22.41-.46.86-.66,1.24-.37.67-.78,1.31-1.1,2.02-.63,1.16-1.28,2.21-1.84,3.42.01.11.03.21.04.31-.32.83-.73,1.7-1,2.54-.15.25-.28.39-.4.56-.37.96-.75,1.95-1.07,3.04-.37.99-.82,2.03-1.15,3.13-.14.57-.31,1.23-.44,1.78-.08.57-.13,1.15-.16,1.74-.16.47-.32.93-.5,1.5-.15.77-.28,1.55-.37,2.32.1.76-.19,2.03-.37,2.82-.12,1.11-.26,2.34-.39,3.58.15.64-.23,2.99-.17,4.18,0,2.61-.24,4.76,0,6.79.11,2.43.47,4.76.92,7.16.1.73.26,1.46.42,2.19.28.95.33.09.63,1.13.08.36.18.82.28,1.27.77,1.54,1.27,3.5,1.29,3.98-.44.05-.24.6-.08,1.13.36.85.39.32.48.2.4.86.8,1.81,1.23,2.67.23.7.46,1.4.7,2.11,0,1.34,1.45,3.97,2.12,6.26.53,1.27,1.12,2.69,1.71,4,.62,1.29,1.25,2.47,1.83,3.27.36.94.72,1.86,1.14,2.88-.09-.02-.16-.03-.23-.05.83,2.28.95,1.68,1.26,2.44.15.34.27.6.38.85.23,1.6,1.19,4.05,1.6,4.04.89,2.25,1.04,1.73,1.37,2.48.47.93.94,1.87,1.4,2.8.59,2.12.34,2.17.13,2.3.36,1,1.14,2.92,2.08,4.05.33.43.66.86.96,1.29.22.66.41,1.23.65,1.98.49.92,1.24,2.18,1.65,2.37.27.67.53,1.32.79,1.99.5.91,1.06,1.92,1.56,2.83-.02.48,1.11,1.99.55,1.96.48.83.92,1.58,1.39,2.4,1.37,1.28,2.96,3.58,4.4,6.37.88,1.8,1.53,3.03,2.29,3.93,1.29,2.69,1.17,1.22,1.91,2.69.31.65.62,1.3.96,1.95.57,1.39,1.33,1.7,1.95,2.75.12.5.25,1.07.36,1.55,1.21,1.94,1.87,3.16,3.15,4.26,1.25,2.18,2.66,4.34,3.98,6.5,1.18,1.81,2.31,3.55,3.44,5.28.81,1.3,1.67,2.68,2.43,3.89.19.36.34.63.48.9.38.88,1.18,2.82,1.99,3.42.48.97.85,1.72,1.28,2.59.24.35.42.63.6.89.25.36.51.71.75,1.05.54.48,1.04.99,1.52,1.47l.28.28c.63-.96,1.26-1.93,1.89-2.88.59-1,1.18-1.99,1.77-2.99l-.22-.82c-.08-.04-.22,0-.3-.05-.51.74-1.05,1.53-2.29,2.8-.37.8-.71,1.47-1,1.98-.82-.96-1.32-1.86-1.45-2.43.22.09.38.08.53.12.27.41.56.83.84,1.25.28-.38.57-.76.84-1.12.7-1.83,1.67-2.81,2.42-4.02.63-.86,1.27-1.7,1.94-2.56.26.05.53.03.83.08.1-.15.2-.3.26-.38.48-.81.9-1.54,1.39-2.31.15-.49.29-.97.36-1.36.64-.67,1.28-1.34,1.86-1.94.14.12.31.25.46.37.13-.14.28-.26.38-.3.22.17.46.37.69.56.53-.9,1.12-1.87,1.68-2.75.05-.08.16-.23.21-.31.55-.76,1.13-1.5,1.65-2.17.24-.29.44-.48.63-.7l1.03-2.07c1.22-2.64,2.21-4.36,3.49-5.28.19-.22.39-.41.65-.69l2.53-4.82c-1.28.45.76-2.02,1.34-2.41,1.32-3.48,3.17-5.28,4.45-7.37.59-1.09,1.18-2.17,1.79-3.24,2.57-5.56,7.48-9.74,8.77-15.36.52-1.01,1.44-1.76,1.52-2.73.77-1.63.78-1.96.79-2.19-.16-.88-1.5,1.28-1.2,1.92-.37.66-.68,1.23-1.1,1.98-.54-.48-1.1,1.75-1.73,2.01-.57,1.67-1.88,3.5-2.81,5.26-.42-.74-1.59,1.53-2.08,1.88-.17-.12-.38-.26-.55-.38,1.23-2.12,2.45-4.23,3.63-6.27.82-.8,1.42-2.32,1.65-3.3.67-1.35,1.35-2.69,2.02-4.04.87-1.22,1.74-2.45,2.58-3.69.26-.5.57-1.08.83-1.58.4-.75.83-1.58,1.25-2.43,1.16-2.26,2.28-4.53,3.38-6.82,1.65-2.08,2.6-3.7,2.92-5.14.34-.77.71-1.63,1.05-2.42.4-.85.85-1.67,1.22-2.43.37-1.29.68-1.23,1.1-1.45.23,2.34,1.33.98,1.59-1.32.22-.52.43-1.15.63-1.68.33-.8.72-1.66,1.11-2.53,1.02-1.32.57-2.76,1.3-4.41.45-1.16.87-2.22,1.32-3.37.35-1.2.6-2.43.88-3.55.85-2.94,1.38-5.14.98-6.52.08-.76.21-1.53.24-2.31.21-.57.45-1.22.66-1.79.02-1.11.13-2.42-.16-3.22-.01-.86-.02-1.72-.03-2.58-.05-.85-.1-1.7-.15-2.55-.07-1.7-.3-3.37-.47-5.05-.2-.57-.55-1.04-.66-1.8-.02-.77-.02-1.53-.02-2.3,1.09.71-.28-3.36-.66-4.57-.29-.45-.69-.89-.87-1.34-.03-.1-.08-.28-.1-.37-.18-1.14-.37-2.18-.63-3.21-.25-.72-.51-1.46-.76-2.19,0-.49.21-.54,0-1.38-.35-.66-.66-1.35-.95-2.05-.32-.68-.61-1.37-.89-2.04-.51-1.36-1.11-2.61-1.56-3.68-.62-1.11-1.31-2.09-1.98-3.17-.45-.65-.95-1.27-1.41-1.9-.47-.64-.94-1.26-1.46-1.86-.63-.76-1.14-1.47-1.82-2.18-1.11-1.78-1.46-1.82-2.14-2.51-.55-.56-1.09-1.12-1.63-1.68-2.83-2.67-5.72-5.34-9.4-7.43-2.63-1.61-4.86-2.91-8.19-4.28-2.05-.83-4.04-1.57-6.15-2.19.02-.03.06-.06.12-.12-1-.33-1.98-.65-3-.9-2.64-.63-4.9-1.02-7.24-1.39.6.03,1.29.13,1.88.19Z"/>
        <path class="cls-9" d="M131.35,80.45c.68,2.3.95,4.1.61,4.67-.77-2.58-.98-3.9-.61-4.67Z"/>
        <path class="cls-9" d="M132.09,97.32c.29,1.32.48,2.58.39,3.44-.09.87-.31,1.44-.63,1.56-.16-.71-.27-1.39-.39-2.08.2-.97.4-1.94.63-2.92Z"/>
        <path class="cls-9" d="M130.6,108.03c0,.64.01,1.2.02,1.71-.03.51-.06.96-.1,1.37-.08.82-.17,1.48-.25,2.11-.26.38-.57.75-1.43.91.01-.67-.05-1.26-.09-1.91.44-1.04.92-2.02,1.31-3.08.18-.39.37-.79.54-1.11Z"/>
        <path class="cls-9" d="M111.9,150.62c-.48.8-.06,1.28-.77,2.14-.48.58-.92,1.16-1.36,1.76-.26-.71.42-1.59.5-2.32.38-1.07,1-1.1,1.63-1.58Z"/>
        <path class="cls-9" d="M104.94,163.1c-.14.81-.28,1.62-.42,2.42-.14.24-.28.48-.42.72-.5.44-.98.79-1.49,1.24-.36.99-.75,1.96-1.16,2.93-.17.22-.37.41-.59.72l-1.11-.79c.7-1.2,1.36-2.33,2.02-3.45.32-.79.57-1.41.86-2.11.55-.74,1.1-1.48,1.61-2.15,1.06-1.63,2.11-3.25,3.17-4.89-.58,1.27-.26,2.27-1.08,3.62-.49.57-.94,1.16-1.4,1.74Z"/>
        <path class="cls-9" d="M83.7,198.97c-.24.39-.49.79-.74,1.19.07.42.18.85.27,1.29-.82,1.24-1.6,2.66-2.84,2.85-.38.29-.77.58-1.14.86l-.28.21c-.1.08-.14.04-.22.07-.13.02-.26.04-.38.06-.03-.16,0-.28.04-.4.1-.23.27-.55.4-.8.28-.54.51-1.04.38-1.44.34-.56.63-1.04.97-1.61.95-1.61,1.91-3.34,2.89-5.05.45-.24.52-.18.63-.1l.02,2.88Z"/>
        <path class="cls-9" d="M82.1,208.36c-.34.97-1.31,2.1-2.89,3.99.83-1.48,1.63-2.9,2.46-4.38.14.12.28.25.43.39Z"/>
        <path class="cls-9" d="M78.06,206c.09.93.99,1.19.31,2.38-.37.37-.76.77-1.12,1.07-.07-.06-.16-.09-.25-.12-.45.53-.88,1.04-1.29,1.58-.16.12-.34.33-.5.44,0-.46,0-.83,0-1.3.16-.88.52-1.22.93-2.33l.18-.25.3-.42c.27-.06.6-.15.91-.28.2-.29.36-.51.54-.77Z"/>
        <path class="cls-9" d="M76.74,216.47c-.31-.04-.63.04-.89-.01.36-1.28,1.04-2,1.57-2.82.17.08.36.19.58.18-.41.86-.85,1.79-1.26,2.65Z"/>
        <path class="cls-9" d="M67.39,200.04c-2.05-2.61-2.47-2.69-2.72-3.9.53-.03,1.76,1.77,2.61,2.61.47.62-.5-1.19,0-.61.31.46.67,1.01.98,1.47l-.88.43Z"/>
        <path class="cls-8" d="M55.48,191.87c-.63-1.05-1.38-1.36-1.95-2.75-.35-.65-.66-1.3-.96-1.95-.74-1.46-.62,0-1.91-2.69-.76-.9-1.41-2.13-2.29-3.93-1.44-2.79-3.03-5.09-4.4-6.37-.47-.82-.91-1.58-1.39-2.4.56.03-.57-1.48-.55-1.96-.5-.91-1.06-1.92-1.56-2.83-.26-.66-.53-1.32-.79-1.99-.41-.19-1.16-1.45-1.65-2.37-.24-.74-.43-1.32-.65-1.98-.3-.43-.63-.86-.96-1.29-.94-1.13-1.72-3.05-2.08-4.05.21-.13.46-.18-.13-2.3-.47-.93-.94-1.87-1.4-2.8-.33-.75-.48-.23-1.37-2.48-.41.01-1.37-2.44-1.6-4.04.41.55.87,1.16,1.28,1.71.23.51.5,1.1.73,1.61.51,1.09,1.02,2.19,1.53,3.29l1.31,2.77c.53,1.1,1.05,2.18,1.58,3.27.79,1.59,1.57,3.16,2.36,4.75.84,1.5,1.63,2.92,2.47,4.42.8,1.41,1.85,3.07,2.28,4.38.7,1.32,1.4,2.64,2.1,3.95.62.84,1.17,1.58,1.78,2.4.51.74,1.04,1.56,1.56,2.38.06.41.74,1.63,0,1.13.23.41.45.82.63,1.14.64,1.23,1.22,2.37,1.86,3.59.41.73.87,1.55,1.28,2.28h.4c.9,1.71,1.83,3.4,2.78,5.11,1.08,1.94,2.16,3.88,3.24,5.82-1.28-1.1-1.94-2.32-3.15-4.26-.11-.48-.25-1.06-.36-1.55Z"/>
        <path class="cls-9" d="M52.57,186.76c-.41-.73-.87-1.55-1.28-2.28-.63-1.22-1.22-2.36-1.86-3.59.39.33.74.58,1.09.82,1.24,1.71,2.08,3.66,2.45,5.04h-.4Z"/>
        <path class="cls-1" d="M48.11,168.21c-.33-.65-.63-1.29-.93-1.94-.51-1.21-1.36-2.04-1.79-2.37-.27.14-.58.2-.87.34-1.07-1.96-2.15-3.93-3.23-5.9.37.03.72.06,1.19.1-.09-.17-.13-.24-.21-.4.53.2,1.02.32,1.53.51.4.66.79,1.31,1.18,1.95,1.9,3.48,3.82,6.71,5.47,9.67-.11.08-.59-.33-.53.38-.61-.8-1.19-1.55-1.8-2.35Z"/>
        <path class="cls-9" d="M45.91,166.6c-.48-.8-.92-1.54-1.4-2.36.29-.14.6-.2.87-.34.39.89.79,1.85,1.15,2.74l-.61-.04Z"/>
        <path class="cls-9" d="M41.66,156.9c-1.24-1.51-1.79-2.58-2.28-3.57-.04-.39-.36-1.2-.16-1.18,1.61,2.5,2.4,3.89,2.44,4.75Z"/>
        <path class="cls-9" d="M32.57,144.57c-.46-.61-.88-1.15-1.29-1.69-.06-.4-.08-.79-.13-1.18-.43-.7-.77-1.54-1.55-2.85-1.7-4.51-3.68-6.67-5.37-12.4.4.42.82.93,1.25,1.44,1.69,3.99,2.83,6.69,4.13,8.74.21.74.47,1.56.73,2.37.34.76.71,1.6,1.24,2.78.47.94.97,1.95,1.43,2.87-.21-.04-.33-.06-.45-.08Z"/>
        <path class="cls-8" d="M24.23,126.45c-.22-.6-.43-1.12-.63-1.73-.04-.01-.08-.03-.1-.03-.33-.8-.7-1.69-1.03-2.5-.06-.18-.12-.35-.15-.44-.54-1.34-.97-2.6-1.45-3.86-.32-1.04-.5-2-.73-2.94-.4-1.18-.72-2.35-1.01-3.44-.04-.17-.08-.35-.1-.44.11-.1.22-.2.34-.21-.42-1.6-.54-2.58-.76-3.38-.1-.4-.19-.75-.28-1.11-.08-.36-.16-.73-.25-1.16l-.16-1.32c-.03-.26-.07-.53-.09-.79-.05-.63-.1-1.17-.15-1.8-.09-.95-.08-2-.09-3.02.1-.93.14-1.96.27-2.88.03.62.14,1.36.21,1.98.02,1.06.03,2.07.07,3.06.09.96.12,1.92.15,3,.14.85.28,1.7.41,2.55.15.85.38,1.71.57,2.56.13.94.35,1.98.54,2.92.12.53.26,1.13.38,1.66.37,1.2.74,2.39,1.11,3.6.41,1.2.83,2.42,1.26,3.65.43,1.3,1,2.78,1.49,4.17.14.12.29.33.44.45.32.92.67,1.94.98,2.87-.44-.51-.85-1.02-1.25-1.44Z"/>
        <path class="cls-9" d="M22.57,124.07c-.04-.7-.07-1.26-.11-1.88.34.82.7,1.7,1.03,2.5-.3-.18-.63-.45-.93-.62Z"/>
        <path class="cls-9" d="M18.08,105.22c.09.43.17.8.25,1.16.09.36.18.72.28,1.11.21.8.34,1.78.76,3.38-.13,0-.24.11-.34.21-.16-.78-.34-1.48-.49-2.36-.14-.89-.4-1.97-.46-3.49Z"/>
        <path class="cls-9" d="M21.92,110.68c-.24-.71-.52-1.43-.73-2.15-.12-.59-.22-1.1-.32-1.6-.33-1.07-.47-2.02-.69-2.99-.25-.84-.28-1.45-.28-1.99,0-.53.05-.98.1-1.43-.13-.48-.21-1.05-.3-1.56.03-1.22-.11-2.83.07-3.76.08,0,.18-.09.26-.18.05-1.15.03-2.22.1-3.37.13.16.28.33.41.48.07.79.14,1.6.22,2.38-.21.32-.41.74-.61,1.08-.03.93.03,1.88.05,2.82.03.93.02,1.92.13,2.74.19.14.36.26.53.39.08,1.19.34,2.6.57,3.92-.03.43-.18.35-.21.92.02.23.05.47.08.78.17.4.38.88.58,1.35.15.83.39,1.59.59,2.43-.04.06-.05.2-.06.35-.17-.23-.33-.45-.48-.61Z"/>
        <path class="cls-9" d="M17.68,101.31c-.09-.95-.08-2-.09-3.02.01,1.02,0,2.07.09,3.02Z"/>
        <path class="cls-9" d="M17.92,93.16c-.09-.36-.13-.82-.13-1.31.01-.49.05-1.03.1-1.56.1-1.06.19-2.09.18-2.71.19-1.92.39-1.6.57-2.32.02.03.04.06.05.08-.03.93-.09,1.94-.11,2.96-.22,1.64-.26,4.4-.65,4.86Z"/>
        <path class="cls-6" d="M22.06,113.97c-.17-.08-.37-.16-.56-.25-.4-1.25-.7-2.54-1.07-3.85-.31-1.32-.61-2.66-.87-4.01-.19-1.34-.48-2.7-.54-4.01-.04-.67-.15-1.29-.15-2-.01-.7-.03-1.4-.04-2.09-.03-1.02-.05-2.02,0-3.02.03-1,.03-2,.07-2.99.13-1.98.24-3.95.48-5.91.03-.5.07-1.03.14-1.59.09-.55.18-1.14.28-1.74.11-.6.21-1.22.32-1.84.14-.62.29-1.24.43-1.87.26-1.26.61-2.48.93-3.64.28-1.17.63-2.22.87-3.15l.48-1.42c.18-.47.37-.93.55-1.4.19-.47.37-.94.56-1.42.21-.47.43-.94.64-1.41.25-.53.48-1.04.72-1.55.26-.5.53-1,.8-1.51.42-.81.8-1.52,1.29-2.28.24-.49.48-.96.69-1.38.32-.51.65-.92,1-1.43-.27.69-.5,1.28-.66,1.9-1.18,2-2.29,4.12-3.2,6.31-.24.51-.47.99-.7,1.48-.21.5-.41,1-.63,1.51-.63,1.36-.76,2.38-.89,3.31-.14.42-.25.76-.38,1.18-.3.74-.52,1.43-.8,2.18-.52,1.48-.37,2.27-.63,3.6-.23,1.25-.31,2.16-.4,2.86-.08.7-.14,1.19-.17,1.63-.19,1.4-.32,2.82-.49,4.23-.14.79-.28,1.58-.4,2.29-.28,1.83.03,3.02.05,4.54-.18.93-.04,2.54-.07,3.76.1.51.18,1.08.3,1.56-.05.46-.1.9-.1,1.43,0,.53.03,1.15.28,1.99.22.97.36,1.92.69,2.99.1.51.2,1.01.32,1.6.04.71.18,1.51.31,2.33.25,1.02.51,2.13.85,3.24-.16-.07-.21-.09-.29-.12Z"/>
        <path class="cls-9" d="M21.18,79.65c.19-.48.46-1.67.49-1.36.03.63-.1,1.45-.27,2.3-.17.86-.31,1.79-.42,2.6-.11.36-.23.72-.37.94.04-.44.09-.93.17-1.63.08-.7.17-1.61.4-2.86Z"/>
        <path class="cls-9" d="M22.32,70.03c.59-1.24,1.12-2.5,1.78-3.7-.34.9-.65,1.73-.95,2.51-.3.8-.65,1.52-.87,2.22,0-.42-.24-.29.03-1.03Z"/>
        <path class="cls-9" d="M30.14,57.25c.68-1.01,2.53-3.43,2.62-3.29-.54.85-1.79,2.44-2.27,3.17-.71,1.09-1.13,1.66-1.61,2.26.42-.71.84-1.43,1.26-2.15Z"/>
        <path class="cls-9" d="M36.95,49.21c.53-.49,1.07-.99,1.64-1.44,1.19-1.09,2.56-2.05,3.6-2.85.21-.21,1.48-.99,2.27-1.52.08-.05.23-.16.39-.24.2-.07.48-.19.77-.32-.43.31-1.15.74-1.61,1.06-1.39.88-2.64,1.81-3.95,2.8-.21.17-.42.35-.7.58-.42.37-.84.74-1.25,1.11l-1.18,1.16c-1.01.9-1.85,1.81-2.72,2.72.9-1.06,1.75-2.07,2.75-3.06Z"/>
        <path class="cls-1" d="M75.68,32.92c.98-.01,1.83-.03,2.53-.04.7.01,1.25.04,1.62.07,1.34.02,2.79.14,4.14.24,1.34.16,2.76.3,4.09.53-.59-.06-1.28-.16-1.88-.19-.48-.05-.96-.11-1.34-.15-.85-.11-1.68-.18-2.52-.24-.83-.08-1.67-.12-2.53-.15-1.43-.09-2.76-.07-4.1-.09Z"/>
        <path class="cls-1" d="M95.44,34.55c2.19.65,4.95,1.19,6.77,2.03l-.15.13c1.05.45,1.95.83,2.02,1.02,3.6,1.53,5.22,2.21,8.51,4.21,1.4.78,2.72,1.69,4.06,2.58.57.41,1.07.77,1.55,1.11.76.53,1.32.96,1.95,1.48-.12.19,1.78,1.49,2.49,2.32.48.45.95.88,1.41,1.32.44.46.88.92,1.34,1.39.82.78,1.63,1.71,2.38,2.55-.28-.09-.31.24.65,1.22,1.07,1.27,1.36,2.2,2.66,3.62.1-.14.76.99,1.21,1.57-.23.07.51,1.08.41,1.32.58.97,1.17,1.51,1.74,2.18.55.68,1.11,1.47,1.62,2.89.4,1.04.77,2.22,1.27,3.5.43,1.3.98,2.7,1.72,4.22.76,1.34,1.14,2.28,1.29,3,.15.72.05,1.21-.03,1.67-.19.92-.29,1.65,1.03,3.9.4,1.08,0,1.3.25,2.39.25,1,.41,2.02.61,3.06.2,1.04.39,2.1.51,3.15-.26.39-.12,1.52.01,2.65.13,1.13.18,2.27-.1,2.64.14.66.3,1.45.39,2.22.09.77.04,1.65-.11,2.27-.06.73-.12,1.41-.18,2.07-.09.63-.17,1.24-.26,1.85-.09.6-.18,1.19-.27,1.8-.11.59-.27,1.18-.43,1.8-.02.74-.33,1.46-.56,2.12-.25.66-.44,1.25-.16,1.82.5.38-.29,2.59-.58,3.87-.44.31-.75,1.5-1.08,2.69-.36,1.17-.76,2.31-1.27,2.57-.72,2.05-1.58,4.02-2.45,6.09l-.39,2.41c-2.22,5.31-4.44,9.84-6.82,14.38-2.38,4.54-4.87,9.13-7.81,14.43-2.32,2.57-1.69,4.6-4.03,7.15-2.32,3.25-3.73,6.44-5.88,9.22-1.07.76-.64,1.65-1.3,2.46-2.03,3.8-3.95,5.46-5.9,8.13,1.4-3.32,4.54-7.59,6.71-11.4.64-1.4,1.78-1.3,1.43-2.36.44-.61.8-1.63,1.31-1.86,5.25-8.14,10.42-18.28,15.09-27.28,2.39-4.04,4.47-10.11,7.31-15.41.75-2.12,1.51-4.13,2.14-6.21.41-2.37,1.4-4.83,2.25-6.75.19-1.37.45-2.71.73-4.04.23-1.36.5-2.69.74-4,.19-1.35.4-2.65.52-3.94.07-1.3.14-2.61.1-3.77.18-1.86,0-3.95-.32-5.94-.14-1-.27-1.97-.33-2.9-.09-.92-.11-1.8,0-2.59-.13-.79-.23-1.58-.41-2.37-1.24-4.94-2.47-10.09-4.07-14.45-.68-1.28-.27-2.29-1.31-3.17-.3-.75-.96-1.69-1-2.2-.75-1.87-3.1-5.7-4.98-7.8-.73-1.07-1.35-2.1-2.16-3.11-.23-.32-.47-.64-.83-1.1-.35-.47-.82-1.08-1.55-1.96-.58-.58-1.11-1.17-1.72-1.72-.17-.35-.41-.76-.68-1.16-1.12-.92-1.45-1.17-2.47-1.77-.62-.5-1.23-1.03-1.89-1.49-.41-.3-.73-.54-1.13-.83-.74-.47-1.49-.97-2.35-1.58-.85-.63-1.88-1.29-3.18-2.09-1.26-.58-2.31-1.19-3.32-1.75-1.03-.52-1.98-1.07-3.06-1.4-2.49-.86-2.88-1.36-6.51-2.53-1.01-.35-2.15-.63-3.16-.93.29.05.61.11,1,.18.05-.05.1-.09.15-.14-1.01-.33-2.1-.64-3.12-.89-1.05-.24-2.21-.43-2.73-.58.01-.16,3.38.59,4.69.84Z"/>
        <path class="cls-1" d="M89.87,34.03c.72.08,1.95.3,2.8.5-.04.05.1.08-2.8-.5Z"/>
        <path class="cls-6" d="M129.27,65.45c.86,1.22,1.47,2.5,2.11,3.71.58,1.23,1.05,2.46,1.51,3.66.39,1.22.77,2.42,1.15,3.61.33,1.2.7,2.39,1.1,3.58.04,2.1.43,2.34.57,3.1.2,1.84.36,3.27.48,4.38.06,1.11.06,1.89-.14,2.41.16,1.69.16,3.3.23,4.99.23,1.28.11,2.37.1,3.5-.01.57-.02,1.14.02,1.76.02.62.05,1.29.16,2.05-.01.28-.03.57-.04.85-.2.64-.52,1.16-.78,1.77.06.78.13,1.46.17,2.34-.87,2.31-1.01,3.42-1.05,4.41-.32,1.07-.68,2.24-1.03,3.41-.51,1.71-.98,3.44-1.61,5.21-.18.54-.36,1.07-.57,1.7-1.15,1.95-1.72,2.92-1.7,3.65.22,1.15-.65.52-.94,2.04-.61,1.58-1.45,3.25-1.98,5.09-.38.76-.79,1.59-1.17,2.35-.31.26-.58.43-.84.6-.57,1.62-1.06,3.15-1.65,4.76-1.1,2.29-2.22,4.56-3.38,6.82-.42.85-.85,1.67-1.25,2.43-.26.5-.57,1.08-.83,1.58-.84,1.24-1.71,2.47-2.58,3.69-.68,1.35-1.35,2.7-2.02,4.04-.23.98-.83,2.5-1.65,3.3-1.18,2.03-2.4,4.15-3.63,6.27-.1.04-.26.16-.33.22-1.91,2.09-1.17,2.27-1.48,2.86-.79,1.62-1.58,3.25-2.41,4.96-.54.88-1.08,1.77-1.62,2.65-1.49,1.69-2.98,3.38-4.48,5.09-.21.42-.42.85-.64,1.28,0,.12-.04.32-.06.42-1.73,2.7-3.49,5.35-5.21,7.92-.08-.05-.16-.12-.24-.18-1.22,1.3-1.47,1.7-1.73,2.1-.48.21-.99.41-1.55.45-.04.92-.08,1.83-.12,2.76-.51.79-1.02,1.58-1.48,2.29l-.38-.29c.59-1.09-.25-1.53,1.22-4.17.17-.21.37-.41.63-.69.25-.51.55-1.1.82-1.6.87-.87,1.67-1.67,2.53-2.54l1.95-3.1c.3-.48.65-1.03.95-1.51.26-.98,1.15-2.06,2.96-4.44,2.7-4.39,5.33-8.73,7.96-13.17.62-1.05,1.18-2.02,1.8-3.07.82-1.82,2.21-4.6,4-7,.34-.89.47-1.7,1.03-2.56,1.35-1.13,2.35-3.81,4.37-6.29.65-1.12,1.36-2.34,2.02-3.47,1.61-3.07,3.07-6.44,4.46-9.82.6-.73,1.14-1.39,1.75-2.12.4-2.55,1.7-5.85,3.08-8.47,1.83-4.07,3.58-8.17,4.96-12.41.3-1.17.79-2.57.6-3.5.12-.45.23-.9.31-1.35.85-2.44.86-3.21.87-3.86.14-.72.28-1.44.42-2.16.27-2.91.27-5.91.16-8.89.19-.27.35-.55.53-.91-.16-.76-.27-1.51-.4-2.26-.05-.55-.12-1.21-.17-1.77-.11-1.02-.17-2.05-.34-3.08.06-.56-.12-1.69-.29-2.85-.22-1.15-.46-2.32-.45-2.99-.13-1.26-.46-2.54-.74-3.87-.3-1.33-.74-2.65-1.12-3.99-.89-2.65-1.87-5.28-2.88-7.66Z"/>
        <path class="cls-1" d="M135.67,93.92c-.18.37-.34.64-.53.91-.33-.76-.59-3.08.13-3.17.13.75.25,1.5.4,2.26Z"/>
        <path class="cls-1" d="M131.46,100.24c.12.69.23,1.37.39,2.08-.1.95-.37,1.91-.55,2.85-.17.94-.43,1.89-.7,2.86-.17.32-.35.72-.54,1.11-.4,1.06-.88,2.04-1.31,3.08-.03-.01-.09-.03-.15-.05.17-.77.36-1.63.53-2.4.15-.86.26-1.71.41-2.47.21-1.64,1.07-1.74,1.42-2.64-.17-.72-.78-.41-.69-1.33.1-.66.13-1.29.2-1.94.07-.4.18-.79.27-1.21.03,0,.09,0,.12.01.21.02.39.04.6.06Z"/>
        <path class="cls-1" d="M133.7,109.75c-.14-1.1.22-3.63.87-3.86,0,.65-.02,1.42-.87,3.86Z"/>
        <path class="cls-1" d="M96.56,175.12c-.4.97-.83,2.03-1.23,3-.05.08-.15.24-.24.4-.99,1.23-2.03,2.53-3.02,3.76-.21.67-.38,1.22-.58,1.88-1.45,1.47-2.4,4.47-3.74,5.56-.74,1.08-1.46,2.16-2.22,3.33l-1.61,2.63c-.1.16-.19.32-.24.39-.1-.08-.18-.14-.63.1l.55-2.4c.58-.84,1.15-2.15,1.77-2.61.57-.85,1.15-1.69,1.72-2.53.44-.84.83-1.59,1.26-2.42-.15-.93,1.09-2.19,1.58-3.22.35-.32.72-.62,1.33-1.31.53-1.8.96-2.52,1.43-3.32.37-.3.89-.84,1.14-.31.05-.08.14-.24.19-.32.14-.71.26-1.3.4-2.01.48-.68.92-1.84,1.46-2.14-.11,1.07.89.53.67,1.52Z"/>
        <path class="cls-1" d="M103.08,187.72c-1.04,2.42-1.95,3.51-3.6,5.82-.49.82-.97,1.63-1.41,2.37l-2.17,2.99c-2.66,3.68-5.32,7.36-7.99,11.04,2.07-3.44,4.52-6.67,7.73-11.24.24-.89.87-1.48,2.05-3.06.47-.72,1-1.51,1.51-2.29.6-1.45,1.65-2.68,2.36-3.91.5-.58.99-1.16,1.51-1.71Z"/>
        <path class="cls-1" d="M87.42,210.64c-.05.26-.16.55-.28.83-.12.27-.24.52-.38.75-.29.46-.61.89-.99,1.42-.21.64-.46,1.27-.63,1.84-1.53,2.51-1.61,1.34-2.96,3.25-.6.32-1.36,1.6-2,2.59-.64.99-1.12,1.65-1.02.59.75-1.85,1.44-2.69,2.45-3.77.5-.54,1.07-1.12,1.72-1.88.65-.76,1.39-1.74,2.18-2.96.34-.47.66-.91.99-1.34.17-.22.32-.45.48-.68.15-.21.29-.42.45-.64Z"/>
        <path class="cls-1" d="M74.56,225.99c-.17.02-.38.05-.64.1-1.18-1.34-2.84-3.81-4.49-6.3-1.65-2.45-3.29-5.08-4.44-7.16-.46-.24-.93-.96-1.56-1.74l-.33-.66c-.11-.22-.22-.44-.29-.6l-.45-1.04c.25-.13.52-.26.76-.39l2.45,3.55,2.58,3.68c1.95,3.05,3.53,5.57,5.77,9.32.59.34,1.21.89,1.99,1.4.25-.3.53-.64.83-.99-.26.4-.53.82-.81,1.24-.46-.16-.93-.31-1.38-.41Z"/>
        <path class="cls-1" d="M60.44,203.96c-2.67-4.35-5.65-9.58-8.03-14,.27,0,.96.97,1.39,1.54,1.32,1.46.52,1.56,1.65,3.1,1.19,1.12,3.07,5.28,4.23,6.18.45.93.94,1.95,1.39,2.88-.08.15-.12.37-.17.61-.17-.13-.34-.26-.45-.3Z"/>
        <path class="cls-1" d="M47.31,185.62c-.44-.83-.84-1.58-1.29-2.41.33.17,0-.57-.36-1.15-1.04-2.48-3.83-7.31-5.47-10.01-.59-1.42-.25-1.8-1.09-3.55-1.22-2.19-2.32-4.78-3.49-7.3-2.1-3.27-3.38-6.56-4.44-8.93-.16-.34-.27-.6-.39-.86-1.01-1.34-1.82-3.46-2.54-5.02-.49-1.12-.95-2.15-1.41-3.27-1.57-2.7-3.17-7.8-4.58-10.57.28.08-.32-1.27.19-.73.11.03.19.05.3.08,1.41,3.22,2.5,6.55,3.87,9.28.25.68.51,1.37.76,2.05.36.87.7,1.63,1.08,2.5.04.24.08.48.1.72.56.73,1.12,2.59,1.95,3.42.12.26.23.51.35.77.42.85.84,1.72,1.22,2.49.28.52.6,1.12.88,1.62.4.85.8,1.7,1.16,2.46.44,1.09.84,1.45,1.1,2.04.25.66.51,1.33.74,2,.26.59.57.87,1.23,2.04.72,1.51,1.38,2.93,2.09,4.43.26.66.78,1.91,1.49,2.44.26.5.55,1.09.81,1.59.69,1.33,1.38,2.65,2.08,3.98.53,1.16,1.35,2.98,1.89,3.56.57.59,1.16,2.24,2.01,2.82.23.66.45,1.32.7,1.97.71,1.07,1.11,1.4,2.31,3.53-.4-.24-.78-.49-1.23-.81l.03,1.23c-.63-.57-1.22-.33-2.07-2.39Z"/>
        <path class="cls-1" d="M44.38,183.6c-.36-1.49-4.35-7.79-1.67-4.82.44.84.87,1.67,1.26,2.42.13.25.26.5.44.84.32.74.68,1.57,1.04,2.4-.1.41-.83-.92-1.07-.84Z"/>
        <path class="cls-1" d="M50.22,172.87c-.54.15-.94-.26-1.96-1.96-1.23-1.47-2.34-3.03-2.08-3.57-.08-.24-.16-.48-.27-.73l.61.04c.42.49.91,1.07,1.33,1.56.37.8.7,1.53,1.07,2.33.41.73.86,1.54,1.3,2.34Z"/>
        <path class="cls-1" d="M32.68,140.14c-.4.23-.86-.47-1.99-2.6-.21-.26-.43-.55-.64-.82-.26-1.05-.51-2.09-.76-3.14.2.05.42.1.65.15.25.58.47,1.09.73,1.67.13.48.28.97.47,1.55.53,1.09,1.02,2.09,1.55,3.19Z"/>
        <path class="cls-8" d="M29.28,133.59c-.19-.35-.4-.77-.61-1.21-.2-.66-.41-1.32-.61-1.97-.36-.7-.73-1.39-1.2-2.51-.11-.03-.21-.06-.3-.08-.29-.76-.62-1.62-.94-2.47-.3-.76-.59-1.62-.86-2.38-.32-.67-.61-1.45-.96-2.36-.33-.91-.7-1.96-1.23-3.18-.26-.77-.48-1.64-.73-2.5-.1-.34-.22-.77-.34-1.2.19.09.39.17.56.25.08.03.13.06.29.12.14.13.33.36.49.58.12.43.22.76.34,1.19.1.5.28,1.08.41,1.58.41,1.12.76,2.24,1.19,3.35.3.77.64,1.63.98,2.49.5,1.45,1.13,2.96,1.67,4.39.99,2.23,2.32,4.51,2.5,6.05-.23-.05-.45-.1-.65-.15Z"/>
        <path class="cls-1" d="M28.26,132.28c-.59-1.52-1.16-2.94-1.69-4.46.09.02.19.05.3.08.48,1.12.85,1.81,1.2,2.51.2.65.4,1.31.61,1.97-.13-.03-.29-.07-.42-.1Z"/>
        <path class="cls-8" d="M29.45,142.85c-.31-.76-.42-.16-1.26-2.44-.32-1-.62-1.92-.91-2.83-.58-.8-1.21-1.97-1.83-3.27-.59-1.3-1.18-2.73-1.71-4-.67-2.29-2.13-4.92-2.12-6.26-.23-.7-.47-1.41-.7-2.11-.42-.85-.83-1.81-1.23-2.67-.09.12-.12.65-.48-.2-.16-.54-.35-1.08.08-1.13-.03-.48-.52-2.44-1.29-3.98-.1-.45-.2-.91-.28-1.27-.3-1.04-.35-.18-.63-1.13-.15-.73-.32-1.45-.42-2.19-.45-2.4-.81-4.74-.92-7.16-.24-2.04,0-4.19,0-6.79-.05-1.19.32-3.54.17-4.18.13-1.23.27-2.46.39-3.58.18-.79.47-2.06.37-2.82.08-.78.22-1.55.37-2.32.18-.57.34-1.04.5-1.5.03-.58.08-1.16.16-1.74.14-.55.3-1.21.44-1.78.33-1.1.78-2.14,1.15-3.13.32-1.09.7-2.08,1.07-3.04.12-.16.25-.31.4-.56.02.08.04.16.05.22.79-1.84,1.17-2.71,1.17-2.95-.05,0-.13.09-.22.19-.01-.1-.02-.19-.04-.31.56-1.2,1.21-2.26,1.84-3.42-.45,1.16-.89,1.88-1.2,2.69.44-.67,1.19-2.17,1.8-3.31.65-1.12,1.12-1.91.88-1.23-.59,1.12-.63,1.17-1.26,2.65.17-.23.29-.36.42-.52.44-.83,1.02-1.7,1.49-2.51,0,.06,0,.11,0,.15-.46.89-.76,1.47-1.06,2.06l-.97,1.83c-.55,1.05-.97,2.16-1.44,3.25-.12.15-.25.31-.38.46-.42,1.15-.93,2.56-1.38,3.92-.41,1.37-.89,2.65-1.18,3.55-.19.82-.41,1.73-.63,2.66-.25.92-.47,1.86-.7,2.8-.08.89-.57,2.91-.41,3.29-.23,1.27-.38,2.63-.51,3.92.05.16.08.42.12.68-.03.27-.06.55-.09.82-.11.66-.22,1.32-.34,1.98-.06.96-.13,1.83-.14,2.66,0,.83.01,1.63.02,2.47,0,.84.02,1.7.13,2.63.09.94.15,1.96.38,3.16.02.71.05,1.32.1,1.83.06.51.16.93.24,1.27.17.69.33,1.07.45,1.3l.16.09c.26.81.55,1.5.87,2.37-.22.04-.17.86.12,1.95.15.7.29,1.31.46,2.08.26.75.48,1.39.76,2.21.26,1.03.53,2.15.81,3.26.39,1.01.84,2,1.29,3.09.78,3.28,2.56,6.04,2.78,7.86.7,1.74,1.47,3.54,2.26,5.35.37.86.74,1.64,1.16,2.5-.07.22-.14.44-.17.74.33.77.7,1.62,1.03,2.39Z"/>
        <path class="cls-1" d="M21.9,130.55c-1.26-1.9-1.15-2.5-1.47-3.46-.53-.48-.79-1.7-.9-3-.06-.18-.09-.27-.14-.45.14.21.23.32.35.52l.79,2.17c.03.25.06.49.1.82.4,1.07.84,2.24,1.28,3.4Z"/>
        <path class="cls-1" d="M22.35,114.09c-.34-1.11-.6-2.22-.85-3.24-.13-.82-.27-1.62-.31-2.33.21.72.49,1.44.73,2.15.15.15.31.37.48.61.01-.14.03-.29.06-.35.52,1.05.63,1.55.65,2.73-.02,0-.06-.02-.08-.03-.14-.06-.25-.11-.39-.16.06.4.13.8.19,1.2-.16-.21-.35-.45-.49-.58Z"/>
        <path class="cls-1" d="M20.33,101.15c-.03-.17-.07-.36-.1-.45-.07-.76-.04-1.68-.06-2.53,0-.86-.05-1.74-.02-2.57.2-.34.4-.76.61-1.08.04.6.06,1.13.07,1.61.02.48.04.9.06,1.28.02.76.01,1.36.04,1.9-.1-.05-.15.25-.17.72-.02.47.06.99.1,1.52-.17-.13-.34-.25-.53-.39Z"/>
        <path class="cls-1" d="M19.77,95.19c-.02-1.51-.33-2.7-.05-4.54.13-.71.26-1.5.4-2.29.04.53.09,1.08.13,1.6.12-.24.23-.38.34-.53.27,1.18,0,2.35-.04,2.69-.13-.16-.28-.32-.41-.48-.07,1.15-.06,2.22-.1,3.37-.08.1-.18.18-.26.18Z"/>
        <path class="cls-1" d="M21.18,79.65c.27-1.32.11-2.12.63-3.6.28-.75.5-1.44.8-2.18-.54,2.51-.71,3.33-.94,4.42-.03-.31-.3.87-.49,1.36Z"/>
        <path class="cls-1" d="M22.99,72.7c.14-.93.26-1.95.89-3.31.21-.52.42-1.02.63-1.51.23-.49.46-.97.7-1.48-.17.52-.3.93-.47,1.45-.61,1.58-1.27,3.23-1.75,4.85Z"/>
        <path class="cls-1" d="M49.86,40.46c.12-.04.19-.07.31-.11-2.05,1.06-3.44,1.83-4.55,2.49-.29.12-.58.25-.77.32.8-.46,1.61-.93,2.44-1.4.85-.43,1.7-.89,2.57-1.3Z"/>
        <path class="cls-1" d="M52.95,39.15c.61-.23,1.19-.44,1.77-.66.59-.19,1.19-.38,1.81-.58.41-.15.89-.33,1.4-.47,2.09-.63,2.56-.75,4.02-1.07,2.54-.54,5.37-.98,7.57-1.14.85-.12,2.06-.14,3.09-.18-.03,0-.04.01-.07.02-1.85.06-2.88.19-3.76.29-.88.08-1.59.2-2.81.36-.57.09-2.32.36-3.96.72-.6.15-1.28.32-1.89.48-1.2.32-2.1.56-3.55,1.05-1.02.35-2.04.71-3.03,1.13-.77.23.09-.15-.95.19.08-.03.26-.1.34-.13Z"/>
        <path class="cls-8" d="M66.61,35c1.08-.14,2.19-.21,3.28-.29-.12.04-.21.07-.32.1.55-.06,1.2-.1,1.75-.12.6-.03,1.28-.07,1.87-.11,1.69,0,1.64.02,1.5.06.04.04.06.08,0,.11.24.05.49.11.64.16-.79.01-1.51.03-2.4.04-.73,0-1.53.01-2.25.02-1.22.11-2.43.18-3.65.36-.02-.01-.14,0-.26,0,.61-.12,1.24-.24,1.88-.33-.23,0-.45.02-.74.03.06-.02.1-.03.14-.04-.95.09-1.89.22-2.85.34-.04-.03-.07-.06-.02-.1.5-.08.91-.14,1.42-.23Z"/>
        <path class="cls-1" d="M69.89,34.71c.59-.08,1.28-.1,1.88-.14.45,0,.98,0,1.43.01-.59.03-1.28.07-1.87.11-.55.02-1.2.06-1.75.12.11-.03.2-.06.32-.1Z"/>
        <path class="cls-8" d="M121.67,51.53c.67.69,1.03.73,2.14,2.51-.69-.81-1.4-1.74-2.14-2.51Z"/>
        <path class="cls-8" d="M125.62,56.22c.51.6.99,1.22,1.46,1.86.47.63.97,1.25,1.41,1.9.68,1.08,1.36,2.06,1.98,3.17.46,1.07,1.05,2.32,1.56,3.68.27.67.57,1.36.89,2.04.29.69.6,1.38.95,2.05.21.84-.01.89,0,1.38.25.73.51,1.47.76,2.19,1.05,1.97.76,2.23.73,3.58.18.45.58.89.87,1.34.38,1.21,1.75,5.28.66,4.57,0,.77,0,1.53.02,2.3.1.76.46,1.23.66,1.8.17,1.68.4,3.35.47,5.05.05.85.1,1.7.15,2.55.01.85.02,1.71.03,2.58.28.79.17,2.11.16,3.22-.21.57-.45,1.22-.66,1.79-.03.78-.16,1.55-.24,2.31.4,1.39-.13,3.58-.98,6.52-.28,1.12-.53,2.35-.88,3.55-.45,1.15-.86,2.22-1.32,3.37-.73,1.65-.27,3.09-1.3,4.41-.39.86-.78,1.73-1.11,2.53-.2.53-.41,1.16-.63,1.68-.27,2.31-1.36,3.66-1.59,1.32-.42.22-.73.16-1.1,1.45-.37.76-.82,1.58-1.22,2.43-.34.78-.71,1.64-1.05,2.42-.33,1.44-1.27,3.06-2.92,5.14.59-1.61,1.08-3.15,1.65-4.76.27-.17.54-.34.84-.6.38-.76.79-1.58,1.17-2.35.52-1.84,1.37-3.51,1.98-5.09.29-1.52,1.16-.89.94-2.04-.03-.73.55-1.7,1.7-3.65.21-.63.39-1.16.57-1.7.63-1.78,1.09-3.5,1.61-5.21.35-1.17.71-2.34,1.03-3.41.04-.99.18-2.1,1.05-4.41-.04-.88-.11-1.57-.17-2.34.26-.62.58-1.13.78-1.77-.08-.87-.18-1.84-.29-2.7-.06-1.13,0-2.45.27-2.71.34-.92-.13-1.81-.23-2.75-.07-1.69-.07-3.3-.23-4.99.2-.52.2-1.3.14-2.41-.12-1.11-.28-2.55-.48-4.38-.14-.76-.52-1-.57-3.1-.4-1.19-.77-2.38-1.1-3.58-.38-1.19-.76-2.38-1.15-3.61-.46-1.2-.93-2.43-1.51-3.66-.63-1.21-1.24-2.49-2.11-3.71-.39-.71-.76-1.46-1.18-2.18-.43-.71-.87-1.43-1.29-2.12-.38-.76-.73-1.31-1.1-1.98-.58-.98-1.2-1.81-1.81-2.66-.1-.47-.3-1.22.18-1.14.51.28,1.04.56,1.55.84Z"/>
        <path class="cls-8" d="M132.12,89.46c.7,3.07.67,5.19.12,5.69-.64-.93-.47-3.16-.12-5.69Z"/>
        <path class="cls-8" d="M121.34,132.59c-.11.77-.62,1.65-1.87,3.57.13-1.19.9-3.17,1.87-3.57Z"/>
        <path class="cls-8" d="M119.47,153.32c-.77-.49-.07-1.83,1.05-3.13,1.25-.34-.71,2.11-1.05,3.13Z"/>
        <path class="cls-8" d="M116.72,158.05c-.08.97-1,1.72-1.52,2.73-1.29,5.62-6.21,9.8-8.77,15.36-.61,1.07-1.2,2.15-1.79,3.24-1.29,2.09-3.14,3.89-4.45,7.37-.57.39-2.62,2.86-1.34,2.41l-2.53,4.82c-.26.28-.47.47-.65.69-1.28.92-2.27,2.64-3.49,5.28l-1.03,2.07c-.19.22-.39.41-.63.7-.53.67-1.1,1.41-1.65,2.17-.05.08-.16.24-.21.31-.56.89-1.15,1.86-1.68,2.75-.24-.19-.48-.39-.69-.56-.1.04-.25.15-.38.3-.14-.12-.31-.25-.46-.37-.58.6-1.21,1.27-1.86,1.94-.08.39-.21.87-.36,1.36-.49.77-.91,1.5-1.39,2.31-.05.08-.15.23-.26.38-.3-.04-.57-.03-.83-.08.88-1.38,1.76-2.77,2.64-4.16.34-.4.72-.91,1.1-1.39l1.13-1.44c.27-1.59,1.93-2.91,2.86-4.56.76-1.56,1.53-3.1,2.22-4.58,2.68-2.32,4-6.4,6.49-9.21.09-.41.17-.7.17-2.11-.11.04-.23.18-.34.22.02-.1.07-.3.06-.42.21-.43.43-.86.64-1.28,1.5-1.7,2.99-3.39,4.48-5.09.54-.88,1.08-1.78,1.62-2.65.83-1.71,1.62-3.34,2.41-4.96.31-.59-.43-.77,1.48-2.86.08-.06.23-.19.33-.22.17.12.38.26.55.38.49-.34,1.66-2.62,2.08-1.88.92-1.76,2.24-3.59,2.81-5.26.63-.25,1.19-2.48,1.73-2.01.42-.75.73-1.32,1.1-1.98-.29-.64,1.04-2.8,1.2-1.92,0,.23-.02.56-.79,2.19Z"/>
        <path class="cls-8" d="M107.13,166.75c-.62,1.05-1.18,2.02-1.8,3.07-.06-.04-.11-.08-.14-.1.64-1.03,1.27-1.96,1.94-2.97Z"/>
        <path class="cls-8" d="M100.87,171.13c-.44.6-.2,1.11-1.12,2.51-.46.7-1,1.46-1.49,2.14-.56,1.09-1.14,2.17-1.74,3.23.17.12.36.26.53.38-.97,1.49-1.93,2.98-2.89,4.48-.5.9-1.05,1.89-1.55,2.79-.3.48-.64,1.04-.94,1.51-.36.08-.72.15-1.13.31-.47.7-.73,1.32-1.3,2.41.16.12.34.27.5.39-.25,1.1-.5,2.21-.76,3.32-.28.5-.57,1.09-.82,1.6-.25.28-.46.48-.63.69-.51.2-.99.42-1.44.54-.67,1.01-.85,1.83-1.57,2.8-.42.37-.89.83-1.3,1.24-.09-.44-.19-.87-.27-1.29.25-.4.49-.8.74-1.19l-.02-2.88c.05-.08.14-.23.24-.39l1.61-2.63c.76-1.18,1.48-2.25,2.22-3.33.91-1.41,1.82-2.82,2.68-4.15,1.29-1,.74-2,1.64-3.29.99-1.23,2.04-2.54,3.02-3.76.1-.16.2-.32.24-.4.4-.97.84-2.04,1.23-3,.51-.67,1.07-1.4,1.63-2.14.13-.82.96-1.83,1.56-2.65l1.11.79Z"/>
        <path class="cls-8" d="M86.69,201.34c-.92,1.42-1.79,2.77-2.71,4.19-.33.51-.65,1-.98,1.5-.16.25-.32.49-.48.74-.14.19-.27.39-.42.59-.16-.14-.3-.27-.43-.39.14-.19.27-.38.4-.56.16-.25.32-.5.48-.74.32-.49.64-.99.97-1.5.95-1.4,1.85-2.71,2.8-4.11l.38.29Z"/>
        <path class="cls-8" d="M75.21,211.35l-.33.47c-.26-.39-.53-.71-.79-1.16-.28-.39-.56-.76-.83-1.17.04-.52-.42-1.43-.21-1.79.02-.07.03-.13.04-.17.49-.07.65.8,1.02,1.51.13.36.29.54.44.63.07.17.14.34.21.5.14-.03.28-.07.45-.13,0,.47,0,.84,0,1.3Z"/>
        <path class="cls-8" d="M47.85,168.2c-.42-.49-.91-1.07-1.33-1.56-.36-.89-.76-1.85-1.15-2.74,0-.08-.03-.24-.09-.4,1.2,1.17,2.01,3.18,2.82,4.71.61.8,1.18,1.55,1.8,2.35.55,1.12,1.14,2.33,1.69,3.45-.22.16-.77-.17-1.38-1.14-.82-1.61-1.59-3.14-2.37-4.67Z"/>
        <path class="cls-8" d="M33.94,147.74c-.47-1.08-.89-2.07-1.37-3.17.12.02.24.04.45.08.54,1.17,1.12,2.43,1.69,3.59-.27-.19-.5-.3-.77-.5Z"/>
        <path class="cls-8" d="M37.03,148.18c-1.78-2.54-2.53-4.44-3.22-6.01-.39-.67-.76-1.35-1.13-2.03-.54-1.1-1.02-2.1-1.55-3.19-.19-.57-.34-1.07-.47-1.55.13.03.29.06.43.09.13.25.29.52.44.78.86,1.99,1.72,3.97,2.64,5.96,1.42,2.53,2.77,4.79,2.87,5.95Z"/>
        <path class="cls-6" d="M23.58,64.51c.32-.7.74-1.35,1.1-2.02.2-.38.44-.83.66-1.24.24-.4.49-.76.7-.97.69-1.08.94-1.37,1.48-2.09.74-1.05,1.45-2.13,2.28-3.14.21-.18.48-.46.74-.73.47-.63,1.02-1.19,1.53-1.78.32-.36.63-.7.94-1.05.33-.33.65-.66,1-1l1.08-1.03c.38-.33.76-.65,1.14-.98.34-.3.73-.64,1.12-1,.42-.33.85-.67,1.26-1.01.83-.68,1.66-1.24,2.22-1.59.41-.3.74-.54,1.15-.84.1-.1.19-.21.28-.3.42-.27.83-.53,1.23-.79.83-.53,1.71-.97,2.56-1.43.59-.35,1.11-.61,1.62-.86,1.65-.84,3.25-1.53,4.87-2.16.22-.1.39-.18.61-.28,1.22-.5,2.58-.92,3.84-1.34.11-.06.24-.12.35-.18.27-.07.54-.15.9-.25.88-.23.25-.19,2.72-.74,1.37-.35,2.69-.57,4.09-.84.11-.02.32-.05.42-.07.17-.02.33-.04.41-.05,1.05-.17,2.2-.33,3.27-.43.19,0,.39,0,.58,0-.39.06-.77.12-1.15.18-.28.03-.56.06-.93.09-.2.04-.46.1-.71.16.13.03.18.08.22.12-.14.03-.36.07-.58.11-.51.08-.92.15-1.42.23-.26.04-.51.08-.85.14-.8.11-1.6.18-2.39.33-.66.16-1.24.3-1.88.45-.23.04-.46.09-.7.15-.93.28-1.78.5-2.7.8-.72.24-1.44.48-2.15.72-.7.27-1.41.54-2.12.81-1.05.43-2.06.93-3.18,1.45.9-.37,1.73-.7,2.56-1.04-.73.33-1.23.61-2.2,1.01-2.45,1.11-4.28,2.14-7.01,3.92-.87.53-1.74,1.22-2.59,1.79-.87.68-1.6,1.25-2.48,1.93-1.74,1.61-4.38,4-5.87,5.97-.57.63-1.06,1.31-1.58,1.95-.53.64-1,1.32-1.48,2.01-.33.52-.74,1.1-1.04,1.63-.24.36-.49.73-.68,1.02-.4.67-.81,1.32-1.16,2.02-.47.8-1.05,1.68-1.49,2.51-.13.16-.25.29-.42.52.63-1.48.68-1.53,1.26-2.65.24-.68-.23.11-.88,1.23-.61,1.14-1.36,2.63-1.8,3.31.3-.81.75-1.53,1.2-2.69Z"/>
        <path class="cls-8" d="M24.68,62.49c.2-.38.44-.83.66-1.24.24-.4.49-.76.7-.97-.21.21-.46.57-.7.97-.22.41-.46.86-.66,1.24Z"/>
        <path class="cls-8" d="M28.42,60.09c.15-.62.39-1.21.66-1.9.98-1.43,1.74-2.49,2.85-3.85.75-.89,1.41-1.76,2.16-2.57.64-.68,1.14-1.21,1.55-1.65.42-.42.76-.74,1.06-1.02.4-.35.78-.68,1.15-1.01.39-.3.76-.6,1.14-.9-.87.8-1.15,1.02-2.29,2.2.11-.09.23-.18.27-.19-1,.98-1.85,1.99-2.75,3.06-.5.54-.96,1.14-1.44,1.7-.09-.15-1.94,2.27-2.62,3.29-.42.72-.84,1.43-1.26,2.15-.2.27-.33.49-.46.69Z"/>
        <path class="cls-8" d="M29.81,55.06c.55-.7,1.16-1.49,1.78-2.16.13-.16.26-.31.34-.41.29-.37.53-.69.77-1.01.61-.63,1.32-1.3,2.01-1.99.2-.2.42-.38.62-.56.79-.64,1.59-1.39,2.4-1.99.96-.74,1.84-1.44,2.85-2.11,1.22-.86.56-.61,2.53-1.78.63-.39,1.24-.76,1.89-1.1.49-.27,1.06-.59,1.55-.86.28-.15.51-.23.73-.33.56-.3,1.23-.65,1.8-.95,1.1-.48,2.18-.96,3.2-1.36.68-.26,1.33-.52,1.98-.77.66-.24,1.32-.45,2.01-.68.32-.09.72-.23,1.12-.32-.11.06-.24.12-.35.18-1.27.43-2.63.85-3.84,1.34-.22.1-.39.18-.61.28-1.62.63-3.22,1.32-4.87,2.16-.51.25-1.04.52-1.62.86-.85.47-1.73.9-2.56,1.43-.4.26-.82.52-1.23.79-.09.09-.18.2-.28.3-.41.3-.74.54-1.15.84-.56.35-1.4.91-2.22,1.59-.42.33-.85.68-1.26,1.01-.4.35-.78.69-1.12,1-.38.33-.76.65-1.14.98l-1.08,1.03c-.35.35-.67.68-1,1-.31.34-.62.69-.94,1.05-.51.59-1.06,1.15-1.53,1.78-.27.27-.54.54-.74.73Z"/>
        <path class="cls-8" d="M39.36,47.29c.28-.23.49-.41.7-.58,1.31-.99,2.55-1.93,3.95-2.8-.6.43-1.14.83-1.74,1.26-.61.46-1.26.95-2.05,1.54-.7.6-1.38,1.18-1.95,1.67-.57.5-1.02.93-1.34,1.18l1.18-1.16c.41-.37.83-.73,1.25-1.11Z"/>
        <path class="cls-8" d="M40.8,45.74c1.21-1.01,2.82-2.02,4.18-2.86.77-.45,1.61-.98,2.48-1.45l-.25.22c-.87.52-1.73,1.04-2.51,1.51-.72.46-1.46.93-2.19,1.4-.72.49-1.42,1.02-2.12,1.5.17-.13.31-.25.41-.32Z"/>
        <path class="cls-8" d="M55.01,38.27c.76-.25,1.61-.52,2.39-.77.23-.04.39-.05.53-.07-.51.15-.99.32-1.4.47-.62.2-1.21.39-1.81.58-.58.22-1.17.44-1.77.66.75-.33.84-.43,2.06-.88Z"/>
        <path class="cls-1" d="M14.85,104.06c-.45-.14-.28-1.69-.43-2.11-.02-4.17.39-9.68.98-13.56.36-2.44.79-4.87,1.36-7.16-.04-.37.24-1.39.17-1.58,1.64-6.05,3.74-10.92,6.19-15.69,2.13-3.9,5.22-8.22,8.37-11.61,1.57-1.56,3.68-3.73,4.9-4.55.54-.6,1.78-1.46,2.8-2.24,1.05-.74,1.94-1.33,1.81-1.38,3.16-2.15,6.41-3.88,9.98-5.46-.19.05.23-.13.77-.36.55-.2,1.21-.45,1.5-.58.75-.3,1.36-.52,2.04-.75.68-.22,1.41-.52,2.46-.79,2.63-.82,5.15-1.33,8.51-1.88,0-.03.62-.14,1.27-.25.65-.1,1.34-.17,1.49-.22,3.03-.34,1.74-.09,3.7-.22.76-.05,1.54-.05,2.32-.08-.11.03-.22.06-.8.1.47.03.89.06,1.31.09.83,0,.15.05.13.08-2.35.03-4.81.11-7.25.42-.32,0-.92.05-.52-.02-2.07.29-2.77.41-4.68.8-2.35.44-4.1.94-5.83,1.45-1.73.54-3.44,1.14-5.67,2,.35-.04-2.32,1-3.23,1.53-3.85,1.82-6.76,3.7-9.82,6.03-.48.41-1.22.93-1.93,1.54-.71.61-1.44,1.24-1.97,1.77-1,.92-2.39,2.19-3.24,3.29-1.97,2.14-4.53,5.36-6.39,8.37-.53.86-1.06,1.71-1.58,2.57-.37.6-1.02,1.76-1.27,2.55-.57,1.07-1.03,2.2-1.56,3.3-.33.61-.84,1.84-.96,2.56-.36.88-.64,1.76-.92,2.62-.27.87-.59,1.71-.81,2.58-.23.64-.46,1.35-.78,3.22-.11.56-.23,1.14-.36,1.81l-.42,1.56-.34,1.58c-.22,1.05-.5,2.1-.66,3.17.01.68-.27,2.06-.15,3-.05.56-.1,1.11-.16,1.76-.11.69-.32,2.02-.12,2.84-.01.28-.02.56-.04.83-.07,1.2-.16,2.37-.21,3.54.02,1.17-.05,2.36.04,3.56Z"/>
        <path class="cls-8" d="M58.28,36.46c.88-.23.25-.19,2.72-.74-2.47.55-1.84.51-2.72.74Z"/>
        <path class="cls-8" d="M68.18,34.35c.18-.02.37-.04.46-.05.24,0,.4.02.54.03-1.07.1-2.21.26-3.27.43-.28.04-.55.08-.83.12.11-.02.32-.05.42-.07.99-.17,1.78-.34,2.67-.46Z"/>
        <path class="cls-8" d="M69.76,34.34c.54-.04.99-.04,1.54-.04-.93.03-1.86.15-2.69.22.38-.06.77-.12,1.15-.18Z"/>
        <path class="cls-2" d="M36.69,49.4c1.14-1.18,1.42-1.4,2.29-2.2.45-.36.94-.82,1.41-1.14.17-.13.31-.25.41-.32.57-.39,1.13-.81,1.7-1.18.76-.49,2.04-1.34,2.2-1.41-.09.09-.15.17-.23.25-.79.53-2.06,1.31-2.27,1.52-1.04.8-2.41,1.76-3.6,2.85-.57.45-1.11.95-1.64,1.44-.04.01-.15.1-.27.19Z"/>
        <path class="cls-2" d="M52.41,38.62c.71-.27,1.41-.54,2.12-.81.72-.24,1.43-.48,2.15-.72.92-.31,1.78-.53,2.7-.8.23-.06.46-.11.7-.15.65-.15,1.22-.29,1.88-.45.79-.14,1.59-.22,2.39-.33-1.47.24-2.91.57-4.36.92-1.32.38-3.25.88-3.57,1.07-1.6.5-3.07,1.07-4.62,1.68-.83.34-1.66.67-2.56,1.04,1.11-.52,2.13-1.02,3.18-1.45Z"/>
        <path class="cls-6" d="M44.69,43.16c.78-.47,1.63-.98,2.51-1.51l.25-.22,1.98-1c1.21-.54,2.41-1.14,3.74-1.64.09-.04.26-.1.43-.17.9-.35,1.8-.63,2.71-.92.45-.17.8-.33,1.17-.44-.11.02-.14.01-.27.04,1.21-.34,2.39-.73,3.52-.97-.08.03-.16.07-.24.11-.14.06-.29.13-.43.2.12-.01.25-.03.27-.02,2.79-.71,5.35-1.06,6.7-1.28,1.22-.18,2.43-.25,3.65-.36.72,0,1.53-.01,2.25-.02l-.32.09c-1.03.05-2.24.06-3.09.18-2.21.16-5.03.59-7.57,1.14-1.46.32-1.93.44-4.02,1.07-.14.01-.3.03-.53.07-.77.25-1.62.53-2.39.77-1.22.45-1.31.55-2.06.88-.08.03-.26.1-.34.13-.86.33-1.68.74-2.44,1.07-.12.04-.19.06-.31.11-.87.41-1.72.87-2.57,1.3-.83.47-1.64.94-2.44,1.4-.16.09-.31.2-.39.24.08-.08.14-.15.23-.25Z"/>
        <path class="cls-2" d="M53.61,38.62c1.13-.45,1.31-.54,3.6-1.32.13-.03.16-.02.27-.04-.36.12-.72.28-1.17.44-.91.28-1.81.56-2.71.92Z"/>
        <path class="cls-2" d="M60.49,36.44c.08-.03.16-.07.24-.11.7-.17,1.3-.34,1.99-.49.74-.12,1.56-.25,2.3-.36,1.18-.19,1.65-.28,2.9-.45.29-.01.51-.02.74-.03-.64.09-1.26.2-1.88.33.12,0,.24,0,.26,0-1.35.22-3.92.57-6.7,1.28-.03,0-.16.01-.27.02.14-.06.29-.13.43-.2Z"/>
        <path class="cls-6" d="M92.6,186.65c.5-.9,1.05-1.89,1.55-2.79-.5.9-1.05,1.89-1.55,2.79Z"/>
        <path class="cls-6" d="M89.74,191.27c-.16-.12-.34-.26-.5-.39.56-1.09.83-1.71,1.3-2.41.41-.15.77-.23,1.13-.31l-1.93,3.11Z"/>
        <path class="cls-6" d="M29.82,143.7c-.11-.25-.22-.51-.38-.85-.33-.77-.7-1.62-1.03-2.39.03-.31.1-.52.17-.74.67,1.37,1.3,2.76,2,4.12.16.49.36,1.08.52,1.57-.41-.55-.87-1.16-1.28-1.71Z"/>
        <path class="cls-6" d="M17.91,108.96c-.12-.23-.29-.61-.45-1.3-.08-.34-.18-.76-.24-1.27-.05-.51-.08-1.12-.1-1.83-.23-1.19-.29-2.22-.38-3.16-.11-.93-.13-1.8-.13-2.63,0-.83-.01-1.64-.02-2.47,0-.83.08-1.7.14-2.66.11-.66.23-1.32.34-1.98-.02.48.1,1.11.14,1.65-.04.88-.08,1.77-.12,2.67,0,.89,0,1.79,0,2.69,0,.9-.02,1.8.06,2.65.08.86.05,1.72.2,2.58,0,.08-.02.23-.02.39.1.76.18,1.55.3,2.35.15.8.3,1.61.45,2.41l-.16-.09Z"/>
        <path class="cls-6" d="M17.05,90.16c.14-1.28.29-2.65.51-3.92-.16-.38.32-2.39.41-3.29.24-.94.45-1.89.7-2.8-.18.99-.21,1.61-.32,2.46-.05.43-.13.91-.23,1.54-.08.63-.19,1.4-.37,2.39-.08.66-.15,1.34-.25,2.24-.11.68-.23,1.37-.34,2.05-.04-.26-.07-.52-.12-.68Z"/>
        <path class="cls-6" d="M20.79,70.77c.27-.84.67-1.72,1-2.54.09-.1.17-.18.22-.19,0,.24-.38,1.11-1.17,2.95-.01-.06-.03-.14-.05-.22Z"/>
        <path class="cls-6" d="M62.72,35.84c.83-.17,1.66-.35,2.49-.52.96-.12,1.9-.25,2.85-.34-.04.01-.08.03-.14.04-1.26.17-1.73.27-2.9.45-.74.12-1.56.25-2.3.36Z"/>
        <path class="cls-1" d="M69.33,214.26c-.14-.27-.29-.54-.48-.9.19.36.34.63.48.9Z"/>
        <path class="cls-1" d="M36.14,152.56c-.03.07-.02.23-.01.39-.01-.16-.02-.32.01-.39Z"/>
        <path class="cls-1" d="M19.38,123.64c-.71-.8-1.01-2.53-1.35-3.15-.14-.14-.93-2.54-.44-2.09-.31-.87-.55-1.54-.82-2.32-.26-.93-.45-2.07-.71-2.72-.15,0-.3-1.24-.44-1.8.16.04.07-.47-.05-1.11-.09-.65-.22-1.43-.22-1.89.17.01.48,1.93.7,2.43.33,1.23.61,2.39.99,3.62.08.2.15.39.21.5.19,1.12.33,2.25.53,3.37.52,1.72,1.01,3.47,1.6,5.16Z"/>
        <path class="cls-8" d="M88.29,196.29c.56-.04,1.07-.23,1.55-.45.26-.4.51-.8,1.73-2.1.08.06.15.12.24.18-.45.96-.98,1.96-1.47,2.9-.72.75-1.45,1.49-2.17,2.24.04-.94.08-1.85.12-2.76Z"/>
        <path class="cls-8" d="M88.16,196.19s.07.06.13.1c-.05-.04-.1-.08-.13-.1Z"/>
        <path class="cls-8" d="M66.61,35c.22-.04.44-.08.58-.11-.14.03-.36.07-.58.11Z"/>
        <path class="cls-6" d="M22.99,72.7c.48-1.62,1.14-3.27,1.75-4.85-.16.78-.38,1.48-.7,2.3-.51,1.53-.74,1.75-1.05,2.55Z"/>
        <path class="cls-1" d="M15.35,108.55c-.63-1.8-.57-3.43-.51-4.49.1.43.4,1.09.43,2.42-.01.68.04,1.37.08,2.07Z"/>
      </g>
    </g>
  </g>
  <path class="cls-3" d="M34.08,63.49c1.4-.94,2.75-1.94,4.2-2.8.63-.38,1.33-.51,2.22-.15,1.57.64,3.69-.38,4.35-2.04.62-1.56,1.59-2.5,3.18-3.12.85-.33,1.52-1.09,1.67-2.29.13-1.07.08-2.36,1.54-3.11.71-.36,1.08-1.71,1.26-2.67.18-.97.51-1.45,1.5-1.66.74-.16,1.4-.64,2.13-.87.47-.15,1.12-.29,1.49-.09,1.17.63,2.24,1.43,3.52,2.27.34-.59.61-1,.82-1.44.64-1.35,2.16-1.5,3.07-.32.31.4.78.69,1.15,1.01,1.51-.56,2.93-1.17,4.42-1.58.32-.09.86.55,1.27.88.27.22.48.71.74.72,1.65.07,3.31.1,4.95.02.91-.04,1.28-.59,1.32-1.37-.94.26-1.91.65-2.91.78-1.07.14-2.17.03-3.27-.15,1.83-1.12,4.36.61,5.87-1.54,1.48.65,2.58,2.18,4.47,1.7.17-.04.38.02.53-.05,2.28-1.19,3.65.23,5.05,1.66.83.85,1.28,1.85,1.82,2.88.76,1.45,2,2.75,3.28,3.84,1.51,1.28,1.69,3.03,2.26,4.67.57,1.64,1.12,3.29,1.62,4.95.24.8.35,1.64.56,2.67-2.08.97-.48,2.56-.21,3.91.33,1.64.94,3.25,1.61,4.8.5,1.14.65,2.45,1.83,3.32,1.6,1.17,1.73,3.15,2.22,4.84.63,2.2.67,4.56,1.29,6.76.61,2.16,1.65,4.21,2.48,6.32.18.46.36.96.38,1.45.17,3.17.26,6.34.48,9.51.05.73.42,1.52.86,2.13.65.89.51,1.49-.16,2.29-.38.46-.64,1.32-.49,1.87.57,1.98,1.4,3.88,2.01,5.85.38,1.23.63,2.51.77,3.78.21,1.91.12,3.86.46,5.75.24,1.34,1.05,2.57.77,4.02-.07.37-.07.76-.13,1.55-.31-.64-.45-.93-.6-1.24-.08,0-.19-.03-.24,0-.77.54-1.51,1.13-2.31,1.61-.91.54-1.41,1.21-1.49,2.29-.07.92-.32,1.86-.67,2.71.3-.19.6-.38.9-.58.26-1.93.75-3.75,3.09-4.76.36.64.18,1.04-.66,1.55-.32.19-.69.48-.81.81-.22.58-.43,1.16-.63,1.74,3.28-2.26,6.3-4.87,9.02-7.78v-3.91c.1,0,.21-.01.31-.02v3.61c9.06-9.84,14.59-22.96,14.59-37.38,0-30.49-24.72-55.21-55.21-55.21-20.3,0-38.03,10.96-47.62,27.28l.68.61c.73-.6,1.69-1.09,2.46-1.66.31-.23.65-.41.97-.62ZM114.19,95.33c.16,0,.33,0,.49,0v10.69c-.16,0-.33,0-.49,0v-10.69ZM113.55,126.68c-.23.94-.46,1.87-.73,2.99-.79-1.32-.25-2.21.73-2.99ZM109.12,107.73c-.07-.28-.2-.56-.2-.84-.02-2.79-.05-5.59-.01-8.38,0-.33.29-.65.47-.98.05,2.93.11,5.86.16,8.79,0,.46,0,.91,0,1.37l-.43.05ZM111.11,118.13c-.71-1.91-2.07-3.63-1.6-5.82.09-.41.47-.75.72-1.13.12.09.24.18.35.26-1.12,2.33.86,4.41.53,6.68ZM109.4,97.45c-.86-1.41-1.74-2.8-2.55-4.24-.21-.38-.19-.89-.11-1.38,1.4,2.13,2.04,4.71,4.42,6.09l-1.77-.47ZM109.63,77.51c.11,0,.23,0,.34,0v12.99c-.11,0-.23.01-.34.02v-13ZM104.46,75.04c.95,1.3,1.85,2.55,2.75,3.79-1.56-.55-3.07-2.74-2.75-3.79ZM103.17,65.99c.11,0,.22,0,.33,0v3.53c-.11,0-.22,0-.33,0v-3.52ZM103.57,79.87c-3.17-3.08-3.92-7.15-5.16-11.02.15-.07.3-.13.45-.2.4.82.9,1.61,1.17,2.47.34,1.06.35,2.22.75,3.24.36.92,1.04,1.72,1.59,2.57.59.91,1.58,1.68,1.2,2.93ZM88.73,45.05c1.05,1.3,2.1,2.61,3.16,3.9.25.3.54.56.83.83,1.05,1,2.16,1.95,3.14,3.01.31.33.23.98.4,1.46.68,1.94,1.35,3.9,2.11,5.81.71,1.79,1.08,3.79,3.01,4.9-1.61-.11-3.25-1.77-3.62-3.09-.69-2.49-1.41-4.99-2.42-7.37-.41-.96-1.61-1.58-2.43-2.38-.77-.75-1.57-1.4-1.78-2.63-.14-.8-.96-1.49-1.49-2.22-.46-.63-.93-1.24-1.4-1.87.16-.12.32-.24.47-.35ZM38.55,58.45c1.7.65,3.4.74,5.34-.16-.64,1.21-1.48,1.7-2.53,1.48-2.88-.59-2.87-.64-2.81-1.33Z"/>
  <g>
    <path class="cls-5" d="M78.97,88.38c12.99-6.72,28-14.45,28-14.45l2.15,11.15-30.16,3.29Z"/>
    <path class="cls-3" d="M100.79,138.59c-.22-.03-.5-.12-.64-.28-1.29-1.45-3.14-2.02-4.77-2.94-.45-.25-.9-.6-1.17-1.02-1.26-1.92-2.48-3.88-3.68-5.85-.25-.41-.24-1-.53-1.37-.43-.57-1.02-1.03-1.54-1.53-.05-.05-.11-.14-.15-.14-1.07.15-1.72-.6-2.47-1.23.08-.22.21-.54.41-1.07-.44.17-.67.26-.9.35-.05-.1-.11-.2-.1-.21.67-.58,0-1.09-.22-1.47-.41-.72-.35-1.29-.04-2,.32-.73.41-1.55.68-2.31.18-.48.42-.99.79-1.34.56-.53.82-1.01.32-1.7-.1-.13-.18-.33-.16-.48.31-2.47-1.82-3.28-3.25-4.53-.83-.73-1.83-1.27-2.65-2-.3-.27-.26-.88-.48-1.29-.98-1.86-1.22-3.73-.25-5.67.21-.41.28-.88.46-1.31.18-.42.42-.81.68-1.32.8,1.1,1.46,2.06,2.18,2.97.24.31.59.57.94.78,2.04,1.19,4.44,1.81,6.02,3.74.15.19.64.12.97.16.2.03.41.09.6.04.4-.1.79-.27,1.19-.41-.13-.32-.16-.8-.4-.92-.88-.45-1.85-.72-2.74-1.16-.91-.45-1.83-.95-2.64-1.56-1.61-1.21-3.21-2.43-3.95-4.42-.35-.94-.84-1.85-1.44-2.65-.35-.47-1.03-.71-1.58-1.02-.37-.21-.76-.36-1.49-.7.45-.25.63-.35.81-.45.64-.35,1.55-.47,1.4-1.52-.11-.73-.32-1.45-.34-2.18-.06-1.52-1.21-1.64-2.29-1.69-1.29-.05-2.31.6-2.86,1.75-.15.31.13.8.19,1.21.03.22.09.52-.03.64-.11.12-.51.16-.63.06-.52-.45-1-.42-1.35.12-.35.54-.34,1.11.24,1.57.16.13.28.31.51.58-.27.19-.53.49-.86.59-1.33.38-1.53.87-1.98,2.2-.65,1.92-1.18,3.91-2.48,5.6-.58.75-.82,1.75-1.22,2.63-.12.27-.32.52-.42.8-.34,1.01-.73,2.01-.95,3.04-.1.46.08,1.01.24,1.49.28.86.55,1.74.98,2.53.27.49.84.82,1.44,1.39-.44.51-.95,1.3-1.63,1.87-1.85,1.54-2.76,3.7-4.07,5.6-.79,1.14-1.54,2.31-2.36,3.43-.33.46-.72.7-1.3.15-.59-.56-1.45-.88-1.96-1.5-.81-1-1.43-2.15-2.13-3.23-.97-1.48-1.94-2.96-2.94-4.42-.16-.24-.47-.48-.75-.53-1.27-.21-2.57-.32-3.84-.53-.41-.07-.96-.24-1.14-.54-.58-1.01-5.69-4.99-6.09-4.9s-.59,1.53-.15,1.1,4.44,1.98,4.6,2.12c.26.23.48.52.6.83.19.45.28.93.41,1.4-.12.04-.24.07-.36.11-.43-.82-.85-1.64-1.28-2.45-.19,1.47-11.96-7.2-21.05-22.89-2.5,16.12,12.17,40.58,12.17,40.58,10.12,11.65,25.04,19.03,41.69,19.03,3.38,0,6.69-.32,9.91-.9-.63-.58-1.27-1.16-1.9-1.73.08-.09.16-.18.23-.26.71.64,1.41,1.28,2.12,1.92,5.83-1.11,11.33-3.12,16.35-5.9-.51-1.66-1.66-2.61-3.51-2.84ZM46.45,119.3c-.02-1.3-.02-2.61-.02-3.91.12,0,.23,0,.35,0v4.08c-.13-.05-.33-.11-.33-.16ZM48.18,125.1c-1.02-.59-1.48-1.31-1.4-2.41.07-1.05.02-2.11.02-3.17.18.21.47.4.49.63.07.61.04,1.24.02,1.86-.03.97-.1,1.94.86,2.61.06.04,0,.24,0,.48ZM56.41,122.19c-.43-.44-.95-.84-1.29-1.34-.93-1.38-1.65-2.92-2.74-4.16-.6-.69-1.75-.95-2.69-1.3-.74-.28-1.55-.41-2.32-.61,0-.09.02-.19.02-.28.49,0,.99-.05,1.47.01.72.09,1.41.32,2.13.4.9.1,1.56.37,2.04,1.23,1.12,2.01,2.35,3.95,3.54,5.92-.06.05-.12.1-.17.15ZM56.62,123.74c1.02-.69,2.19-.12,3.01,1.64-.97-.53-1.95-1.06-3.01-1.64ZM72.61,98.83c.06-.15.32-.32.45-.3.15.02.39.26.39.39-.03.81-.1,1.63-.2,2.43-.05.36-.2.72-.33,1.18-.3-.16-.53-.33-.79-.39-.26-.07-.55-.04-.84-.05.45-1.12.87-2.2,1.32-3.26ZM69.72,104.39c-.39,1.06-.75,2.02-1.13,3.08-.78-.9-.35-2.09,1.13-3.08ZM68.76,112.1c-.13-.31-.41-.65-.36-.93.2-1.19.48-2.38.77-3.56.15-.61.38-1.2.58-1.8.15.03.31.07.46.1,0,.33.13.74-.02.99-.71,1.2-.36,2.5-.43,3.75-.01.24.03.54-.1.7-.24.29-.59.5-.9.75ZM64.57,124.92c-.99-.06-1.05-.16-.61-.99.42-.8.65-1.73,1.21-2.41.67-.82,1.59-1.45,2.41-2.16.09.07.18.14.27.2-.45,1.9-.9,3.81-1.32,5.6-.81-.1-1.37-.21-1.94-.24ZM80.69,127.35c-.44.52-.52,1.38-.61,2.11-.23,1.83-.27,3.68-.57,5.5-.2,1.23-.68,2.41-1.05,3.6-.07.22-.28.44-.26.63.1.91-.02,1.65-1.03,2.04-.21.08-.29.5-.43.77-.43.81-1.11.95-1.62.19-.49-.72-.74-1.6-1.11-2.4-.14-.31-.23-.7-.48-.89-1.34-1-1.54-2.48-1.92-3.94-.44-1.7-.71-3.46-2.44-4.6-.64-.42-.88-1.43-1.26-2.2-.24-.48-.33-1.04-.61-1.49-.39-.63-.37-1.14-.06-1.83.38-.82.59-1.76.64-2.66.14-2.09.92-3.77,2.61-5.1.66-.52,1.02-1.38,1.59-2.02.64-.72,1.37-1.35,2.04-2.04.26-.27.59-.53.72-.86.56-1.44,1.48-1.75,2.74-.89.48.33,1.01.68,1.56.8,1.14.23,1.45.85,1.36,1.92-.09,1.1-.02,2.22-.02,3.33,0,1.04-.05,2.09.02,3.12.11,1.64.1,3.34.55,4.9.26.9.23,1.3-.36,2ZM82.69,121.76c-.37.54-.17,1.44-.3,2.17-.08.48-.3.93-.45,1.4-.17-.04-.33-.08-.5-.11,0-.99.03-1.99,0-2.98-.12-2.78-.27-5.56-.39-8.34-.01-.26.17-.53.27-.8.27.13.56.22.8.38.56.37.77.87.78,1.57.03,1.33.22,2.66.38,3.98.12.98.03,1.84-.59,2.73Z"/>
  </g>
  <text class="cls-11" transform="translate(27.17 50.88) rotate(-38.36) scale(1.03 1)"><tspan x="0" y="0">S</tspan></text>
  <text class="cls-11" transform="translate(44.93 37.77) rotate(-18.92) scale(.72 .7)"><tspan x="0" y="0">P</tspan></text>
  <text class="cls-11" transform="translate(63.39 31.9) rotate(-3.95) scale(.72 .7)"><tspan x="0" y="0">É</tspan></text>
  <text class="cls-11" transform="translate(78.15 30.89) rotate(7.88) scale(.72 .7)"><tspan x="0" y="0">L</tspan></text>
  <text class="cls-11" transform="translate(94.4 33.32) rotate(21.89) scale(.72 .7)"><tspan x="0" y="0">É</tspan></text>
  <text class="cls-11" transform="translate(109.01 39.21) rotate(36.56) scale(.72 .7)"><tspan x="0" y="0">O</tspan></text>
</svg>