<?xml version="1.0" encoding="UTF-8"?>
<svg id="Marker-escalade" xmlns="http://www.w3.org/2000/svg" viewBox="0 0 1265.08 348.11">
  <defs>
    <style>
      .cls-1 {
        fill: #1f75af;
        stroke-width: 0px;
      }
    </style>
  </defs>
  <path class="cls-1" d="M870.96,70.52c9.21.07,18.35.15,27.55.22-155.95-20.05-321.37-13.84-468.12-41.33-9.16-3.83-27.47-11.48-36.64-15.33-73.35-11.85-165.25-8.83-238.77-1.9-36.78,3.48-64.66,44.6-64.66,44.6-9.26,7.45-18.56,22.4-9.44,29.99,18.35,3.9,64.25,4.26,64.13,19.31-.03,3.75-9.19,3.68-18.38,3.6-.12,15.03-27.91,44.88-37.09,44.81-9.26,7.46-64.54,29.56-73.79,36.99-27.65,11.07,54.57,68.1,91.21,79.67,18.32,7.66-.15,18.79-.24,30.07,18.41-3.61,27.51,7.73,45.92,4.11-.03,3.77,55.02,7.96,82.58,8.18,0,0,9.22-3.69,36.76-3.47,9.19.07,9.22-3.69,9.25-7.44q-.03,3.75-.06,7.51c9.26-7.44,27.57.22,36.8-3.47q-.03,3.77-.06,7.52c18.41-7.38,36.72.29,55.11-3.32q-.03,3.76-.06,7.52c9.2.07,18.36.15,18.33,3.89q-.03,3.76-.06,7.52c9.17,3.83,27.6-3.55,27.54,3.98q.03-3.76.06-7.52c36.75.29,64.27,4.28,91.79,8.26,73.34,15.62,165.28,8.83,248,1.98,9.18.07,18.42-7.38,9.3-14.96,9.18.07,18.39.15,27.56.22,18.36.15,9.27-11.22,27.63-11.07,147.14-17.62,293.96,2.34,441-7.76-36.72-4.04-64.22-11.78-100.97-8.31.03-3.75.09-11.26-9.1-11.34-55.09-4.2-119.44,2.8-146.87-12.46-9.16-3.82-18.24-15.17-45.81-15.39,9.2.07,18.38.15,27.57.22.03-3.76.09-11.27.09-11.27-36.72-4.04-82.64-8.18-119.35-12.23,0,0,.06-7.51.09-11.26l-18.36-.15c-18.16-26.49,82.85-21.91,128.81-25.31.03-3.74.09-11.26.12-15.02l-18.38-.15.06-7.51c55.12.44,101.02.8,156.16,1.24-9.2-.07-27.58-.22-36.77-.29.03-3.75.06-7.52-9.12-7.6,36.75.29,82.65,4.43,119.44-2.8,9.21-3.69.12-15.03-27.39-19.01-27.57-.22-45.92-.37-73.5-.59l.06-7.51c18.38.15,45.9,4.11,64.31.51,9.22-3.7-18.29-11.43-9.08-15.12,9.2.07,18.39.15,27.63-3.53-27.6-.22-64.35,3.24-91.9-.73-9.15-3.82-18.31-7.67-18.25-15.18-45.93,3.39-82.58-8.18-109.99-27.19-9.11-7.6-55.1-4.19-82.65-4.41Z"/>
</svg>